%TF.GenerationSoftware,Altium Limited,DefaultClient, ()*%
G04 Layer_Physical_Order=4*
G04 Layer_Color=6736896*
%FSLAX26Y26*%
%MOIN*%
%TF.SameCoordinates,9CB29443-125E-45F9-99EE-4E50F1371B14*%
%TF.FilePolarity,Positive*%
%TF.FileFunction,Copper,L4,Inr,Signal*%
%TF.Part,Single*%
G01*
G75*
%TA.AperFunction,Conductor*%
%ADD33C,0.007874*%
%ADD34C,0.011811*%
%ADD35C,0.005906*%
%ADD36C,0.003937*%
%ADD37C,0.027559*%
%ADD38C,0.015748*%
%ADD39C,0.023622*%
%ADD40C,0.009842*%
%TA.AperFunction,ComponentPad*%
G04:AMPARAMS|DCode=41|XSize=27.559mil|YSize=62.992mil|CornerRadius=6.89mil|HoleSize=0mil|Usage=FLASHONLY|Rotation=90.000|XOffset=0mil|YOffset=0mil|HoleType=Round|Shape=RoundedRectangle|*
%AMROUNDEDRECTD41*
21,1,0.027559,0.049212,0,0,90.0*
21,1,0.013780,0.062992,0,0,90.0*
1,1,0.013780,0.024606,0.006890*
1,1,0.013780,0.024606,-0.006890*
1,1,0.013780,-0.024606,-0.006890*
1,1,0.013780,-0.024606,0.006890*
%
%ADD41ROUNDEDRECTD41*%
G04:AMPARAMS|DCode=42|XSize=27.559mil|YSize=62.992mil|CornerRadius=6.89mil|HoleSize=0mil|Usage=FLASHONLY|Rotation=0.000|XOffset=0mil|YOffset=0mil|HoleType=Round|Shape=RoundedRectangle|*
%AMROUNDEDRECTD42*
21,1,0.027559,0.049212,0,0,0.0*
21,1,0.013780,0.062992,0,0,0.0*
1,1,0.013780,0.006890,-0.024606*
1,1,0.013780,-0.006890,-0.024606*
1,1,0.013780,-0.006890,0.024606*
1,1,0.013780,0.006890,0.024606*
%
%ADD42ROUNDEDRECTD42*%
%ADD43R,0.062992X0.027559*%
%TA.AperFunction,ViaPad*%
%ADD44C,0.007874*%
%ADD45C,0.011811*%
%ADD46C,0.015748*%
%ADD47C,0.023622*%
%ADD48C,0.039370*%
%TA.AperFunction,Conductor*%
%ADD49C,0.019685*%
G36*
X1100000Y1067929D02*
X1093110D01*
X1088886Y1067088D01*
X1085305Y1064695D01*
X1082912Y1061114D01*
X1082071Y1056890D01*
Y1043110D01*
X1082912Y1038886D01*
X1085305Y1035305D01*
X1088886Y1032912D01*
X1093110Y1032071D01*
X1100000D01*
Y1017929D01*
X1093110D01*
X1088886Y1017088D01*
X1085305Y1014695D01*
X1082912Y1011114D01*
X1082071Y1006890D01*
Y993110D01*
X1082912Y988886D01*
X1085305Y985305D01*
X1088886Y982912D01*
X1093110Y982071D01*
X1100000D01*
Y967929D01*
X1093110D01*
X1088886Y967088D01*
X1085305Y964695D01*
X1082912Y961114D01*
X1082071Y956890D01*
Y943110D01*
X1082912Y938886D01*
X1085305Y935305D01*
X1088886Y932912D01*
X1093110Y932071D01*
X1100000D01*
Y917929D01*
X1093110D01*
X1088886Y917088D01*
X1085305Y914695D01*
X1082912Y911114D01*
X1082071Y906890D01*
Y893110D01*
X1082912Y888886D01*
X1085305Y885305D01*
X1088886Y882912D01*
X1093110Y882071D01*
X1100000D01*
Y867929D01*
X1093110D01*
X1088886Y867088D01*
X1085305Y864695D01*
X1082912Y861114D01*
X1082071Y856890D01*
Y843110D01*
X1082912Y838886D01*
X1085305Y835305D01*
X1088886Y832912D01*
X1093110Y832071D01*
X1100000D01*
Y817929D01*
X1093110D01*
X1088886Y817088D01*
X1085305Y814695D01*
X1082912Y811114D01*
X1082071Y806890D01*
Y793110D01*
X1082912Y788886D01*
X1085305Y785305D01*
X1088886Y782912D01*
X1093110Y782071D01*
X1100000D01*
Y767929D01*
X1093110D01*
X1088886Y767088D01*
X1085305Y764695D01*
X1082912Y761114D01*
X1082071Y756890D01*
Y743110D01*
X1082912Y738886D01*
X1085305Y735305D01*
X1088886Y732912D01*
X1093110Y732071D01*
X1100000D01*
Y717929D01*
X1093110D01*
X1088886Y717088D01*
X1085305Y714695D01*
X1082912Y711114D01*
X1082071Y706890D01*
Y693110D01*
X1082272Y692102D01*
X1079035Y687318D01*
X1077508Y687101D01*
X1075334Y687655D01*
X1073674Y690232D01*
X1074012Y691929D01*
X1073248Y695770D01*
X1071072Y699025D01*
X1066138Y703960D01*
Y737205D01*
X1065374Y741045D01*
X1063198Y744301D01*
X1062447Y745052D01*
X1063341Y747853D01*
X1064600Y749970D01*
X1067049Y750457D01*
X1069653Y752197D01*
X1071394Y754802D01*
X1072005Y757874D01*
X1071394Y760947D01*
X1069653Y763551D01*
X1067049Y765292D01*
X1063976Y765903D01*
X1060904Y765292D01*
X1058300Y763551D01*
X1056559Y760947D01*
X1056072Y758498D01*
X1053955Y757238D01*
X1051154Y756345D01*
X938198Y869301D01*
X934943Y871476D01*
X931102Y872240D01*
X916394D01*
X912556Y876969D01*
X911945Y880041D01*
X910429Y882309D01*
X910819Y884065D01*
X912225Y887309D01*
X936329D01*
X943994Y879643D01*
X944354Y877833D01*
X946095Y875229D01*
X948699Y873488D01*
X951772Y872877D01*
X954844Y873488D01*
X957448Y875229D01*
X959189Y877833D01*
X959800Y880905D01*
X959189Y883978D01*
X957448Y886582D01*
X954844Y888323D01*
X953034Y888683D01*
X943496Y898221D01*
X938976Y900093D01*
X892846D01*
X891919Y904652D01*
X892014Y905093D01*
X894456Y906725D01*
X896197Y909329D01*
X896808Y912402D01*
X896197Y915474D01*
X894456Y918078D01*
X891852Y919819D01*
X888779Y920430D01*
X885707Y919819D01*
X883103Y918078D01*
X881362Y915474D01*
X880751Y912402D01*
X881362Y909329D01*
X883103Y906725D01*
X885545Y905093D01*
X885640Y904652D01*
X884713Y900093D01*
X861350D01*
X860423Y904652D01*
X860518Y905093D01*
X862960Y906725D01*
X864701Y909329D01*
X865312Y912402D01*
X864701Y915474D01*
X862960Y918078D01*
X860356Y919819D01*
X857284Y920430D01*
X854211Y919819D01*
X851607Y918078D01*
X849866Y915474D01*
X849255Y912402D01*
X849866Y909329D01*
X851607Y906725D01*
X854049Y905093D01*
X854144Y904652D01*
X853217Y900093D01*
X760471D01*
X756060Y903543D01*
X755449Y906616D01*
X753708Y909220D01*
X751104Y910961D01*
X748032Y911572D01*
X744959Y910961D01*
X743425Y909935D01*
X742704D01*
X739244Y914936D01*
X739327Y915355D01*
X738716Y918427D01*
X736976Y921031D01*
X734371Y922772D01*
X731299Y923383D01*
X728227Y922772D01*
X725622Y921031D01*
X723882Y918427D01*
X723271Y915355D01*
X723354Y914936D01*
X719894Y909935D01*
X652254D01*
X641841Y920349D01*
X642488Y926410D01*
X644228Y929014D01*
X644839Y932087D01*
X644228Y935159D01*
X642488Y937763D01*
X639883Y939504D01*
X636811Y940115D01*
X633739Y939504D01*
X631134Y937764D01*
X625073Y937116D01*
X556392Y1005797D01*
Y1050375D01*
X561392Y1052954D01*
X561888Y1052622D01*
X564961Y1052011D01*
X568033Y1052622D01*
X570637Y1054362D01*
X572378Y1056967D01*
X572989Y1060039D01*
X572378Y1063112D01*
X570637Y1065716D01*
X568033Y1067457D01*
X564961Y1068068D01*
X561888Y1067457D01*
X561392Y1067125D01*
X556392Y1069704D01*
Y1082071D01*
X556890D01*
X561114Y1082912D01*
X564695Y1085305D01*
X567088Y1088886D01*
X567929Y1093110D01*
Y1100000D01*
X582071D01*
Y1093110D01*
X582912Y1088886D01*
X585305Y1085305D01*
X588886Y1082912D01*
X593110Y1082071D01*
X606890D01*
X611114Y1082912D01*
X614695Y1085305D01*
X617088Y1088886D01*
X617929Y1093110D01*
Y1100000D01*
X632071D01*
Y1093110D01*
X632912Y1088886D01*
X635305Y1085305D01*
X638886Y1082912D01*
X643110Y1082071D01*
X656890D01*
X661114Y1082912D01*
X664695Y1085305D01*
X667088Y1088886D01*
X667929Y1093110D01*
Y1100000D01*
X682071D01*
Y1093110D01*
X682912Y1088886D01*
X685305Y1085305D01*
X688886Y1082912D01*
X693110Y1082071D01*
X706890D01*
X711114Y1082912D01*
X714695Y1085305D01*
X717088Y1088886D01*
X717929Y1093110D01*
Y1100000D01*
X732071D01*
Y1093110D01*
X732912Y1088886D01*
X735305Y1085305D01*
X738886Y1082912D01*
X743110Y1082071D01*
X756890D01*
X761114Y1082912D01*
X764695Y1085305D01*
X767088Y1088886D01*
X767929Y1093110D01*
Y1100000D01*
X782071D01*
Y1093110D01*
X782912Y1088886D01*
X785305Y1085305D01*
X788886Y1082912D01*
X793110Y1082071D01*
X806890D01*
X811114Y1082912D01*
X814695Y1085305D01*
X817088Y1088886D01*
X817929Y1093110D01*
Y1100000D01*
X832071D01*
Y1093110D01*
X832912Y1088886D01*
X835305Y1085305D01*
X838886Y1082912D01*
X843110Y1082071D01*
X856890D01*
X861114Y1082912D01*
X864695Y1085305D01*
X867088Y1088886D01*
X867929Y1093110D01*
Y1100000D01*
X882071D01*
Y1093110D01*
X882912Y1088886D01*
X885305Y1085305D01*
X888886Y1082912D01*
X893110Y1082071D01*
X906890D01*
X911114Y1082912D01*
X914695Y1085305D01*
X917088Y1088886D01*
X917929Y1093110D01*
Y1100000D01*
X932071D01*
Y1093110D01*
X932912Y1088886D01*
X935305Y1085305D01*
X938886Y1082912D01*
X943110Y1082071D01*
X956890D01*
X961114Y1082912D01*
X964695Y1085305D01*
X967088Y1088886D01*
X967929Y1093110D01*
Y1100000D01*
X982071D01*
Y1093110D01*
X982912Y1088886D01*
X985305Y1085305D01*
X988886Y1082912D01*
X993110Y1082071D01*
X1006890D01*
X1011114Y1082912D01*
X1014695Y1085305D01*
X1017088Y1088886D01*
X1017929Y1093110D01*
Y1100000D01*
X1032071D01*
Y1093110D01*
X1032912Y1088886D01*
X1035305Y1085305D01*
X1038886Y1082912D01*
X1043110Y1082071D01*
X1056890D01*
X1061114Y1082912D01*
X1064695Y1085305D01*
X1067088Y1088886D01*
X1067929Y1093110D01*
Y1100000D01*
X1100000D01*
Y1067929D01*
D02*
G37*
G36*
X332071Y1093110D02*
X332912Y1088886D01*
X335305Y1085305D01*
X338473Y1083188D01*
X338895Y1081064D01*
X338777Y1077835D01*
X336843Y1076543D01*
X335103Y1073938D01*
X334491Y1070866D01*
X335103Y1067794D01*
X336843Y1065189D01*
X339447Y1063449D01*
X342520Y1062838D01*
X345592Y1063449D01*
X347126Y1064474D01*
X447784D01*
X451866Y1060025D01*
X451675Y1057775D01*
X450158Y1056589D01*
X245157D01*
X240638Y1054717D01*
X234921Y1049000D01*
X228221Y1055701D01*
X223701Y1057573D01*
X119774D01*
X111803Y1065543D01*
X107284Y1067416D01*
X64656D01*
X63880Y1068192D01*
X63520Y1070001D01*
X61779Y1072606D01*
X59175Y1074346D01*
X56102Y1074957D01*
X53030Y1074346D01*
X50425Y1072606D01*
X48685Y1070001D01*
X48074Y1066929D01*
X48685Y1063857D01*
X50425Y1061252D01*
X53030Y1059512D01*
X54840Y1059152D01*
X57488Y1056504D01*
X62008Y1054631D01*
X84258D01*
X87053Y1049631D01*
X86383Y1046260D01*
X87299Y1041652D01*
X89910Y1037745D01*
X93817Y1035134D01*
X98425Y1034218D01*
X103034Y1035134D01*
X106941Y1037745D01*
X109551Y1041652D01*
X109785Y1042830D01*
X109887Y1042968D01*
X115322Y1045536D01*
X117126Y1044789D01*
X144382D01*
X148153Y1039960D01*
X148764Y1036888D01*
X150504Y1034284D01*
X153109Y1032543D01*
X156181Y1031932D01*
X159253Y1032543D01*
X161858Y1034284D01*
X163408Y1036603D01*
X165627Y1036888D01*
X166420D01*
X168639Y1036603D01*
X170189Y1034284D01*
X172794Y1032543D01*
X175866Y1031932D01*
X178938Y1032543D01*
X181543Y1034284D01*
X183093Y1036603D01*
X185312Y1036888D01*
X186105D01*
X188325Y1036603D01*
X189874Y1034284D01*
X192479Y1032543D01*
X195551Y1031932D01*
X198623Y1032543D01*
X201228Y1034284D01*
X202778Y1036603D01*
X204996Y1036888D01*
X205792D01*
X208010Y1036603D01*
X209559Y1034284D01*
X212164Y1032543D01*
X215236Y1031932D01*
X218309Y1032543D01*
X220913Y1034284D01*
X222345Y1036426D01*
X222673Y1036630D01*
X224682Y1036888D01*
X225476D01*
X227695Y1036603D01*
X229244Y1034284D01*
X231849Y1032543D01*
X234921Y1031932D01*
X237994Y1032543D01*
X240598Y1034284D01*
X242338Y1036888D01*
X242698Y1038698D01*
X247805Y1043805D01*
X261930D01*
X266263Y1039960D01*
X266874Y1036888D01*
X268614Y1034284D01*
X271219Y1032543D01*
X274291Y1031932D01*
X277364Y1032543D01*
X279968Y1034284D01*
X281518Y1036603D01*
X283737Y1036888D01*
X284531D01*
X286750Y1036603D01*
X288299Y1034284D01*
X290904Y1032543D01*
X293976Y1031932D01*
X297049Y1032543D01*
X299653Y1034284D01*
X301394Y1036888D01*
X302005Y1039960D01*
X306338Y1043805D01*
X486525D01*
X616822Y913508D01*
X615520Y907739D01*
X613967Y906702D01*
X611792Y903446D01*
X611028Y899606D01*
X611792Y895766D01*
X613967Y892510D01*
X617223Y890335D01*
X621063Y889571D01*
X624903Y890335D01*
X628159Y892510D01*
X629197Y894063D01*
X634965Y895365D01*
X641149Y889181D01*
X645669Y887309D01*
X654276D01*
X658310Y882874D01*
X658921Y879802D01*
X660661Y877197D01*
X662981Y875647D01*
X663266Y873428D01*
Y872635D01*
X662981Y870416D01*
X660661Y868866D01*
X658921Y866261D01*
X658554Y864418D01*
X653698Y865158D01*
X653087Y868230D01*
X651346Y870834D01*
X648742Y872575D01*
X645669Y873186D01*
X642597Y872575D01*
X639992Y870834D01*
X638252Y868230D01*
X637641Y865158D01*
X637979Y863461D01*
X635744Y859553D01*
X634660Y858461D01*
X613409D01*
X609458Y862411D01*
X606203Y864586D01*
X602362Y865350D01*
X588583D01*
X584742Y864586D01*
X581487Y862411D01*
X577536Y858461D01*
X566649D01*
X565662Y859812D01*
X564434Y863461D01*
X565488Y865038D01*
X566099Y868110D01*
X565488Y871183D01*
X563748Y873787D01*
X561143Y875527D01*
X558071Y876139D01*
X554999Y875527D01*
X552394Y873787D01*
X550654Y871183D01*
X550043Y868110D01*
X550654Y865038D01*
X551708Y863461D01*
X550480Y859812D01*
X549493Y858461D01*
X540409D01*
X536571Y863189D01*
X535960Y866261D01*
X534220Y868866D01*
X531615Y870606D01*
X528543Y871217D01*
X525471Y870606D01*
X522866Y868866D01*
X521126Y866261D01*
X520515Y863189D01*
X516677Y858461D01*
X500984D01*
X497122Y862790D01*
X497201Y863189D01*
X496590Y866261D01*
X494850Y868866D01*
X492245Y870606D01*
X489173Y871217D01*
X486101Y870606D01*
X483496Y868866D01*
X481756Y866261D01*
X481145Y863189D01*
X481756Y860117D01*
X483496Y857512D01*
X486101Y855772D01*
X486907Y855611D01*
X488730Y850363D01*
X424648Y786280D01*
X414422Y796506D01*
X416885Y801114D01*
X417323Y801027D01*
X420395Y801638D01*
X423000Y803378D01*
X424740Y805983D01*
X425351Y809055D01*
X424740Y812127D01*
X423000Y814732D01*
X420395Y816472D01*
X417323Y817083D01*
X414250Y816472D01*
X411646Y814732D01*
X409906Y812127D01*
X409295Y809055D01*
X409453Y808257D01*
X404953Y805250D01*
X403230Y806401D01*
X398622Y807318D01*
X398621Y807318D01*
X88583D01*
X83974Y806401D01*
X80067Y803791D01*
X70937Y794660D01*
X64934Y795729D01*
X64732Y796031D01*
X64223Y796371D01*
X62964Y800718D01*
X63453Y802442D01*
X64504Y804014D01*
X65115Y807087D01*
X64504Y810159D01*
X62764Y812764D01*
X60159Y814504D01*
X57087Y815115D01*
X54014Y814504D01*
X51410Y812764D01*
X49669Y810159D01*
X49058Y807087D01*
X49669Y804014D01*
X51410Y801410D01*
X51919Y801069D01*
X53178Y796723D01*
X52689Y794999D01*
X51638Y793427D01*
X51407Y792267D01*
X50326Y789929D01*
X46477Y787598D01*
X21784D01*
X17827Y792599D01*
X17929Y793110D01*
Y806890D01*
X17088Y811114D01*
X16368Y812192D01*
X16507Y813686D01*
X17910Y818074D01*
X17959Y818126D01*
X19456Y819126D01*
X21197Y821731D01*
X21808Y824803D01*
X21197Y827875D01*
X19456Y830480D01*
X17777Y831602D01*
X17581Y831838D01*
X16392Y835590D01*
X16136Y837461D01*
X17088Y838886D01*
X17929Y843110D01*
Y856890D01*
X17088Y861114D01*
X14695Y864695D01*
X11114Y867088D01*
X6890Y867929D01*
X0D01*
Y882071D01*
X6890D01*
X11114Y882912D01*
X14695Y885305D01*
X17088Y888886D01*
X17929Y893110D01*
Y906890D01*
X17088Y911114D01*
X14695Y914695D01*
X11114Y917088D01*
X6890Y917929D01*
X0D01*
Y932071D01*
X6890D01*
X11114Y932912D01*
X14695Y935305D01*
X17088Y938886D01*
X17929Y943110D01*
Y956890D01*
X17088Y961114D01*
X14695Y964695D01*
X11114Y967088D01*
X6890Y967929D01*
X0D01*
Y982071D01*
X6890D01*
X11114Y982912D01*
X14695Y985305D01*
X17088Y988886D01*
X17929Y993110D01*
Y1006890D01*
X17088Y1011114D01*
X14695Y1014695D01*
X11114Y1017088D01*
X6890Y1017929D01*
X0D01*
Y1032071D01*
X6890D01*
X11114Y1032912D01*
X14695Y1035305D01*
X17088Y1038886D01*
X17929Y1043110D01*
Y1056890D01*
X17088Y1061114D01*
X14695Y1064695D01*
X11114Y1067088D01*
X6890Y1067929D01*
X0D01*
Y1100000D01*
X32071D01*
Y1093110D01*
X32912Y1088886D01*
X35305Y1085305D01*
X38886Y1082912D01*
X43110Y1082071D01*
X56890D01*
X61114Y1082912D01*
X64695Y1085305D01*
X67088Y1088886D01*
X67929Y1093110D01*
Y1100000D01*
X82071D01*
Y1093110D01*
X82912Y1088886D01*
X85305Y1085305D01*
X88886Y1082912D01*
X93110Y1082071D01*
X106890D01*
X111114Y1082912D01*
X114695Y1085305D01*
X117088Y1088886D01*
X117929Y1093110D01*
Y1100000D01*
X132071D01*
Y1093110D01*
X132912Y1088886D01*
X135305Y1085305D01*
X138886Y1082912D01*
X143110Y1082071D01*
X156890D01*
X161114Y1082912D01*
X164695Y1085305D01*
X167088Y1088886D01*
X167929Y1093110D01*
Y1100000D01*
X182071D01*
Y1093110D01*
X182912Y1088886D01*
X185305Y1085305D01*
X188886Y1082912D01*
X193110Y1082071D01*
X206890D01*
X211114Y1082912D01*
X214695Y1085305D01*
X217088Y1088886D01*
X217929Y1093110D01*
Y1100000D01*
X232071D01*
Y1093110D01*
X232912Y1088886D01*
X235305Y1085305D01*
X238886Y1082912D01*
X243110Y1082071D01*
X256890D01*
X261114Y1082912D01*
X264695Y1085305D01*
X267088Y1088886D01*
X267929Y1093110D01*
Y1100000D01*
X282071D01*
Y1093110D01*
X282912Y1088886D01*
X285305Y1085305D01*
X288886Y1082912D01*
X293110Y1082071D01*
X306890D01*
X311114Y1082912D01*
X314695Y1085305D01*
X317088Y1088886D01*
X317929Y1093110D01*
Y1100000D01*
X332071D01*
Y1093110D01*
D02*
G37*
G36*
X889558Y855109D02*
X892813Y852933D01*
X896654Y852169D01*
X901593D01*
X905302Y847169D01*
X905019Y846237D01*
X905121Y845195D01*
X904917Y844169D01*
X905275Y843633D01*
X905338Y842991D01*
X905792Y842619D01*
X906136Y837503D01*
X903312Y835203D01*
X898332Y835890D01*
X898164Y836734D01*
X896424Y839339D01*
X893820Y841079D01*
X890747Y841690D01*
X888726Y841601D01*
X886992Y845473D01*
X886922Y845539D01*
X886915Y845637D01*
X886914Y845638D01*
X886702Y845822D01*
X886647Y846098D01*
X886506Y846309D01*
X886505Y846310D01*
X886505Y846311D01*
X885376Y848000D01*
X884931Y850241D01*
X884349Y851111D01*
X884045Y852113D01*
X884045Y852114D01*
X883561Y852703D01*
X883365Y852808D01*
X883280Y853013D01*
X881952Y853563D01*
X880688Y854239D01*
X880684Y854241D01*
X880471Y854177D01*
X880266Y854261D01*
X858043D01*
X857260Y853937D01*
X856412D01*
X855812Y853338D01*
X855029Y853013D01*
X854705Y852230D01*
X854106Y851631D01*
X853750Y850773D01*
X849865Y849594D01*
X844488Y850664D01*
X839112Y849594D01*
X834554Y846549D01*
X831508Y841991D01*
X830439Y836614D01*
Y829831D01*
X825787Y825942D01*
X822715Y825331D01*
X820111Y823590D01*
X818370Y820986D01*
X817759Y817913D01*
X818370Y814841D01*
X820111Y812236D01*
X821072Y811594D01*
X821716Y810522D01*
X822595Y806623D01*
X822558Y805429D01*
X820681Y802621D01*
X819612Y797244D01*
Y782394D01*
X814062Y776845D01*
X809055D01*
X803679Y775775D01*
X799121Y772730D01*
X769775Y743384D01*
X763799Y744479D01*
X763551Y744850D01*
X760946Y746590D01*
X757874Y747202D01*
X754802Y746590D01*
X752197Y744850D01*
X749771D01*
X747167Y746590D01*
X744095Y747202D01*
X741022Y746590D01*
X738418Y744850D01*
X736677Y742245D01*
X736066Y739173D01*
X736677Y736101D01*
X738418Y733496D01*
X741022Y731756D01*
X744095Y731145D01*
X747167Y731756D01*
X747694Y732108D01*
X750711Y731050D01*
X751899Y725508D01*
X679042Y652651D01*
X675996Y648093D01*
X674927Y642717D01*
Y639997D01*
X673904Y638947D01*
X669927Y636643D01*
X668307Y636965D01*
X665235Y636354D01*
X662630Y634614D01*
X660890Y632009D01*
X660279Y628937D01*
X660890Y625865D01*
X662630Y623260D01*
X664181Y622224D01*
X665164Y618742D01*
X663842Y616738D01*
X661224Y614443D01*
X652559D01*
X647183Y613374D01*
X642625Y610328D01*
X639579Y605770D01*
X638057Y605140D01*
X636962Y605872D01*
X633889Y606483D01*
X630817Y605872D01*
X628212Y604131D01*
X627496Y603059D01*
X626278Y603563D01*
X625010Y604241D01*
X624798Y604176D01*
X624592Y604261D01*
X615443D01*
X615239Y604177D01*
X615026Y604241D01*
X613758Y603563D01*
X612430Y603013D01*
X608387Y604858D01*
X605315Y605469D01*
X602243Y604858D01*
X598200Y603013D01*
X596872Y603563D01*
X595604Y604241D01*
X595392Y604176D01*
X595187Y604261D01*
X583947D01*
X583742Y604177D01*
X583530Y604241D01*
X582262Y603563D01*
X580934Y603013D01*
X576891Y604858D01*
X573819Y605469D01*
X570747Y604858D01*
X566704Y603013D01*
X565376Y603563D01*
X564108Y604241D01*
X563896Y604176D01*
X563690Y604261D01*
X554940D01*
X553940Y603847D01*
X552865Y603722D01*
X549026Y601581D01*
X548000Y603118D01*
X545395Y604858D01*
X542323Y605469D01*
X539250Y604858D01*
X536646Y603118D01*
X534906Y600513D01*
X534294Y597441D01*
X534734Y595233D01*
X533633Y594777D01*
X513490Y574635D01*
X513111Y573719D01*
X512963Y573548D01*
X510827Y573973D01*
X507755Y573362D01*
X505150Y571622D01*
X503410Y569017D01*
X502798Y565945D01*
X503223Y563809D01*
X503053Y563661D01*
X502137Y563281D01*
X481994Y543139D01*
X481615Y542223D01*
X481467Y542052D01*
X479331Y542477D01*
X476258Y541866D01*
X473654Y540126D01*
X471913Y537521D01*
X471302Y534449D01*
X471913Y531376D01*
X472851Y529973D01*
X471987Y525330D01*
X471383Y523871D01*
X470740Y522431D01*
X470762Y522374D01*
X470739Y522317D01*
Y430566D01*
X471296Y429221D01*
X471731Y427832D01*
X472513Y426898D01*
X473882Y422363D01*
X473271Y419291D01*
X473882Y416219D01*
X472513Y411685D01*
X471731Y410751D01*
X471296Y409362D01*
X470739Y408017D01*
Y400938D01*
X90551D01*
X83638Y399563D01*
X77778Y395647D01*
X22477Y340345D01*
X17869Y342808D01*
X17929Y343110D01*
Y356890D01*
X17088Y361114D01*
X14695Y364695D01*
X11114Y367088D01*
X6890Y367929D01*
X0D01*
Y381936D01*
X28937D01*
X35850Y383311D01*
X41710Y387227D01*
X100003Y445520D01*
X277559D01*
X284472Y446895D01*
X290332Y450811D01*
X294248Y456671D01*
X295623Y463584D01*
X294248Y470496D01*
X290332Y476356D01*
X284472Y480272D01*
X277559Y481647D01*
X275499D01*
X272873Y486647D01*
X273165Y487085D01*
X273776Y490158D01*
X273526Y491417D01*
X276134Y495259D01*
X277293Y496052D01*
X279647Y496520D01*
X282252Y498260D01*
X283992Y500865D01*
X284603Y503937D01*
X284036Y506787D01*
X284545Y507478D01*
X287829Y510266D01*
X288120Y510072D01*
X289251Y509316D01*
X292323Y508705D01*
X295396Y509316D01*
X298000Y511057D01*
X302394D01*
X304999Y509316D01*
X308071Y508705D01*
X311144Y509316D01*
X313748Y511057D01*
X315488Y513661D01*
X316100Y516734D01*
X315488Y519806D01*
X313748Y522410D01*
X311144Y524151D01*
X308071Y524762D01*
X304999Y524151D01*
X302394Y522410D01*
X298000D01*
X295396Y524151D01*
X292323Y524762D01*
X289251Y524151D01*
X286646Y522410D01*
X284906Y519806D01*
X284295Y516734D01*
X284862Y513884D01*
X284353Y513192D01*
X281069Y510404D01*
X280778Y510599D01*
X279647Y511354D01*
X276575Y511965D01*
X273502Y511354D01*
X270898Y509614D01*
X269158Y507009D01*
X268546Y503937D01*
X268663Y503354D01*
X264054Y500891D01*
X258457Y506488D01*
X254615Y508080D01*
X253053Y511055D01*
X252295Y513361D01*
X252496Y513661D01*
X253107Y516734D01*
X252496Y519806D01*
X250756Y522410D01*
X248151Y524151D01*
X245079Y524762D01*
X242007Y524151D01*
X239402Y522410D01*
X235008D01*
X232403Y524151D01*
X229331Y524762D01*
X226259Y524151D01*
X223654Y522410D01*
X219260D01*
X216655Y524151D01*
X213583Y524762D01*
X210511Y524151D01*
X207906Y522410D01*
X203512D01*
X200907Y524151D01*
X197835Y524762D01*
X194763Y524151D01*
X192158Y522410D01*
X187764D01*
X185159Y524151D01*
X182087Y524762D01*
X179015Y524151D01*
X176410Y522410D01*
X174670Y519806D01*
X174059Y516734D01*
X174670Y513661D01*
X176410Y511057D01*
X179015Y509316D01*
X182087Y508705D01*
X185159Y509316D01*
X187764Y511057D01*
X192158D01*
X194763Y509316D01*
X197835Y508705D01*
X200907Y509316D01*
X203512Y511057D01*
X207906D01*
X210511Y509316D01*
X213583Y508705D01*
X216655Y509316D01*
X218354Y510451D01*
X219747Y510249D01*
X219901Y510190D01*
X222961Y506057D01*
X222891Y505553D01*
X207982Y490644D01*
X113603D01*
X112198Y493888D01*
X111807Y495644D01*
X113323Y497912D01*
X113934Y500984D01*
X113323Y504057D01*
X111582Y506661D01*
X108978Y508401D01*
X105906Y509013D01*
X102833Y508401D01*
X100229Y506661D01*
X98488Y504057D01*
X97877Y500984D01*
X98488Y497912D01*
X100004Y495644D01*
X99614Y493888D01*
X98208Y490644D01*
X85209D01*
X84800Y491142D01*
X84189Y494214D01*
X82449Y496819D01*
X79844Y498559D01*
X76772Y499170D01*
X73699Y498559D01*
X72569Y497804D01*
X72279Y497610D01*
X68995Y500396D01*
X68485Y501089D01*
X69052Y503938D01*
X68441Y507011D01*
X66701Y509615D01*
X64096Y511356D01*
X61024Y511967D01*
X57951Y511356D01*
X55347Y509615D01*
X53606Y507011D01*
X52995Y503938D01*
X53606Y500866D01*
X55347Y498261D01*
X57951Y496521D01*
X61024Y495910D01*
X64096Y496521D01*
X65226Y497276D01*
X65517Y497470D01*
X68800Y494684D01*
X69310Y493991D01*
X68743Y491142D01*
X69355Y488070D01*
X71095Y485465D01*
X70415Y479906D01*
X46901Y456392D01*
X17929D01*
Y456890D01*
X17088Y461114D01*
X14695Y464695D01*
X11114Y467088D01*
X6890Y467929D01*
X0D01*
Y482071D01*
X6890D01*
X11114Y482912D01*
X14695Y485305D01*
X17088Y488886D01*
X17929Y493110D01*
Y506890D01*
X17088Y511114D01*
X14695Y514695D01*
X11114Y517088D01*
X6890Y517929D01*
X0D01*
Y531959D01*
X13780D01*
X16793Y533207D01*
X18041Y536221D01*
Y563779D01*
X16793Y566793D01*
X13780Y568041D01*
X0D01*
Y582071D01*
X6890D01*
X11114Y582912D01*
X14695Y585305D01*
X17088Y588886D01*
X17929Y593110D01*
Y606890D01*
X17088Y611114D01*
X14695Y614695D01*
X11114Y617088D01*
X6890Y617929D01*
X0D01*
Y632071D01*
X6890D01*
X11114Y632912D01*
X14695Y635305D01*
X17088Y638886D01*
X17929Y643110D01*
Y656890D01*
X17088Y661114D01*
X14695Y664695D01*
X11114Y667088D01*
X6890Y667929D01*
X0D01*
Y682071D01*
X6890D01*
X11114Y682912D01*
X14695Y685305D01*
X17088Y688886D01*
X17929Y693110D01*
Y706890D01*
X17088Y711114D01*
X14695Y714695D01*
X11114Y717088D01*
X6890Y717929D01*
X0D01*
Y732071D01*
X6890D01*
X11114Y732912D01*
X14695Y735305D01*
X17088Y738886D01*
X17929Y743110D01*
Y756890D01*
X17606Y758514D01*
X20862Y763253D01*
X21321Y763514D01*
X45050D01*
X46573Y762496D01*
X51181Y761580D01*
X66929D01*
X66929Y761580D01*
X71537Y762496D01*
X75444Y765107D01*
X93571Y783233D01*
X352769D01*
X357130Y779528D01*
X357741Y776455D01*
X359482Y773851D01*
X362086Y772110D01*
X365159Y771499D01*
X368231Y772110D01*
X370836Y773851D01*
X372576Y776455D01*
X373187Y779528D01*
X377548Y783233D01*
X393634D01*
X414713Y762154D01*
X418620Y759543D01*
X423228Y758627D01*
X427837Y759543D01*
X431744Y762154D01*
X434354Y766061D01*
X434737Y767986D01*
X505141Y838390D01*
X581693D01*
X582735Y838597D01*
X587110Y837678D01*
X588706Y836182D01*
X589402Y833169D01*
X588593Y829664D01*
X588055Y828860D01*
X587444Y825787D01*
X588055Y822715D01*
X589795Y820111D01*
X592400Y818370D01*
X595472Y817759D01*
X598545Y818370D01*
X601149Y820111D01*
X602890Y822715D01*
X603501Y825787D01*
X602890Y828860D01*
X602352Y829664D01*
X601543Y833169D01*
X602238Y836182D01*
X603835Y837678D01*
X608210Y838597D01*
X609252Y838390D01*
X746008D01*
X749846Y833661D01*
X750457Y830589D01*
X752197Y827985D01*
X753788Y826921D01*
X754846Y825864D01*
X755405Y821026D01*
X755378Y820986D01*
X754767Y817913D01*
X755378Y814841D01*
X757118Y812236D01*
X759723Y810496D01*
X762795Y809885D01*
X765868Y810496D01*
X768472Y812236D01*
X770212Y814841D01*
X770824Y817913D01*
X770212Y820986D01*
X768472Y823590D01*
X766881Y824654D01*
X765824Y825711D01*
X765264Y830549D01*
X765291Y830589D01*
X765902Y833661D01*
X768535Y838109D01*
X769635Y838576D01*
X772541Y839154D01*
X775797Y841329D01*
X781615Y847147D01*
X785367Y846569D01*
X787275Y845737D01*
X788614Y843733D01*
X791219Y841992D01*
X794291Y841381D01*
X797364Y841992D01*
X799968Y843733D01*
X801708Y846337D01*
X802320Y849409D01*
X801708Y852482D01*
X801696Y852500D01*
X803869Y858035D01*
X804564Y858175D01*
X809182Y854887D01*
X809512Y853227D01*
X811252Y850622D01*
X813857Y848882D01*
X816929Y848271D01*
X820001Y848882D01*
X822606Y850622D01*
X824346Y853227D01*
X824957Y856299D01*
X829311Y860043D01*
X884623D01*
X889558Y855109D01*
D02*
G37*
G36*
X950000Y829115D02*
Y668109D01*
X948699Y667850D01*
X946095Y666110D01*
X944161D01*
X941557Y667850D01*
X938485Y668461D01*
X935412Y667850D01*
X932808Y666110D01*
X931067Y663505D01*
X930456Y660433D01*
X931067Y657361D01*
X932808Y654756D01*
X935412Y653016D01*
X938485Y652405D01*
X941557Y653016D01*
X945128Y654385D01*
X948699Y653016D01*
X950000Y652757D01*
Y575000D01*
X926293Y551293D01*
X920868Y552939D01*
X920803Y553268D01*
X919063Y555872D01*
X916458Y557612D01*
X913386Y558223D01*
X910313Y557612D01*
X907709Y555872D01*
X905968Y553268D01*
X905357Y550195D01*
X905968Y547123D01*
X907709Y544518D01*
X910313Y542778D01*
X910642Y542713D01*
X912287Y537287D01*
X808038Y433038D01*
X804479Y434571D01*
X803284Y435355D01*
X802732Y438133D01*
X800991Y440738D01*
X798387Y442478D01*
X795314Y443089D01*
X792242Y442478D01*
X789638Y440738D01*
X787897Y438133D01*
X787286Y435061D01*
X787897Y431988D01*
X788088Y431702D01*
X785416Y426702D01*
X772675D01*
X769733Y431215D01*
X770250Y431988D01*
X770861Y435061D01*
X770250Y438133D01*
X768509Y440738D01*
X765905Y442478D01*
X762832Y443089D01*
X759760Y442478D01*
X757156Y440738D01*
X755415Y438133D01*
X754804Y435061D01*
X755415Y431988D01*
X757156Y429384D01*
X759760Y427643D01*
X762281Y427142D01*
X762350Y427071D01*
X763624Y424894D01*
X764591Y422284D01*
X763404Y420507D01*
X762640Y416667D01*
X763404Y412826D01*
X765579Y409571D01*
X768835Y407395D01*
X772675Y406631D01*
X775098D01*
X777012Y402012D01*
X768549Y393549D01*
X766961Y392488D01*
X765900Y390900D01*
X750000Y375000D01*
Y354703D01*
X745000Y352365D01*
X744214Y352890D01*
X741142Y353501D01*
X738069Y352890D01*
X735465Y351149D01*
X733725Y348545D01*
X733114Y345472D01*
X733725Y342400D01*
X735465Y339796D01*
X738069Y338055D01*
X741142Y337444D01*
X744214Y338055D01*
X745000Y338580D01*
X750000Y336242D01*
Y325000D01*
X687894Y262894D01*
X687753Y262866D01*
X682544Y259385D01*
X679063Y254176D01*
X679035Y254035D01*
X675000Y250000D01*
X571050D01*
X567021Y254029D01*
X562463Y257075D01*
X557087Y258144D01*
X516856D01*
X475000Y300000D01*
Y408017D01*
X475781Y408950D01*
X480000Y411521D01*
X481299Y411263D01*
X484372Y411874D01*
X486976Y413614D01*
X488716Y416219D01*
X489327Y419291D01*
X488716Y422364D01*
X486976Y424968D01*
X484372Y426709D01*
X481299Y427320D01*
X480000Y427061D01*
X475781Y429632D01*
X475000Y430566D01*
Y522317D01*
X479331Y526420D01*
X482403Y527032D01*
X485008Y528772D01*
X486748Y531376D01*
X487359Y534449D01*
X486748Y537521D01*
X485008Y540126D01*
X485008Y540126D01*
X505150Y560268D01*
X505150Y560268D01*
X507755Y558528D01*
X510827Y557917D01*
X513899Y558528D01*
X516504Y560268D01*
X518244Y562873D01*
X518855Y565945D01*
X518244Y569017D01*
X516504Y571622D01*
X516504Y571622D01*
X536646Y591764D01*
X539250Y590024D01*
X542323Y589413D01*
X545395Y590024D01*
X548000Y591764D01*
X549740Y594369D01*
X550351Y597441D01*
X554940Y600000D01*
X563690D01*
X565791Y597441D01*
X566402Y594369D01*
X568142Y591764D01*
X570747Y590024D01*
X573819Y589413D01*
X576891Y590024D01*
X579496Y591764D01*
X581236Y594369D01*
X581847Y597441D01*
X583947Y600000D01*
X595187D01*
X597287Y597441D01*
X597898Y594369D01*
X598040Y594155D01*
X598257Y590037D01*
X596612Y587978D01*
X595702Y587370D01*
X593961Y584765D01*
X593350Y581693D01*
X593961Y578621D01*
X595702Y576016D01*
X598306Y574276D01*
X601378Y573665D01*
X604451Y574276D01*
X607055Y576016D01*
X608796Y578621D01*
X609407Y581693D01*
X608796Y584765D01*
X608653Y584979D01*
X608436Y589097D01*
X610081Y591156D01*
X610992Y591764D01*
X612732Y594369D01*
X613343Y597441D01*
X615443Y600000D01*
X624592D01*
X625861Y598454D01*
X626472Y595382D01*
X627256Y594209D01*
X624591Y589641D01*
X624046Y589750D01*
X620974Y589139D01*
X618369Y587398D01*
X616629Y584794D01*
X616018Y581721D01*
X616629Y578649D01*
X618369Y576044D01*
X620974Y574304D01*
X624046Y573693D01*
X627119Y574304D01*
X629723Y576044D01*
X631463Y578649D01*
X632074Y581721D01*
X631463Y584794D01*
X630680Y585966D01*
X633344Y590535D01*
X633889Y590426D01*
X636962Y591037D01*
X639566Y592778D01*
X642543Y590582D01*
X642625Y590459D01*
X647183Y587414D01*
X652559Y586344D01*
X669291D01*
X674668Y587414D01*
X679226Y590459D01*
X686923Y598156D01*
X688468Y597928D01*
X692024Y596187D01*
X692386Y594369D01*
X694126Y591764D01*
X696731Y590024D01*
X699803Y589413D01*
X702875Y590024D01*
X705480Y591764D01*
X707220Y594369D01*
X707831Y597441D01*
X709932Y600000D01*
X721171D01*
X723271Y597441D01*
X723882Y594369D01*
X725622Y591764D01*
X728227Y590024D01*
X731299Y589413D01*
X734371Y590024D01*
X736976Y591764D01*
X738716Y594369D01*
X739327Y597441D01*
X741428Y600000D01*
X837210D01*
X841535Y599140D01*
X847440D01*
X852817Y600209D01*
X857375Y603255D01*
X860420Y607813D01*
X861490Y613189D01*
Y646650D01*
X861490Y646654D01*
Y670276D01*
Y716766D01*
X862960Y717748D01*
X864701Y720353D01*
X865312Y723425D01*
X864701Y726497D01*
X862960Y729102D01*
X861490Y730084D01*
Y748117D01*
X871155Y757782D01*
X874201Y762340D01*
X875270Y767717D01*
Y819882D01*
X874201Y825259D01*
X871155Y829817D01*
X855971Y845000D01*
X858043Y850000D01*
X880266D01*
X880751Y849409D01*
X881362Y846337D01*
X882962Y843943D01*
X883102Y843732D01*
X883103Y843731D01*
X884837Y839859D01*
X883926Y837626D01*
X883330Y836734D01*
X882719Y833662D01*
X883330Y830590D01*
X885070Y827985D01*
X887675Y826245D01*
X890747Y825634D01*
X893820Y826245D01*
X896424Y827985D01*
X898165Y830589D01*
X903304Y830798D01*
X904528Y830555D01*
X907600Y831166D01*
X910205Y832906D01*
X911945Y835511D01*
X912556Y838583D01*
X911945Y841655D01*
X910205Y844260D01*
X909097Y845000D01*
X910614Y850000D01*
X929115D01*
X950000Y829115D01*
D02*
G37*
G36*
X1049991Y668101D02*
X1053246Y665926D01*
X1057087Y665162D01*
X1060831D01*
Y633859D01*
X1061595Y630018D01*
X1063605Y627010D01*
X1061802Y625206D01*
X1059626Y621950D01*
X1058862Y618110D01*
Y582897D01*
X1058849Y582884D01*
X1056673Y579628D01*
X1055909Y575788D01*
X1056673Y571947D01*
X1058849Y568692D01*
X1062104Y566516D01*
X1065945Y565752D01*
X1069785Y566516D01*
X1073041Y568692D01*
X1075994Y571644D01*
X1078169Y574900D01*
X1078933Y578740D01*
Y585841D01*
X1083933Y587357D01*
X1085305Y585305D01*
X1088886Y582912D01*
X1093110Y582071D01*
X1100000D01*
Y567929D01*
X1093110D01*
X1088886Y567088D01*
X1085305Y564695D01*
X1082912Y561114D01*
X1082071Y556890D01*
Y543110D01*
X1082912Y538886D01*
X1085305Y535305D01*
X1088886Y532912D01*
X1093110Y532071D01*
X1100000D01*
Y517929D01*
X1093110D01*
X1088886Y517088D01*
X1085305Y514695D01*
X1082912Y511114D01*
X1082071Y506890D01*
Y493110D01*
X1082912Y488886D01*
X1085305Y485305D01*
X1088886Y482912D01*
X1093110Y482071D01*
X1100000D01*
Y467929D01*
X1093110D01*
X1088886Y467088D01*
X1085305Y464695D01*
X1082912Y461114D01*
X1082071Y456890D01*
Y443110D01*
X1082912Y438886D01*
X1085305Y435305D01*
X1088886Y432912D01*
X1093110Y432071D01*
X1100000D01*
Y417929D01*
X1093110D01*
X1088886Y417088D01*
X1085305Y414695D01*
X1082912Y411114D01*
X1082071Y406890D01*
Y393110D01*
X1082912Y388886D01*
X1085305Y385305D01*
X1088886Y382912D01*
X1093110Y382071D01*
X1100000D01*
Y367929D01*
X1093110D01*
X1088886Y367088D01*
X1085305Y364695D01*
X1082912Y361114D01*
X1082071Y356890D01*
Y343110D01*
X1082912Y338886D01*
X1085305Y335305D01*
X1088886Y332912D01*
X1093110Y332071D01*
X1100000D01*
Y317929D01*
X1093110D01*
X1088886Y317088D01*
X1085305Y314695D01*
X1082912Y311114D01*
X1082071Y306890D01*
Y293110D01*
X1082912Y288886D01*
X1085305Y285305D01*
X1088886Y282912D01*
X1093110Y282071D01*
X1100000D01*
Y267929D01*
X1093110D01*
X1088886Y267088D01*
X1085305Y264695D01*
X1082912Y261114D01*
X1082071Y256890D01*
Y243110D01*
X1082912Y238886D01*
X1085305Y235305D01*
X1088886Y232912D01*
X1093110Y232071D01*
X1100000D01*
Y217929D01*
X1093110D01*
X1088886Y217088D01*
X1085305Y214695D01*
X1082912Y211114D01*
X1082071Y206890D01*
Y193110D01*
X1082912Y188886D01*
X1085305Y185305D01*
X1088886Y182912D01*
X1093110Y182071D01*
X1100000D01*
Y167929D01*
X1093110D01*
X1088886Y167088D01*
X1085305Y164695D01*
X1082912Y161114D01*
X1082071Y156890D01*
Y143110D01*
X1082912Y138886D01*
X1085305Y135305D01*
X1088886Y132912D01*
X1093110Y132071D01*
X1100000D01*
Y117929D01*
X1093110D01*
X1088886Y117088D01*
X1085305Y114695D01*
X1082912Y111114D01*
X1082071Y106890D01*
Y93110D01*
X1082912Y88886D01*
X1085305Y85305D01*
X1088886Y82912D01*
X1093110Y82071D01*
X1100000D01*
Y67929D01*
X1093110D01*
X1088886Y67088D01*
X1085305Y64695D01*
X1082912Y61114D01*
X1082071Y56890D01*
Y43110D01*
X1082912Y38886D01*
X1085305Y35305D01*
X1088886Y32912D01*
X1093110Y32071D01*
X1100000D01*
Y0D01*
X1067929D01*
Y6890D01*
X1067088Y11114D01*
X1064695Y14695D01*
X1061114Y17088D01*
X1056890Y17929D01*
X1043110D01*
X1038886Y17088D01*
X1035305Y14695D01*
X1032912Y11114D01*
X1032071Y6890D01*
Y0D01*
X1017929D01*
Y6890D01*
X1017088Y11114D01*
X1014695Y14695D01*
X1011114Y17088D01*
X1006890Y17929D01*
X993110D01*
X988886Y17088D01*
X985305Y14695D01*
X982912Y11114D01*
X982071Y6890D01*
Y0D01*
X967929D01*
Y6890D01*
X967088Y11114D01*
X964695Y14695D01*
X961114Y17088D01*
X956890Y17929D01*
X943110D01*
X938886Y17088D01*
X935305Y14695D01*
X932912Y11114D01*
X932071Y6890D01*
Y0D01*
X917929D01*
Y6890D01*
X917088Y11114D01*
X914695Y14695D01*
X911114Y17088D01*
X906890Y17929D01*
X893110D01*
X888886Y17088D01*
X885305Y14695D01*
X882912Y11114D01*
X882071Y6890D01*
Y0D01*
X867929D01*
Y6890D01*
X867088Y11114D01*
X864695Y14695D01*
X861114Y17088D01*
X856890Y17929D01*
X843110D01*
X838886Y17088D01*
X835305Y14695D01*
X832912Y11114D01*
X832071Y6890D01*
Y0D01*
X817929D01*
Y6890D01*
X817088Y11114D01*
X814695Y14695D01*
X811114Y17088D01*
X806890Y17929D01*
X793110D01*
X788886Y17088D01*
X785305Y14695D01*
X782912Y11114D01*
X782071Y6890D01*
Y0D01*
X767929D01*
Y6890D01*
X767088Y11114D01*
X764695Y14695D01*
X761114Y17088D01*
X756890Y17929D01*
X743110D01*
X738886Y17088D01*
X735305Y14695D01*
X732912Y11114D01*
X732071Y6890D01*
Y0D01*
X717929D01*
Y6890D01*
X717088Y11114D01*
X714695Y14695D01*
X711114Y17088D01*
X706890Y17929D01*
X693110D01*
X688886Y17088D01*
X685305Y14695D01*
X682912Y11114D01*
X682071Y6890D01*
Y0D01*
X667929D01*
Y6890D01*
X667088Y11114D01*
X664695Y14695D01*
X661114Y17088D01*
X656890Y17929D01*
X643110D01*
X638886Y17088D01*
X635305Y14695D01*
X632912Y11114D01*
X632071Y6890D01*
Y0D01*
X617929D01*
Y6890D01*
X617088Y11114D01*
X614695Y14695D01*
X611114Y17088D01*
X606890Y17929D01*
X593110D01*
X588886Y17088D01*
X585305Y14695D01*
X582912Y11114D01*
X582071Y6890D01*
Y0D01*
X567929D01*
Y6890D01*
X567088Y11114D01*
X564695Y14695D01*
X561114Y17088D01*
X556890Y17929D01*
X543110D01*
X538886Y17088D01*
X535305Y14695D01*
X532912Y11114D01*
X532071Y6890D01*
Y0D01*
X517929D01*
Y6890D01*
X517088Y11114D01*
X514695Y14695D01*
X511114Y17088D01*
X506890Y17929D01*
X493110D01*
X488886Y17088D01*
X485305Y14695D01*
X482912Y11114D01*
X482071Y6890D01*
Y0D01*
X467929D01*
Y6890D01*
X467088Y11114D01*
X464695Y14695D01*
X461114Y17088D01*
X456890Y17929D01*
X443110D01*
X438886Y17088D01*
X435305Y14695D01*
X432912Y11114D01*
X432071Y6890D01*
Y0D01*
X417929D01*
Y6890D01*
X417088Y11114D01*
X414695Y14695D01*
X411114Y17088D01*
X406890Y17929D01*
X393110D01*
X388886Y17088D01*
X385305Y14695D01*
X382912Y11114D01*
X382071Y6890D01*
Y0D01*
X367929D01*
Y6890D01*
X367088Y11114D01*
X364695Y14695D01*
X361114Y17088D01*
X356890Y17929D01*
X343110D01*
X338886Y17088D01*
X335305Y14695D01*
X332912Y11114D01*
X332071Y6890D01*
Y0D01*
X317929D01*
Y6890D01*
X317088Y11114D01*
X314695Y14695D01*
X311114Y17088D01*
X306890Y17929D01*
X293110D01*
X288886Y17088D01*
X285305Y14695D01*
X282912Y11114D01*
X282071Y6890D01*
Y0D01*
X267929D01*
Y6890D01*
X267088Y11114D01*
X264695Y14695D01*
X261114Y17088D01*
X256890Y17929D01*
X243110D01*
X238886Y17088D01*
X235305Y14695D01*
X232912Y11114D01*
X232071Y6890D01*
Y0D01*
X217929D01*
Y6890D01*
X217088Y11114D01*
X214695Y14695D01*
X211114Y17088D01*
X206890Y17929D01*
X193110D01*
X188886Y17088D01*
X185305Y14695D01*
X182912Y11114D01*
X182071Y6890D01*
Y0D01*
X167929D01*
Y6890D01*
X167088Y11114D01*
X164695Y14695D01*
X161114Y17088D01*
X156890Y17929D01*
X143110D01*
X138886Y17088D01*
X135305Y14695D01*
X132912Y11114D01*
X132071Y6890D01*
Y0D01*
X117929D01*
Y6890D01*
X117088Y11114D01*
X114695Y14695D01*
X111114Y17088D01*
X106890Y17929D01*
X93110D01*
X88886Y17088D01*
X85305Y14695D01*
X82912Y11114D01*
X82071Y6890D01*
Y0D01*
X67929D01*
Y6890D01*
X67088Y11114D01*
X64695Y14695D01*
X61114Y17088D01*
X56890Y17929D01*
X43110D01*
X38886Y17088D01*
X35305Y14695D01*
X0Y50000D01*
Y125402D01*
X4619Y127315D01*
X67936Y63999D01*
X73796Y60083D01*
X80709Y58708D01*
X652559D01*
X659472Y60083D01*
X665332Y63999D01*
X678128Y76795D01*
X683553Y75149D01*
X683756Y74132D01*
X686366Y70225D01*
X690273Y67614D01*
X694882Y66698D01*
X699490Y67614D01*
X703397Y70225D01*
X706007Y74132D01*
X706924Y78740D01*
X706007Y83348D01*
X703397Y87255D01*
X699490Y89866D01*
X698473Y90068D01*
X696827Y95493D01*
X706670Y105337D01*
X710586Y111197D01*
X711961Y118110D01*
X710586Y125023D01*
X706670Y130883D01*
X700810Y134799D01*
X699694Y135021D01*
X688519Y146196D01*
X683310Y149677D01*
X677165Y150899D01*
X677165Y150899D01*
X634210D01*
X614198Y170911D01*
X616269Y175911D01*
X660433D01*
X665809Y176981D01*
X670367Y180026D01*
X682985Y192643D01*
X707763D01*
X726286Y174121D01*
X730844Y171075D01*
X736221Y170006D01*
X769125D01*
X771888Y165811D01*
X772017Y165006D01*
X771499Y162401D01*
X772110Y159329D01*
X773850Y156725D01*
X776455Y154984D01*
X779527Y154373D01*
X782600Y154984D01*
X785204Y156725D01*
X786944Y159329D01*
X787556Y162401D01*
X787177Y164307D01*
X790154Y168657D01*
X794434Y168965D01*
X847349Y116050D01*
X851907Y113004D01*
X853022Y112783D01*
X856756Y109371D01*
X856145Y106299D01*
X856756Y103227D01*
X858496Y100622D01*
X861101Y98882D01*
X863322Y98440D01*
X863526Y97916D01*
X864279Y94210D01*
X864297Y93536D01*
X862433Y92291D01*
X860693Y89686D01*
X860082Y86614D01*
X860693Y83542D01*
X862433Y80937D01*
X865038Y79197D01*
X868110Y78586D01*
X871183Y79197D01*
X873787Y80937D01*
X875527Y83542D01*
X876139Y86614D01*
X875527Y89686D01*
X873787Y92291D01*
X871183Y94031D01*
X868962Y94473D01*
X868758Y94998D01*
X868004Y98703D01*
X867986Y99377D01*
X869850Y100622D01*
X871590Y103227D01*
X872202Y106299D01*
X872075Y106935D01*
X875433Y111935D01*
X950788D01*
X956164Y113004D01*
X960722Y116050D01*
X1045368Y200695D01*
X1048413Y205253D01*
X1049483Y210630D01*
Y263779D01*
X1048413Y269156D01*
X1045368Y273714D01*
X1044629Y274453D01*
X1047406Y278747D01*
X1049213Y278387D01*
X1052285Y278999D01*
X1054889Y280739D01*
X1056630Y283344D01*
X1057241Y286416D01*
X1056630Y289488D01*
X1054889Y292093D01*
X1052285Y293833D01*
X1049213Y294444D01*
X1046140Y293833D01*
X1043536Y292093D01*
X1041795Y289488D01*
X1041184Y286416D01*
X1041544Y284609D01*
X1037250Y281832D01*
X1029620Y289462D01*
X1025062Y292508D01*
X1019685Y293577D01*
X1014308Y292508D01*
X1009750Y289462D01*
X1006705Y284904D01*
X1005635Y279528D01*
X1006705Y274151D01*
X1009750Y269593D01*
X1021384Y257960D01*
Y232391D01*
X1016732Y228501D01*
X1013660Y227890D01*
X1011055Y226150D01*
X1009315Y223545D01*
X1008704Y220473D01*
X1008998Y218994D01*
X1006287Y215421D01*
X1005147Y214676D01*
X1004921Y214721D01*
X1001849Y214110D01*
X1000292Y213070D01*
X998787Y215323D01*
X996183Y217063D01*
X993110Y217674D01*
X990038Y217063D01*
X987433Y215323D01*
X985693Y212718D01*
X985082Y209646D01*
X985693Y206573D01*
X987433Y203969D01*
X990038Y202228D01*
X993110Y201617D01*
X994699Y201933D01*
X998609Y199425D01*
X999465Y194531D01*
X944968Y140034D01*
X877076D01*
X873186Y144685D01*
X872575Y147757D01*
X870834Y150362D01*
X869002Y151586D01*
X868971Y151664D01*
X868622Y155045D01*
X868892Y157069D01*
X869850Y157709D01*
X871590Y160314D01*
X871608Y160402D01*
X873074Y165208D01*
X876146Y165820D01*
X878751Y167560D01*
X880250Y169804D01*
X880491Y170164D01*
X880581Y170414D01*
X881031Y171663D01*
X885754Y171669D01*
X886182Y170445D01*
X886283Y170156D01*
X886460Y169892D01*
X888024Y167551D01*
X890629Y165811D01*
X893701Y165200D01*
X896773Y165811D01*
X899378Y167551D01*
X901118Y170156D01*
X901729Y173228D01*
X901118Y176301D01*
X899378Y178905D01*
X896773Y180645D01*
X893701Y181257D01*
X890629Y180645D01*
X888024Y178905D01*
X886525Y176662D01*
X886283Y176301D01*
X886194Y176051D01*
X885744Y174802D01*
X881021Y174796D01*
X880593Y176020D01*
X880491Y176309D01*
X880315Y176573D01*
X878751Y178914D01*
X876146Y180654D01*
X873074Y181265D01*
X870002Y180654D01*
X867397Y178914D01*
X865657Y176309D01*
X865639Y176220D01*
X864173Y171414D01*
X861101Y170803D01*
X858496Y169063D01*
X856756Y166458D01*
X856145Y163386D01*
X856756Y160314D01*
X858496Y157709D01*
X860329Y156484D01*
X860360Y156406D01*
X860709Y153026D01*
X860439Y151002D01*
X859481Y150362D01*
X853420Y149717D01*
X809147Y193990D01*
X804589Y197035D01*
X799213Y198105D01*
X798663D01*
X795304Y203105D01*
X795430Y203738D01*
X794819Y206811D01*
X793078Y209415D01*
X790474Y211156D01*
X787402Y211767D01*
X784329Y211156D01*
X781725Y209415D01*
X779984Y206811D01*
X779373Y203738D01*
X779499Y203105D01*
X776140Y198105D01*
X742040D01*
X723517Y216627D01*
X718959Y219673D01*
X713583Y220742D01*
X677165D01*
X671789Y219673D01*
X667231Y216627D01*
X654614Y204010D01*
X634949D01*
X631059Y208661D01*
X630448Y211734D01*
X628708Y214338D01*
X626103Y216079D01*
X623031Y216690D01*
X619959Y216079D01*
X617354Y214338D01*
X615924Y212197D01*
X614978Y211614D01*
X610317Y210733D01*
X579931Y241119D01*
X581844Y245739D01*
X614365D01*
X615149Y244731D01*
X616580Y240739D01*
X615614Y239293D01*
X615003Y236220D01*
X615614Y233148D01*
X617354Y230544D01*
X619959Y228803D01*
X623031Y228192D01*
X626103Y228803D01*
X628708Y230544D01*
X630448Y233148D01*
X631059Y236220D01*
X630448Y239293D01*
X629482Y240739D01*
X630913Y244731D01*
X631697Y245739D01*
X675000D01*
X675000Y245738D01*
X679041Y242000D01*
X679063Y241887D01*
X682544Y236678D01*
X687753Y233197D01*
X693898Y231975D01*
X700042Y233197D01*
X705251Y236678D01*
X708732Y241887D01*
X709954Y248031D01*
X708732Y254176D01*
X705251Y259385D01*
X700594Y262497D01*
X699459Y264788D01*
X698611Y267584D01*
X753013Y321987D01*
X754261Y325000D01*
Y336242D01*
X753972Y336940D01*
X754006Y337695D01*
X753373Y338388D01*
X753013Y339255D01*
X752589Y339431D01*
X752168Y339705D01*
X751805Y340102D01*
X750936Y340509D01*
X748676Y341982D01*
X748559Y342400D01*
X749170Y345472D01*
X748559Y348545D01*
X748676Y348963D01*
X750936Y350436D01*
X751805Y350843D01*
X752168Y351239D01*
X752589Y351514D01*
X753013Y351690D01*
X753373Y352557D01*
X754006Y353250D01*
X753972Y354005D01*
X754261Y354703D01*
Y373235D01*
X768913Y387887D01*
X769080Y388290D01*
X769443Y388532D01*
X770033Y389416D01*
X770917Y390006D01*
X771159Y390369D01*
X771562Y390536D01*
X780025Y398999D01*
X783053Y399311D01*
X785341Y398913D01*
X786685Y396902D01*
X789289Y395161D01*
X792361Y394550D01*
X795434Y395161D01*
X796352Y394870D01*
X800301Y392400D01*
X800654Y390627D01*
X802394Y388023D01*
X804999Y386282D01*
X808071Y385671D01*
X811143Y386282D01*
X813748Y388023D01*
X815488Y390627D01*
X816099Y393700D01*
X815488Y396772D01*
X813748Y399377D01*
X811143Y401117D01*
X808556Y401631D01*
X809049Y406631D01*
X827100D01*
X830940Y407395D01*
X834196Y409571D01*
X884078Y459453D01*
X901005D01*
X905357Y455707D01*
X905968Y452635D01*
X907709Y450030D01*
X910313Y448290D01*
X913386Y447679D01*
X916458Y448290D01*
X919063Y450030D01*
X920613Y452350D01*
X922831Y452635D01*
X923628Y452636D01*
X925845Y452351D01*
X927394Y450032D01*
X929999Y448292D01*
X933071Y447681D01*
X936143Y448292D01*
X938748Y450032D01*
X940488Y452637D01*
X941099Y455709D01*
X940488Y458781D01*
X939328Y460517D01*
X942135Y462392D01*
X944311Y465648D01*
X945075Y469488D01*
X944311Y473329D01*
X943647Y474322D01*
X944058Y475937D01*
X946185Y479434D01*
X947954Y479786D01*
X950559Y481526D01*
X952299Y484131D01*
X952910Y487203D01*
X952299Y490275D01*
X950559Y492880D01*
X947954Y494620D01*
X944882Y495231D01*
X941809Y494620D01*
X939205Y492880D01*
X937465Y490275D01*
X936854Y487203D01*
X937465Y484131D01*
X935703Y480785D01*
X934530Y479524D01*
X923738D01*
X920933Y483926D01*
X920881Y484524D01*
X921414Y487203D01*
X920803Y490275D01*
X919062Y492880D01*
X916458Y494620D01*
X913386Y495231D01*
X910313Y494620D01*
X907709Y492880D01*
X905968Y490275D01*
X905357Y487203D01*
X905890Y484524D01*
X905838Y483926D01*
X903033Y479524D01*
X879921D01*
X876081Y478760D01*
X872825Y476584D01*
X822943Y426702D01*
X814800D01*
X812729Y431702D01*
X900495Y519468D01*
X902177Y519202D01*
X905596Y517499D01*
X905968Y515627D01*
X907709Y513022D01*
X910313Y511282D01*
X913386Y510671D01*
X916458Y511282D01*
X919063Y513022D01*
X920803Y515627D01*
X921414Y518699D01*
X920803Y521771D01*
X919063Y524376D01*
X916458Y526116D01*
X914586Y526489D01*
X912883Y529908D01*
X912617Y531590D01*
X915301Y534274D01*
X915547Y534870D01*
X916046Y535279D01*
X916148Y536320D01*
X916549Y537287D01*
X916302Y537883D01*
X916365Y538524D01*
X915540Y541246D01*
X916458Y542778D01*
X919063Y544518D01*
X920803Y547123D01*
X922335Y548041D01*
X925056Y547216D01*
X925698Y547279D01*
X926293Y547032D01*
X927261Y547433D01*
X928302Y547535D01*
X928711Y548034D01*
X929307Y548280D01*
X931991Y550964D01*
X933673Y550698D01*
X937092Y548995D01*
X937465Y547123D01*
X939205Y544518D01*
X941809Y542778D01*
X944882Y542167D01*
X947954Y542778D01*
X950559Y544518D01*
X952299Y547123D01*
X952910Y550195D01*
X952299Y553268D01*
X950559Y555872D01*
X947954Y557612D01*
X946082Y557985D01*
X944379Y561404D01*
X944113Y563086D01*
X953013Y571987D01*
X954261Y575000D01*
Y652757D01*
X953786Y653905D01*
X953543Y655125D01*
X953180Y655367D01*
X953013Y655770D01*
X951865Y656246D01*
X950831Y656937D01*
X949887Y657125D01*
X948809Y657538D01*
X948587Y660766D01*
X948899Y662859D01*
X950362Y663836D01*
X950831Y663929D01*
X951865Y664620D01*
X952653Y664946D01*
X952785Y664957D01*
X953767Y664886D01*
X957800Y663764D01*
X958247Y661515D01*
X960423Y658259D01*
X960424Y658258D01*
X963679Y656083D01*
X967520Y655319D01*
X971360Y656083D01*
X974616Y658258D01*
X976791Y661514D01*
X977555Y665354D01*
X977554Y665360D01*
Y675005D01*
X1043087D01*
X1049991Y668101D01*
D02*
G37*
G36*
X470739Y300000D02*
X471987Y296987D01*
X471987Y296987D01*
X506210Y262763D01*
X504296Y258144D01*
X324717D01*
X259344Y323517D01*
X254786Y326562D01*
X250733Y327369D01*
X251226Y332369D01*
X307325D01*
X337465Y302229D01*
X337465Y302229D01*
X342675Y298748D01*
X348819Y297526D01*
X354964Y298748D01*
X360173Y302229D01*
X363653Y307438D01*
X364876Y313582D01*
X363653Y319727D01*
X360173Y324936D01*
X360172Y324936D01*
X325330Y359779D01*
X325283Y359810D01*
X326800Y364810D01*
X470739D01*
Y300000D01*
D02*
G37*
G36*
X187563Y327369D02*
X186046Y326355D01*
X125786Y266095D01*
X83595D01*
X77328Y270283D01*
X68111Y272116D01*
X58894Y270283D01*
X51080Y265062D01*
X45859Y257248D01*
X44026Y248031D01*
X44766Y244312D01*
X40188Y241696D01*
X37536Y243761D01*
Y269488D01*
X37002Y272176D01*
X35479Y274455D01*
X21579Y288356D01*
X48118Y314895D01*
X52726Y312432D01*
X52054Y309055D01*
X53276Y302910D01*
X56757Y297701D01*
X61966Y294221D01*
X68111Y292998D01*
X74255Y294221D01*
X79465Y297701D01*
X114132Y332369D01*
X186046D01*
X187563Y327369D01*
D02*
G37*
G36*
X308963Y234160D02*
X313521Y231114D01*
X318898Y230045D01*
X551267D01*
X562421Y218891D01*
X560350Y213891D01*
X534056D01*
X527911Y212669D01*
X522702Y209188D01*
X522702Y209188D01*
X493152Y179639D01*
X448819D01*
X442674Y178417D01*
X437465Y174936D01*
X433985Y169727D01*
X432762Y163582D01*
X433985Y157438D01*
X437465Y152229D01*
X442674Y148748D01*
X448819Y147526D01*
X499803D01*
X499803Y147526D01*
X505948Y148748D01*
X511157Y152229D01*
X540706Y181778D01*
X557916D01*
X587465Y152229D01*
X616205Y123489D01*
X616206Y123489D01*
X621415Y120008D01*
X627559Y118786D01*
X627560Y118786D01*
X637270D01*
X640831Y113786D01*
X640791Y113582D01*
X641402Y110510D01*
X643142Y107906D01*
X645747Y106165D01*
X648819Y105554D01*
X651164Y100923D01*
X645077Y94835D01*
X397077D01*
X395006Y99835D01*
X401198Y106027D01*
X401891Y106165D01*
X404496Y107906D01*
X406236Y110510D01*
X406847Y113582D01*
X406236Y116655D01*
X404496Y119259D01*
X401891Y121000D01*
X398819Y121611D01*
X395747Y121000D01*
X393142Y119259D01*
X391402Y116655D01*
X391264Y115962D01*
X382721Y107418D01*
X360184D01*
X359291Y108118D01*
X356616Y112418D01*
X356847Y113582D01*
X356236Y116655D01*
X354496Y119259D01*
X351891Y121000D01*
X348819Y121611D01*
X345747Y121000D01*
X343142Y119259D01*
X341402Y116655D01*
X340791Y113582D01*
X341022Y112418D01*
X338347Y108118D01*
X337454Y107418D01*
X260184D01*
X259291Y108118D01*
X256616Y112418D01*
X256847Y113582D01*
X256236Y116655D01*
X254496Y119259D01*
X251891Y121000D01*
X251198Y121137D01*
X241384Y130952D01*
X239105Y132474D01*
X236417Y133009D01*
X91492D01*
X51316Y173185D01*
Y224830D01*
X54676Y227223D01*
X56171Y227599D01*
X58894Y225780D01*
X68111Y223946D01*
X77328Y225780D01*
X83595Y229968D01*
X133268D01*
X140180Y231343D01*
X146041Y235258D01*
X210315Y299533D01*
X243590D01*
X308963Y234160D01*
D02*
G37*
%LPC*%
G36*
X891732Y1068068D02*
X888660Y1067457D01*
X886055Y1065716D01*
X884315Y1063112D01*
X883704Y1060039D01*
X884315Y1056967D01*
X886055Y1054362D01*
X888660Y1052622D01*
X891732Y1052011D01*
X894804Y1052622D01*
X897409Y1054362D01*
X899149Y1056967D01*
X899760Y1060039D01*
X899149Y1063112D01*
X897409Y1065716D01*
X894804Y1067457D01*
X891732Y1068068D01*
D02*
G37*
G36*
X820866D02*
X817794Y1067457D01*
X815189Y1065716D01*
X813449Y1063112D01*
X812838Y1060039D01*
X813449Y1056967D01*
X815189Y1054362D01*
X817794Y1052622D01*
X820866Y1052011D01*
X823938Y1052622D01*
X826543Y1054362D01*
X828283Y1056967D01*
X828894Y1060039D01*
X828283Y1063112D01*
X826543Y1065716D01*
X823938Y1067457D01*
X820866Y1068068D01*
D02*
G37*
G36*
X769685D02*
X766613Y1067457D01*
X764008Y1065716D01*
X762268Y1063112D01*
X761657Y1060039D01*
X762268Y1056967D01*
X764008Y1054362D01*
X766613Y1052622D01*
X769685Y1052011D01*
X772757Y1052622D01*
X775362Y1054362D01*
X777102Y1056967D01*
X777713Y1060039D01*
X777102Y1063112D01*
X775362Y1065716D01*
X772757Y1067457D01*
X769685Y1068068D01*
D02*
G37*
G36*
X738189D02*
X735116Y1067457D01*
X732512Y1065716D01*
X730772Y1063112D01*
X730160Y1060039D01*
X730772Y1056967D01*
X732512Y1054362D01*
X735116Y1052622D01*
X738189Y1052011D01*
X741261Y1052622D01*
X743866Y1054362D01*
X745606Y1056967D01*
X746217Y1060039D01*
X745606Y1063112D01*
X743866Y1065716D01*
X741261Y1067457D01*
X738189Y1068068D01*
D02*
G37*
G36*
X667323D02*
X664250Y1067457D01*
X661646Y1065716D01*
X659906Y1063112D01*
X659294Y1060039D01*
X659906Y1056967D01*
X661646Y1054362D01*
X664250Y1052622D01*
X667323Y1052011D01*
X670395Y1052622D01*
X673000Y1054362D01*
X674740Y1056967D01*
X675351Y1060039D01*
X674740Y1063112D01*
X673000Y1065716D01*
X670395Y1067457D01*
X667323Y1068068D01*
D02*
G37*
G36*
X635827D02*
X632755Y1067457D01*
X630150Y1065716D01*
X628410Y1063112D01*
X627799Y1060039D01*
X628410Y1056967D01*
X630150Y1054362D01*
X632755Y1052622D01*
X635827Y1052011D01*
X638899Y1052622D01*
X641504Y1054362D01*
X643244Y1056967D01*
X643855Y1060039D01*
X643244Y1063112D01*
X641504Y1065716D01*
X638899Y1067457D01*
X635827Y1068068D01*
D02*
G37*
G36*
X587598Y1032634D02*
X584526Y1032023D01*
X581922Y1030283D01*
X580181Y1027678D01*
X579570Y1024606D01*
X580181Y1021534D01*
X581922Y1018929D01*
X584526Y1017189D01*
X587598Y1016578D01*
X590671Y1017189D01*
X593275Y1018929D01*
X595016Y1021534D01*
X595627Y1024606D01*
X595016Y1027678D01*
X593275Y1030283D01*
X590671Y1032023D01*
X587598Y1032634D01*
D02*
G37*
G36*
X1063976Y1021808D02*
X1060904Y1021197D01*
X1058299Y1019456D01*
X1056559Y1016852D01*
X1055948Y1013779D01*
X1056559Y1010707D01*
X1058299Y1008103D01*
X1060904Y1006362D01*
X1063976Y1005751D01*
X1067049Y1006362D01*
X1069653Y1008103D01*
X1071393Y1010707D01*
X1072005Y1013779D01*
X1071393Y1016852D01*
X1069653Y1019456D01*
X1067049Y1021197D01*
X1063976Y1021808D01*
D02*
G37*
G36*
X762795Y1014918D02*
X759723Y1014307D01*
X757118Y1012567D01*
X755378Y1009962D01*
X754767Y1006890D01*
X755378Y1003817D01*
X757118Y1001213D01*
X759723Y999473D01*
X762795Y998861D01*
X765868Y999473D01*
X768472Y1001213D01*
X770212Y1003817D01*
X770824Y1006890D01*
X770212Y1009962D01*
X768472Y1012567D01*
X765868Y1014307D01*
X762795Y1014918D01*
D02*
G37*
G36*
X1003346Y999170D02*
X1000274Y998559D01*
X997670Y996819D01*
X995929Y994214D01*
X995318Y991142D01*
X995929Y988069D01*
X997670Y985465D01*
X1000274Y983725D01*
X1003346Y983113D01*
X1006419Y983725D01*
X1009023Y985465D01*
X1010764Y988069D01*
X1011375Y991142D01*
X1010764Y994214D01*
X1009023Y996819D01*
X1006419Y998559D01*
X1003346Y999170D01*
D02*
G37*
G36*
X904528D02*
X901455Y998559D01*
X898851Y996819D01*
X897110Y994214D01*
X896499Y991142D01*
X897110Y988069D01*
X898851Y985465D01*
X901455Y983725D01*
X904528Y983113D01*
X907600Y983725D01*
X910205Y985465D01*
X911945Y988069D01*
X912556Y991142D01*
X911945Y994214D01*
X910205Y996819D01*
X907600Y998559D01*
X904528Y999170D01*
D02*
G37*
G36*
X723425D02*
X720353Y998559D01*
X717748Y996819D01*
X716008Y994214D01*
X715397Y991142D01*
X716008Y988069D01*
X717748Y985465D01*
X720353Y983725D01*
X723425Y983113D01*
X726497Y983725D01*
X729102Y985465D01*
X730842Y988069D01*
X731453Y991142D01*
X730842Y994214D01*
X729102Y996819D01*
X726497Y998559D01*
X723425Y999170D01*
D02*
G37*
G36*
X605315Y986375D02*
X602243Y985764D01*
X599638Y984024D01*
X597898Y981419D01*
X597287Y978347D01*
X597898Y975274D01*
X599638Y972670D01*
X602243Y970929D01*
X605315Y970318D01*
X608387Y970929D01*
X610992Y972670D01*
X612732Y975274D01*
X613343Y978347D01*
X612732Y981419D01*
X610992Y984024D01*
X608387Y985764D01*
X605315Y986375D01*
D02*
G37*
G36*
X762795Y983422D02*
X759723Y982811D01*
X757118Y981071D01*
X755378Y978466D01*
X754767Y975394D01*
X755378Y972321D01*
X757118Y969717D01*
X759723Y967976D01*
X762795Y967365D01*
X765868Y967976D01*
X768472Y969717D01*
X770212Y972321D01*
X770824Y975394D01*
X770212Y978466D01*
X768472Y981071D01*
X765868Y982811D01*
X762795Y983422D01*
D02*
G37*
G36*
X676181Y940115D02*
X673109Y939504D01*
X670504Y937764D01*
X668764Y935159D01*
X668153Y932087D01*
X668764Y929014D01*
X670504Y926410D01*
X673109Y924669D01*
X676181Y924058D01*
X679253Y924669D01*
X681858Y926410D01*
X683598Y929014D01*
X684209Y932087D01*
X683598Y935159D01*
X681858Y937764D01*
X679253Y939504D01*
X676181Y940115D01*
D02*
G37*
G36*
X1063976Y939130D02*
X1060904Y938519D01*
X1058300Y936779D01*
X1056559Y934174D01*
X1055948Y931102D01*
X1056559Y928030D01*
X1058300Y925425D01*
X1060904Y923685D01*
X1063976Y923074D01*
X1067049Y923685D01*
X1069653Y925425D01*
X1071394Y928030D01*
X1072005Y931102D01*
X1071394Y934174D01*
X1069653Y936779D01*
X1067049Y938519D01*
X1063976Y939130D01*
D02*
G37*
G36*
Y868264D02*
X1060904Y867653D01*
X1058300Y865912D01*
X1056559Y863308D01*
X1055948Y860236D01*
X1056559Y857163D01*
X1058300Y854559D01*
X1060904Y852818D01*
X1063976Y852207D01*
X1067049Y852818D01*
X1069653Y854559D01*
X1071394Y857163D01*
X1072005Y860236D01*
X1071394Y863308D01*
X1069653Y865912D01*
X1067049Y867653D01*
X1063976Y868264D01*
D02*
G37*
G36*
Y836768D02*
X1060904Y836157D01*
X1058300Y834417D01*
X1056559Y831812D01*
X1055948Y828740D01*
X1056559Y825667D01*
X1058300Y823063D01*
X1060904Y821322D01*
X1063976Y820711D01*
X1067049Y821322D01*
X1069653Y823063D01*
X1071394Y825667D01*
X1072005Y828740D01*
X1071394Y831812D01*
X1069653Y834417D01*
X1067049Y836157D01*
X1063976Y836768D01*
D02*
G37*
G36*
X510827Y983422D02*
X507755Y982811D01*
X505150Y981071D01*
X503410Y978466D01*
X502798Y975394D01*
X503410Y972321D01*
X505150Y969717D01*
X507755Y967976D01*
X510827Y967365D01*
X513899Y967976D01*
X516504Y969717D01*
X518244Y972321D01*
X518855Y975394D01*
X518244Y978466D01*
X516504Y981071D01*
X513899Y982811D01*
X510827Y983422D01*
D02*
G37*
G36*
X80709Y943068D02*
X77636Y942457D01*
X75032Y940716D01*
X73291Y938112D01*
X72680Y935039D01*
X73291Y931967D01*
X75032Y929362D01*
X77636Y927622D01*
X80709Y927011D01*
X83781Y927622D01*
X86385Y929362D01*
X88126Y931967D01*
X88737Y935039D01*
X88126Y938112D01*
X86385Y940716D01*
X83781Y942457D01*
X80709Y943068D01*
D02*
G37*
G36*
X495079Y943068D02*
X492007Y942457D01*
X489402Y940716D01*
X487662Y938112D01*
X487050Y935039D01*
X487662Y931967D01*
X489402Y929362D01*
X492007Y927622D01*
X495079Y927011D01*
X498151Y927622D01*
X500756Y929362D01*
X502496Y931967D01*
X503107Y935039D01*
X502496Y938112D01*
X500756Y940716D01*
X498151Y942457D01*
X495079Y943068D01*
D02*
G37*
G36*
X469488Y949957D02*
X466416Y949346D01*
X463811Y947606D01*
X462071Y945001D01*
X461460Y941929D01*
X462071Y938857D01*
X463811Y936252D01*
X463835Y936075D01*
X463088Y930722D01*
X461842Y929890D01*
X460102Y927285D01*
X459491Y924213D01*
X460102Y921140D01*
X461842Y918536D01*
X464447Y916795D01*
X466978Y916292D01*
X467519Y916184D01*
X471302Y912402D01*
X471410Y911860D01*
X471913Y909329D01*
X473654Y906725D01*
X476258Y904984D01*
X479331Y904373D01*
X482403Y904984D01*
X485008Y906725D01*
X486748Y909329D01*
X487359Y912402D01*
X486748Y915474D01*
X485008Y918078D01*
X482403Y919819D01*
X479872Y920322D01*
X479331Y920430D01*
X475548Y924213D01*
X475440Y924754D01*
X474937Y927285D01*
X473196Y929889D01*
X473172Y930067D01*
X473919Y935420D01*
X475165Y936252D01*
X476905Y938857D01*
X477516Y941929D01*
X476905Y945001D01*
X475165Y947606D01*
X472560Y949346D01*
X469488Y949957D01*
D02*
G37*
G36*
X126653Y920036D02*
X123581Y919425D01*
X120977Y917685D01*
X119236Y915080D01*
X118625Y912008D01*
X119236Y908936D01*
X120977Y906331D01*
X123581Y904591D01*
X126653Y903980D01*
X129726Y904591D01*
X132330Y906331D01*
X134071Y908936D01*
X134682Y912008D01*
X134071Y915080D01*
X132330Y917685D01*
X129726Y919425D01*
X126653Y920036D01*
D02*
G37*
G36*
X575788Y918461D02*
X572715Y917850D01*
X570111Y916110D01*
X568370Y913505D01*
X567759Y910433D01*
X568370Y907361D01*
X570111Y904756D01*
X572715Y903016D01*
X575788Y902405D01*
X578860Y903016D01*
X581464Y904756D01*
X583205Y907361D01*
X583816Y910433D01*
X583205Y913505D01*
X581464Y916110D01*
X578860Y917850D01*
X575788Y918461D01*
D02*
G37*
G36*
X540354Y917477D02*
X537282Y916866D01*
X534677Y915126D01*
X532937Y912521D01*
X532326Y909449D01*
X532937Y906376D01*
X534677Y903772D01*
X537282Y902032D01*
X540354Y901420D01*
X543427Y902032D01*
X546031Y903772D01*
X547771Y906376D01*
X548383Y909449D01*
X547771Y912521D01*
X546031Y915126D01*
X543427Y916866D01*
X540354Y917477D01*
D02*
G37*
G36*
X449803Y910587D02*
X446731Y909976D01*
X444126Y908236D01*
X442386Y905631D01*
X441775Y902559D01*
X442386Y899487D01*
X444126Y896882D01*
X446731Y895142D01*
X449803Y894531D01*
X452875Y895142D01*
X455480Y896882D01*
X457220Y899487D01*
X457831Y902559D01*
X457220Y905631D01*
X455480Y908236D01*
X452875Y909976D01*
X449803Y910587D01*
D02*
G37*
G36*
X417323Y893855D02*
X414250Y893244D01*
X411646Y891504D01*
X409906Y888899D01*
X409295Y885827D01*
X409906Y882755D01*
X411646Y880150D01*
X414250Y878410D01*
X417323Y877798D01*
X420395Y878410D01*
X423000Y880150D01*
X424740Y882755D01*
X425351Y885827D01*
X424740Y888899D01*
X423000Y891504D01*
X420395Y893244D01*
X417323Y893855D01*
D02*
G37*
G36*
X475394Y888934D02*
X472321Y888323D01*
X469717Y886583D01*
X467976Y883978D01*
X467365Y880906D01*
X467976Y877833D01*
X469717Y875229D01*
X472321Y873489D01*
X475394Y872878D01*
X478466Y873489D01*
X481071Y875229D01*
X482811Y877833D01*
X483422Y880906D01*
X482811Y883978D01*
X481071Y886583D01*
X478466Y888323D01*
X475394Y888934D01*
D02*
G37*
G36*
X510827Y888934D02*
X507755Y888323D01*
X505150Y886582D01*
X503410Y883978D01*
X502798Y880905D01*
X503410Y877833D01*
X505150Y875229D01*
X507755Y873488D01*
X510827Y872877D01*
X513899Y873488D01*
X516504Y875229D01*
X518244Y877833D01*
X518855Y880905D01*
X518244Y883978D01*
X516504Y886582D01*
X513899Y888323D01*
X510827Y888934D01*
D02*
G37*
G36*
X417323Y868265D02*
X414250Y867654D01*
X411646Y865913D01*
X409906Y863309D01*
X409295Y860236D01*
X409906Y857164D01*
X411646Y854559D01*
X414250Y852819D01*
X417323Y852208D01*
X420395Y852819D01*
X423000Y854559D01*
X424740Y857164D01*
X425351Y860236D01*
X424740Y863309D01*
X423000Y865913D01*
X420395Y867654D01*
X417323Y868265D01*
D02*
G37*
G36*
X274291Y861966D02*
X271219Y861355D01*
X268614Y859614D01*
X266874Y857010D01*
X266263Y853938D01*
X266874Y850865D01*
X268614Y848261D01*
X271219Y846520D01*
X274291Y845909D01*
X277364Y846520D01*
X279968Y848261D01*
X281709Y850865D01*
X282320Y853938D01*
X281709Y857010D01*
X279968Y859614D01*
X277364Y861355D01*
X274291Y861966D01*
D02*
G37*
G36*
X459645Y861375D02*
X456573Y860764D01*
X453968Y859023D01*
X452228Y856419D01*
X451617Y853346D01*
X452228Y850274D01*
X453968Y847670D01*
X456573Y845929D01*
X459645Y845318D01*
X462717Y845929D01*
X465322Y847670D01*
X467062Y850274D01*
X467673Y853346D01*
X467062Y856419D01*
X465322Y859023D01*
X462717Y860764D01*
X459645Y861375D01*
D02*
G37*
G36*
X428150Y849564D02*
X425077Y848952D01*
X422473Y847212D01*
X420732Y844608D01*
X420121Y841535D01*
X420732Y838463D01*
X422473Y835858D01*
X425077Y834118D01*
X428150Y833507D01*
X431222Y834118D01*
X433827Y835858D01*
X435567Y838463D01*
X436178Y841535D01*
X435567Y844608D01*
X433827Y847212D01*
X431222Y848952D01*
X428150Y849564D01*
D02*
G37*
G36*
X80709Y844641D02*
X77636Y844030D01*
X75032Y842290D01*
X73292Y839685D01*
X72680Y836613D01*
X73292Y833541D01*
X75032Y830936D01*
X77636Y829196D01*
X80709Y828585D01*
X83781Y829196D01*
X86386Y830936D01*
X88126Y833541D01*
X88737Y836613D01*
X88126Y839685D01*
X86386Y842290D01*
X83781Y844030D01*
X80709Y844641D01*
D02*
G37*
G36*
X366142Y841690D02*
X363069Y841079D01*
X360465Y839338D01*
X358724Y836734D01*
X358113Y833661D01*
X358724Y830589D01*
X360465Y827985D01*
X363069Y826244D01*
X366142Y825633D01*
X369214Y826244D01*
X371819Y827985D01*
X373559Y830589D01*
X374170Y833661D01*
X373559Y836734D01*
X371819Y839338D01*
X369214Y841079D01*
X366142Y841690D01*
D02*
G37*
G36*
X571850Y826926D02*
X568778Y826315D01*
X566173Y824575D01*
X564433Y821970D01*
X563822Y818898D01*
X564433Y815825D01*
X566173Y813221D01*
X568778Y811481D01*
X571850Y810869D01*
X574923Y811481D01*
X577527Y813221D01*
X579268Y815825D01*
X579879Y818898D01*
X579268Y821970D01*
X577527Y824575D01*
X574923Y826315D01*
X571850Y826926D01*
D02*
G37*
G36*
X544291Y823973D02*
X541219Y823362D01*
X538615Y821622D01*
X536874Y819017D01*
X536263Y815945D01*
X536874Y812872D01*
X538615Y810268D01*
X541219Y808528D01*
X544291Y807917D01*
X547364Y808528D01*
X549968Y810268D01*
X551709Y812872D01*
X552320Y815945D01*
X551709Y819017D01*
X549968Y821622D01*
X547364Y823362D01*
X544291Y823973D01*
D02*
G37*
G36*
X644685Y818068D02*
X641613Y817457D01*
X639008Y815716D01*
X637268Y813112D01*
X636657Y810039D01*
X637268Y806967D01*
X639008Y804362D01*
X641613Y802622D01*
X644685Y802011D01*
X647758Y802622D01*
X650362Y804362D01*
X652102Y806967D01*
X652713Y810039D01*
X652102Y813112D01*
X650362Y815716D01*
X647758Y817457D01*
X644685Y818068D01*
D02*
G37*
G36*
X612205Y810194D02*
X609132Y809582D01*
X606528Y807842D01*
X604788Y805238D01*
X604176Y802165D01*
X604788Y799093D01*
X606528Y796488D01*
X609132Y794748D01*
X612205Y794137D01*
X615277Y794748D01*
X617882Y796488D01*
X619622Y799093D01*
X620233Y802165D01*
X619622Y805238D01*
X617882Y807842D01*
X615277Y809582D01*
X612205Y810194D01*
D02*
G37*
G36*
X794291Y794446D02*
X791219Y793835D01*
X788614Y792094D01*
X786874Y789490D01*
X786263Y786417D01*
X786874Y783345D01*
X788614Y780740D01*
X791219Y779000D01*
X794291Y778389D01*
X797364Y779000D01*
X799968Y780740D01*
X801708Y783345D01*
X802320Y786417D01*
X801708Y789490D01*
X799968Y792094D01*
X797364Y793835D01*
X794291Y794446D01*
D02*
G37*
G36*
X731299D02*
X728227Y793835D01*
X725622Y792094D01*
X723882Y789490D01*
X723271Y786417D01*
X723882Y783345D01*
X725622Y780740D01*
X728227Y779000D01*
X731299Y778389D01*
X734371Y779000D01*
X736976Y780740D01*
X738716Y783345D01*
X739327Y786417D01*
X738716Y789490D01*
X736976Y792094D01*
X734371Y793835D01*
X731299Y794446D01*
D02*
G37*
G36*
X597441Y780666D02*
X594369Y780055D01*
X591764Y778315D01*
X590024Y775710D01*
X589413Y772638D01*
X589887Y770252D01*
X586927Y767133D01*
X586389Y766691D01*
X581553Y768673D01*
X581440Y768780D01*
X581236Y769805D01*
X579496Y772409D01*
X576891Y774150D01*
X573819Y774761D01*
X570747Y774150D01*
X568142Y772409D01*
X566402Y769805D01*
X565791Y766732D01*
X565906Y766154D01*
X561406Y763148D01*
X561144Y763323D01*
X558071Y763934D01*
X554999Y763323D01*
X552394Y761582D01*
X550654Y758978D01*
X550043Y755906D01*
X550654Y752833D01*
X552394Y750229D01*
X554999Y748488D01*
X558071Y747877D01*
X561144Y748488D01*
X563748Y750229D01*
X565488Y752833D01*
X566100Y755906D01*
X565985Y756484D01*
X570484Y759490D01*
X570747Y759315D01*
X573819Y758704D01*
X576891Y759315D01*
X577798Y759921D01*
X577896Y759919D01*
X582817Y757902D01*
X582930Y757795D01*
X583134Y756770D01*
X584874Y754166D01*
X587479Y752425D01*
X590551Y751814D01*
X593624Y752425D01*
X596228Y754166D01*
X597968Y756770D01*
X598580Y759842D01*
X597968Y762915D01*
X600513Y765221D01*
X603118Y766961D01*
X604858Y769566D01*
X605469Y772638D01*
X604858Y775710D01*
X603118Y778315D01*
X600513Y780055D01*
X597441Y780666D01*
D02*
G37*
G36*
X512795Y778698D02*
X509723Y778087D01*
X507118Y776346D01*
X505378Y773742D01*
X504767Y770669D01*
X505378Y767597D01*
X507118Y764992D01*
X509723Y763252D01*
X512795Y762641D01*
X515868Y763252D01*
X519193Y764682D01*
X522519Y763252D01*
X525591Y762641D01*
X528663Y763252D01*
X531268Y764992D01*
X533008Y767597D01*
X533619Y770669D01*
X533008Y773741D01*
X531268Y776346D01*
X528663Y778086D01*
X525591Y778697D01*
X522519Y778086D01*
X519193Y776656D01*
X515868Y778087D01*
X512795Y778698D01*
D02*
G37*
G36*
X245079Y760982D02*
X242007Y760371D01*
X239402Y758631D01*
X235008D01*
X232403Y760371D01*
X229331Y760982D01*
X226259Y760371D01*
X223654Y758631D01*
X219260D01*
X216655Y760371D01*
X213583Y760982D01*
X210511Y760371D01*
X207906Y758631D01*
X203512D01*
X200907Y760371D01*
X197835Y760982D01*
X194763Y760371D01*
X192158Y758631D01*
X187764D01*
X185159Y760371D01*
X182087Y760982D01*
X179015Y760371D01*
X176410Y758631D01*
X172016D01*
X169411Y760371D01*
X166339Y760982D01*
X163267Y760371D01*
X160662Y758631D01*
X156268D01*
X153663Y760371D01*
X150591Y760982D01*
X147519Y760371D01*
X144914Y758631D01*
X140520D01*
X137915Y760371D01*
X134843Y760982D01*
X131771Y760371D01*
X129166Y758631D01*
X127426Y756026D01*
X126815Y752954D01*
X127426Y749882D01*
X129166Y747277D01*
X131771Y745537D01*
X134843Y744926D01*
X137915Y745537D01*
X140520Y747277D01*
X144914D01*
X147519Y745537D01*
X150591Y744926D01*
X153663Y745537D01*
X156268Y747277D01*
X160662D01*
X163267Y745537D01*
X166339Y744926D01*
X169411Y745537D01*
X172016Y747277D01*
X176410D01*
X179015Y745537D01*
X182087Y744926D01*
X185159Y745537D01*
X187764Y747277D01*
X192158D01*
X194763Y745537D01*
X197835Y744926D01*
X200907Y745537D01*
X203512Y747277D01*
X207906D01*
X210511Y745537D01*
X213583Y744926D01*
X216655Y745537D01*
X219260Y747277D01*
X223654D01*
X226259Y745537D01*
X229331Y744926D01*
X232403Y745537D01*
X235008Y747277D01*
X239402D01*
X242007Y745537D01*
X245079Y744926D01*
X248151Y745537D01*
X248589Y745829D01*
X251858Y746575D01*
X254973Y744589D01*
X255150Y744324D01*
X257755Y742584D01*
X260827Y741973D01*
X263899Y742584D01*
X266504Y744324D01*
X268244Y746929D01*
X268856Y750001D01*
X268244Y753073D01*
X266504Y755678D01*
X263899Y757418D01*
X260827Y758029D01*
X257755Y757418D01*
X257317Y757126D01*
X254048Y756380D01*
X250933Y758366D01*
X250756Y758631D01*
X248151Y760371D01*
X245079Y760982D01*
D02*
G37*
G36*
X276575Y771808D02*
X273502Y771197D01*
X270898Y769456D01*
X269158Y766852D01*
X268546Y763779D01*
X269158Y760707D01*
X270898Y758103D01*
X273502Y756362D01*
X276575Y755751D01*
X279647Y756362D01*
X282252Y758103D01*
X283992Y760707D01*
X284603Y763779D01*
X283992Y766852D01*
X282252Y769456D01*
X279647Y771197D01*
X276575Y771808D01*
D02*
G37*
G36*
X327757Y753108D02*
X324685Y752497D01*
X322080Y750756D01*
X320340Y748152D01*
X319729Y745080D01*
X320340Y742007D01*
X322080Y739403D01*
X324685Y737662D01*
X327757Y737051D01*
X330830Y737662D01*
X333434Y739403D01*
X335175Y742007D01*
X335786Y745080D01*
X335175Y748152D01*
X333434Y750756D01*
X330830Y752497D01*
X327757Y753108D01*
D02*
G37*
G36*
X716535Y762950D02*
X713463Y762338D01*
X710859Y760598D01*
X709118Y757994D01*
X708507Y754921D01*
X709118Y751849D01*
X710859Y749244D01*
X713178Y747695D01*
X713463Y745474D01*
Y744683D01*
X713178Y742463D01*
X710858Y740913D01*
X709118Y738309D01*
X708507Y735236D01*
X709118Y732164D01*
X710858Y729559D01*
X713463Y727819D01*
X716535Y727208D01*
X719608Y727819D01*
X722212Y729559D01*
X723952Y732164D01*
X724564Y735236D01*
X723952Y738309D01*
X722212Y740913D01*
X719893Y742463D01*
X719608Y744683D01*
Y745474D01*
X719893Y747695D01*
X722212Y749244D01*
X723953Y751849D01*
X724564Y754921D01*
X723953Y757994D01*
X722212Y760598D01*
X719608Y762338D01*
X716535Y762950D01*
D02*
G37*
G36*
X410124Y715706D02*
X407051Y715095D01*
X404447Y713354D01*
X402707Y710750D01*
X402096Y707677D01*
X402707Y704605D01*
X404447Y702000D01*
X407051Y700260D01*
X410124Y699649D01*
X413196Y700260D01*
X415801Y702000D01*
X417541Y704605D01*
X418152Y707677D01*
X417541Y710750D01*
X415801Y713354D01*
X413196Y715095D01*
X410124Y715706D01*
D02*
G37*
G36*
X605315Y699957D02*
X602243Y699346D01*
X600077Y697899D01*
X599638Y697606D01*
X594260Y697606D01*
X593821Y697899D01*
X591655Y699346D01*
X588583Y699957D01*
X585510Y699346D01*
X582906Y697606D01*
X579496D01*
X576891Y699346D01*
X573819Y699957D01*
X570747Y699346D01*
X568142Y697606D01*
X563748D01*
X561143Y699346D01*
X558071Y699957D01*
X554999Y699346D01*
X552394Y697606D01*
X550654Y695001D01*
X550043Y691929D01*
X550654Y688857D01*
X552394Y686252D01*
X554999Y684512D01*
X558071Y683901D01*
X561143Y684512D01*
X563748Y686252D01*
X568142D01*
X570747Y684512D01*
X573819Y683901D01*
X576891Y684512D01*
X579496Y686252D01*
X582906D01*
X585510Y684512D01*
X588583Y683901D01*
X591655Y684512D01*
X593821Y685959D01*
X594260Y686252D01*
X599638Y686252D01*
X600077Y685959D01*
X602243Y684512D01*
X605315Y683901D01*
X608387Y684512D01*
X610992Y686252D01*
X612732Y688857D01*
X613343Y691929D01*
X612732Y695001D01*
X610992Y697606D01*
X608387Y699346D01*
X605315Y699957D01*
D02*
G37*
G36*
X77756Y705863D02*
X74684Y705252D01*
X72079Y703511D01*
X70339Y700907D01*
X69728Y697835D01*
X70339Y694762D01*
X71880Y692456D01*
X71543Y691227D01*
X69578Y687816D01*
X69258Y687879D01*
X67913Y688146D01*
X64841Y687535D01*
X62236Y685795D01*
X60572Y683305D01*
X60496Y683190D01*
Y683190D01*
X59885Y680118D01*
X57087Y679288D01*
X54014Y678677D01*
X51410Y676937D01*
X49669Y674332D01*
X49058Y671260D01*
X49669Y668188D01*
X51410Y665583D01*
X54014Y663843D01*
X57087Y663231D01*
X60159Y663843D01*
X62764Y665583D01*
X64427Y668073D01*
X64504Y668188D01*
Y668188D01*
X65115Y671260D01*
X67913Y672090D01*
X70986Y672701D01*
X73590Y674441D01*
X75331Y677046D01*
X75942Y680118D01*
X75331Y683190D01*
X73789Y685497D01*
X74126Y686726D01*
X76091Y690137D01*
X76411Y690074D01*
X77756Y689806D01*
X80828Y690417D01*
X83433Y692158D01*
X85173Y694762D01*
X85784Y697835D01*
X85173Y700907D01*
X83433Y703511D01*
X80828Y705252D01*
X77756Y705863D01*
D02*
G37*
G36*
X437992Y697989D02*
X434920Y697378D01*
X432315Y695637D01*
X430575Y693033D01*
X429964Y689961D01*
X430153Y689007D01*
X427815Y686920D01*
X425840Y685659D01*
X423228Y686179D01*
X420156Y685568D01*
X417551Y683827D01*
X415811Y681223D01*
X415200Y678150D01*
X415811Y675078D01*
X417551Y672474D01*
X420156Y670733D01*
X423228Y670122D01*
X426301Y670733D01*
X428905Y672474D01*
X430646Y675078D01*
X431257Y678150D01*
X431067Y679104D01*
X433405Y681191D01*
X435380Y682452D01*
X437992Y681932D01*
X441064Y682543D01*
X443669Y684284D01*
X445409Y686888D01*
X446020Y689961D01*
X445409Y693033D01*
X443669Y695637D01*
X441064Y697378D01*
X437992Y697989D01*
D02*
G37*
G36*
X339567Y729486D02*
X336495Y728875D01*
X333890Y727135D01*
X332150Y724530D01*
X331539Y721458D01*
X332150Y718386D01*
X333890Y715781D01*
Y711387D01*
X332150Y708782D01*
X331539Y705710D01*
X332121Y702782D01*
X332150Y702638D01*
X330613Y697459D01*
X330068Y697031D01*
X327985Y695639D01*
X326244Y693034D01*
X325633Y689962D01*
X326244Y686890D01*
X327985Y684285D01*
X330589Y682545D01*
X333661Y681934D01*
X336734Y682545D01*
X339338Y684285D01*
X341079Y686890D01*
X341690Y689962D01*
X341107Y692890D01*
X341079Y693034D01*
X342616Y698213D01*
X343160Y698641D01*
X345244Y700033D01*
X346985Y702638D01*
X347596Y705710D01*
X346985Y708782D01*
X345244Y711387D01*
Y715781D01*
X346985Y718386D01*
X347596Y721458D01*
X346985Y724530D01*
X345244Y727135D01*
X342640Y728875D01*
X339567Y729486D01*
D02*
G37*
G36*
X103347Y713738D02*
X100275Y713127D01*
X97670Y711387D01*
X95930Y708782D01*
X95319Y705710D01*
X95930Y702638D01*
X97670Y700033D01*
Y695639D01*
X95930Y693034D01*
X95319Y689962D01*
X95930Y686890D01*
X97670Y684285D01*
Y679891D01*
X95930Y677286D01*
X95319Y674214D01*
X95930Y671142D01*
X97670Y668537D01*
X100275Y666797D01*
X103347Y666186D01*
X106419Y666797D01*
X109024Y668537D01*
X110764Y671142D01*
X111375Y674214D01*
X110764Y677286D01*
X109024Y679891D01*
Y684285D01*
X110764Y686890D01*
X111375Y689962D01*
X110764Y693034D01*
X109024Y695639D01*
Y700033D01*
X110764Y702638D01*
X111375Y705710D01*
X110764Y708782D01*
X109024Y711387D01*
X106419Y713127D01*
X103347Y713738D01*
D02*
G37*
G36*
X350394Y682241D02*
X347321Y681630D01*
X344717Y679889D01*
X342976Y677285D01*
X342365Y674213D01*
X342976Y671140D01*
X344717Y668536D01*
X347321Y666795D01*
X350394Y666184D01*
X353466Y666795D01*
X356071Y668536D01*
X357811Y671140D01*
X358422Y674213D01*
X357811Y677285D01*
X356071Y679889D01*
X353466Y681630D01*
X350394Y682241D01*
D02*
G37*
G36*
X542323Y668461D02*
X539250Y667850D01*
X536646Y666110D01*
X532252D01*
X529647Y667850D01*
X526575Y668461D01*
X523503Y667850D01*
X520898Y666110D01*
X516504D01*
X513899Y667850D01*
X510827Y668461D01*
X507755Y667850D01*
X505150Y666110D01*
X503410Y663505D01*
X502798Y660433D01*
X503410Y657361D01*
X505150Y654756D01*
X507755Y653016D01*
X510827Y652405D01*
X513899Y653016D01*
X516504Y654756D01*
X520898D01*
X523503Y653016D01*
X526575Y652405D01*
X529647Y653016D01*
X532252Y654756D01*
X536646D01*
X539250Y653016D01*
X542323Y652405D01*
X545395Y653016D01*
X548000Y654756D01*
X549740Y657361D01*
X550351Y660433D01*
X549740Y663505D01*
X548000Y666110D01*
X545395Y667850D01*
X542323Y668461D01*
D02*
G37*
G36*
X605315D02*
X602243Y667850D01*
X599638Y666110D01*
X597898Y663505D01*
X597287Y660433D01*
X597898Y657361D01*
X599638Y654756D01*
X602243Y653016D01*
X605315Y652405D01*
X608387Y653016D01*
X610992Y654756D01*
X612732Y657361D01*
X613343Y660433D01*
X612732Y663505D01*
X610992Y666110D01*
X608387Y667850D01*
X605315Y668461D01*
D02*
G37*
G36*
X573819D02*
X570747Y667850D01*
X568142Y666110D01*
X566402Y663505D01*
X565791Y660433D01*
X566402Y657361D01*
X568142Y654756D01*
X570747Y653016D01*
X573819Y652405D01*
X576891Y653016D01*
X579496Y654756D01*
X581236Y657361D01*
X581847Y660433D01*
X581236Y663505D01*
X579496Y666110D01*
X576891Y667850D01*
X573819Y668461D01*
D02*
G37*
G36*
X326771Y666494D02*
X323699Y665883D01*
X321094Y664143D01*
X319354Y661538D01*
X318743Y658466D01*
X319354Y655394D01*
X321094Y652789D01*
X323699Y651049D01*
X326771Y650438D01*
X329844Y651049D01*
X332448Y652789D01*
X334189Y655394D01*
X334800Y658466D01*
X334189Y661538D01*
X332448Y664143D01*
X329844Y665883D01*
X326771Y666494D01*
D02*
G37*
G36*
X378937Y670468D02*
X375097Y669704D01*
X371841Y667529D01*
X369666Y664273D01*
X368902Y660433D01*
X369666Y656593D01*
X371841Y653337D01*
X375097Y651162D01*
X378937Y650398D01*
X382777Y651162D01*
X386033Y653337D01*
X388209Y656593D01*
X388972Y660433D01*
X388209Y664273D01*
X386033Y667529D01*
X382777Y669704D01*
X378937Y670468D01*
D02*
G37*
G36*
X423228Y658619D02*
X420156Y658008D01*
X417551Y656267D01*
X415811Y653663D01*
X415200Y650591D01*
X415811Y647518D01*
X417551Y644914D01*
X420156Y643173D01*
X423228Y642562D01*
X426301Y643173D01*
X428905Y644914D01*
X430646Y647518D01*
X431257Y650591D01*
X430646Y653663D01*
X428905Y656267D01*
X426301Y658008D01*
X423228Y658619D01*
D02*
G37*
G36*
X79724Y646808D02*
X76652Y646197D01*
X74047Y644456D01*
X72307Y641852D01*
X71696Y638779D01*
X72307Y635707D01*
X74047Y633103D01*
X76652Y631362D01*
X79724Y630751D01*
X82797Y631362D01*
X85401Y633103D01*
X87142Y635707D01*
X87753Y638779D01*
X87142Y641852D01*
X85401Y644456D01*
X82797Y646197D01*
X79724Y646808D01*
D02*
G37*
G36*
X636811Y636965D02*
X633739Y636354D01*
X631134Y634614D01*
X629394Y632009D01*
X628783Y628937D01*
X629394Y625865D01*
X631134Y623260D01*
X633739Y621520D01*
X636811Y620909D01*
X639883Y621520D01*
X642488Y623260D01*
X644228Y625865D01*
X644839Y628937D01*
X644228Y632009D01*
X642488Y634614D01*
X639883Y636354D01*
X636811Y636965D01*
D02*
G37*
G36*
X605315D02*
X602243Y636354D01*
X599638Y634614D01*
X597898Y632009D01*
X597287Y628937D01*
X597898Y625865D01*
X599638Y623260D01*
X602243Y621520D01*
X605315Y620909D01*
X608387Y621520D01*
X610992Y623260D01*
X612732Y625865D01*
X613343Y628937D01*
X612732Y632009D01*
X610992Y634614D01*
X608387Y636354D01*
X605315Y636965D01*
D02*
G37*
G36*
X542323D02*
X539250Y636354D01*
X536646Y634614D01*
X534906Y632009D01*
X534294Y628937D01*
X534906Y625865D01*
X536646Y623260D01*
X539250Y621520D01*
X542323Y620909D01*
X545395Y621520D01*
X548000Y623260D01*
X549740Y625865D01*
X550351Y628937D01*
X549740Y632009D01*
X548000Y634614D01*
X545395Y636354D01*
X542323Y636965D01*
D02*
G37*
G36*
X510827D02*
X507755Y636354D01*
X505150Y634614D01*
X503410Y632009D01*
X502798Y628937D01*
X503410Y625865D01*
X505150Y623260D01*
X507755Y621520D01*
X510827Y620909D01*
X513899Y621520D01*
X516504Y623260D01*
X518244Y625865D01*
X518855Y628937D01*
X518244Y632009D01*
X516504Y634614D01*
X513899Y636354D01*
X510827Y636965D01*
D02*
G37*
G36*
X479331D02*
X476258Y636354D01*
X473654Y634614D01*
X471913Y632009D01*
X471302Y628937D01*
X471913Y625865D01*
X473654Y623260D01*
X476258Y621520D01*
X479331Y620909D01*
X482403Y621520D01*
X485008Y623260D01*
X486748Y625865D01*
X487359Y628937D01*
X486748Y632009D01*
X485008Y634614D01*
X482403Y636354D01*
X479331Y636965D01*
D02*
G37*
G36*
X351379Y634998D02*
X348307Y634387D01*
X345702Y632647D01*
X343962Y630042D01*
X343351Y626970D01*
X343962Y623898D01*
X345702Y621293D01*
X348307Y619553D01*
X351379Y618942D01*
X354451Y619553D01*
X357056Y621293D01*
X358796Y623898D01*
X359407Y626970D01*
X358796Y630042D01*
X357056Y632647D01*
X354451Y634387D01*
X351379Y634998D01*
D02*
G37*
G36*
X327756Y619250D02*
X324683Y618639D01*
X322079Y616899D01*
X320339Y614294D01*
X319727Y611222D01*
X320339Y608149D01*
X322079Y605545D01*
X324683Y603805D01*
X327756Y603193D01*
X330828Y603805D01*
X333433Y605545D01*
X335173Y608149D01*
X335784Y611222D01*
X335173Y614294D01*
X333433Y616899D01*
X330828Y618639D01*
X327756Y619250D01*
D02*
G37*
G36*
X61024Y613345D02*
X57951Y612734D01*
X55347Y610994D01*
X53606Y608389D01*
X52995Y605317D01*
X53606Y602245D01*
X55347Y599640D01*
X57951Y597900D01*
X61024Y597289D01*
X64096Y597900D01*
X66701Y599640D01*
X68441Y602245D01*
X69052Y605317D01*
X68441Y608389D01*
X66701Y610994D01*
X64096Y612734D01*
X61024Y613345D01*
D02*
G37*
G36*
X479331Y605469D02*
X476258Y604858D01*
X473654Y603118D01*
X471913Y600513D01*
X471302Y597441D01*
X471913Y594369D01*
X473654Y591764D01*
X476258Y590024D01*
X479331Y589413D01*
X482403Y590024D01*
X485008Y591764D01*
X486748Y594369D01*
X487359Y597441D01*
X486748Y600513D01*
X485008Y603118D01*
X482403Y604858D01*
X479331Y605469D01*
D02*
G37*
G36*
X425197Y597596D02*
X422125Y596984D01*
X419520Y595244D01*
X417780Y592639D01*
X417169Y589567D01*
X417780Y586495D01*
X419520Y583890D01*
X422125Y582150D01*
X425197Y581539D01*
X428269Y582150D01*
X430874Y583890D01*
X432614Y586495D01*
X433225Y589567D01*
X432614Y592639D01*
X430874Y595244D01*
X428269Y596984D01*
X425197Y597596D01*
D02*
G37*
G36*
X479331Y573973D02*
X476258Y573362D01*
X473654Y571622D01*
X471913Y569017D01*
X471302Y565945D01*
X471913Y562873D01*
X473654Y560268D01*
X476258Y558528D01*
X479331Y557917D01*
X482403Y558528D01*
X485008Y560268D01*
X486748Y562873D01*
X487359Y565945D01*
X486748Y569017D01*
X485008Y571622D01*
X482403Y573362D01*
X479331Y573973D01*
D02*
G37*
G36*
X351379Y603502D02*
X348307Y602891D01*
X345702Y601151D01*
X343962Y598546D01*
X343351Y595474D01*
X343962Y592401D01*
X345702Y589797D01*
Y585403D01*
X343962Y582798D01*
X343351Y579726D01*
X343962Y576653D01*
X345702Y574049D01*
X345718Y569638D01*
X343978Y567034D01*
X343367Y563962D01*
X343978Y560889D01*
X345718Y558285D01*
X348323Y556544D01*
X351395Y555933D01*
X354467Y556544D01*
X357072Y558285D01*
X358812Y560889D01*
X359423Y563962D01*
X358812Y567034D01*
X357072Y569638D01*
X357056Y574049D01*
X358796Y576653D01*
X359407Y579726D01*
X358796Y582798D01*
X357056Y585403D01*
Y589797D01*
X358796Y592401D01*
X359407Y595474D01*
X358796Y598546D01*
X357056Y601151D01*
X354451Y602891D01*
X351379Y603502D01*
D02*
G37*
G36*
X423228Y560192D02*
X420156Y559581D01*
X417551Y557841D01*
X415811Y555236D01*
X415200Y552164D01*
X415811Y549092D01*
X417551Y546487D01*
X420156Y544747D01*
X423228Y544136D01*
X426301Y544747D01*
X428905Y546487D01*
X430646Y549092D01*
X431257Y552164D01*
X430646Y555236D01*
X428905Y557841D01*
X426301Y559581D01*
X423228Y560192D01*
D02*
G37*
G36*
X105906Y540509D02*
X102833Y539898D01*
X100229Y538157D01*
X98488Y535553D01*
X97877Y532480D01*
X98488Y529408D01*
X100229Y526803D01*
X102833Y525063D01*
X105906Y524452D01*
X108978Y525063D01*
X111582Y526803D01*
X113323Y529408D01*
X113934Y532480D01*
X113323Y535553D01*
X111582Y538157D01*
X108978Y539898D01*
X105906Y540509D01*
D02*
G37*
G36*
X351379Y539525D02*
X348307Y538914D01*
X345702Y537173D01*
X343962Y534569D01*
X343351Y531496D01*
X343962Y528424D01*
X345702Y525820D01*
X348307Y524079D01*
X351379Y523468D01*
X354451Y524079D01*
X357056Y525820D01*
X358796Y528424D01*
X359407Y531496D01*
X358796Y534569D01*
X357056Y537173D01*
X354451Y538914D01*
X351379Y539525D01*
D02*
G37*
G36*
X212599Y434210D02*
X209526Y433599D01*
X206922Y431858D01*
X205372Y429539D01*
X203153Y429254D01*
X202359D01*
X200140Y429539D01*
X198590Y431858D01*
X195986Y433599D01*
X192913Y434210D01*
X189841Y433599D01*
X187237Y431858D01*
X185496Y429254D01*
X184885Y426182D01*
X185496Y423109D01*
X187237Y420505D01*
X189841Y418764D01*
X192913Y418153D01*
X195986Y418764D01*
X198590Y420505D01*
X200140Y422824D01*
X202359Y423109D01*
X203153D01*
X205372Y422824D01*
X206922Y420505D01*
X209526Y418764D01*
X212599Y418153D01*
X215671Y418764D01*
X218275Y420505D01*
X220016Y423109D01*
X220627Y426182D01*
X220016Y429254D01*
X218275Y431858D01*
X215671Y433599D01*
X212599Y434210D01*
D02*
G37*
G36*
X259842Y434210D02*
X256770Y433599D01*
X254166Y431858D01*
X252616Y429539D01*
X250397Y429254D01*
X249603D01*
X247384Y429539D01*
X245834Y431858D01*
X243230Y433599D01*
X240157Y434210D01*
X237085Y433599D01*
X234481Y431858D01*
X232740Y429254D01*
X232129Y426181D01*
X232740Y423109D01*
X234481Y420504D01*
X237085Y418764D01*
X240157Y418153D01*
X243230Y418764D01*
X245834Y420504D01*
X247384Y422824D01*
X249603Y423109D01*
X250397D01*
X252616Y422824D01*
X254166Y420504D01*
X256770Y418764D01*
X259842Y418153D01*
X262915Y418764D01*
X265519Y420504D01*
X267260Y423109D01*
X267871Y426181D01*
X267260Y429254D01*
X265519Y431858D01*
X262915Y433599D01*
X259842Y434210D01*
D02*
G37*
G36*
X287402D02*
X284329Y433599D01*
X281725Y431858D01*
X279985Y429254D01*
X279373Y426181D01*
X279985Y423109D01*
X281725Y420504D01*
X284329Y418764D01*
X287402Y418153D01*
X290474Y418764D01*
X293079Y420504D01*
X294819Y423109D01*
X295430Y426181D01*
X294819Y429254D01*
X293079Y431858D01*
X290474Y433599D01*
X287402Y434210D01*
D02*
G37*
G36*
X904528Y744248D02*
X901455Y743637D01*
X898851Y741897D01*
X897111Y739292D01*
X896499Y736220D01*
X897111Y733148D01*
X898851Y730543D01*
X901455Y728803D01*
X904528Y728192D01*
X907600Y728803D01*
X910205Y730543D01*
X911945Y733148D01*
X912556Y736220D01*
X911945Y739292D01*
X910205Y741897D01*
X907600Y743637D01*
X904528Y744248D01*
D02*
G37*
G36*
X904528Y696020D02*
X901455Y695409D01*
X898851Y693669D01*
X897110Y691064D01*
X896499Y687992D01*
X897110Y684920D01*
X898851Y682315D01*
X901455Y680575D01*
X904528Y679964D01*
X907600Y680575D01*
X910205Y682315D01*
X911945Y684920D01*
X912556Y687992D01*
X911945Y691064D01*
X910205Y693669D01*
X907600Y695409D01*
X904528Y696020D01*
D02*
G37*
G36*
Y667476D02*
X901455Y666865D01*
X898851Y665125D01*
X897110Y662520D01*
X896499Y659448D01*
X897110Y656376D01*
X898851Y653771D01*
X901455Y652031D01*
X904528Y651420D01*
X907600Y652031D01*
X910205Y653771D01*
X911945Y656376D01*
X912556Y659448D01*
X911945Y662520D01*
X910205Y665125D01*
X907600Y666865D01*
X904528Y667476D01*
D02*
G37*
G36*
X560039Y579879D02*
X556967Y579268D01*
X554362Y577527D01*
X552622Y574923D01*
X552435Y573983D01*
X550587Y572999D01*
X547246Y572125D01*
X545395Y573362D01*
X542323Y573973D01*
X539250Y573362D01*
X536646Y571622D01*
X534906Y569017D01*
X534294Y565945D01*
X534906Y562873D01*
X536646Y560268D01*
X539250Y558528D01*
X542323Y557917D01*
X545395Y558528D01*
X548000Y560268D01*
X548463Y560962D01*
X552622Y558190D01*
X552011Y555118D01*
X552622Y552046D01*
X554362Y549441D01*
X553378Y546031D01*
X551638Y543427D01*
X551027Y540354D01*
X551638Y537282D01*
X553378Y534677D01*
X555983Y532937D01*
X559055Y532326D01*
X562127Y532937D01*
X566402Y531376D01*
X568142Y528772D01*
X570747Y527032D01*
X573819Y526420D01*
X576891Y527032D01*
X579496Y528772D01*
X581236Y531376D01*
X581847Y534449D01*
X581236Y537521D01*
X579496Y540126D01*
X576891Y541866D01*
X573819Y542477D01*
X570747Y541866D01*
X566472Y543427D01*
X564732Y546031D01*
X565716Y549441D01*
X567457Y552046D01*
X568068Y555118D01*
X567457Y558190D01*
X566010Y560356D01*
X565716Y560795D01*
Y566173D01*
X566010Y566612D01*
X567457Y568778D01*
X568068Y571850D01*
X567457Y574923D01*
X565716Y577527D01*
X563112Y579268D01*
X560039Y579879D01*
D02*
G37*
G36*
X668307Y576926D02*
X665235Y576315D01*
X662630Y574575D01*
X660890Y571970D01*
X660279Y568898D01*
X660890Y565826D01*
X662630Y563221D01*
X665235Y561481D01*
X668307Y560870D01*
X671379Y561481D01*
X673984Y563221D01*
X675724Y565826D01*
X676335Y568898D01*
X675724Y571970D01*
X673984Y574575D01*
X671379Y576315D01*
X668307Y576926D01*
D02*
G37*
G36*
X731299Y573973D02*
X728227Y573362D01*
X725622Y571622D01*
X723882Y569017D01*
X723271Y565945D01*
X723882Y562873D01*
X725622Y560268D01*
X728227Y558528D01*
X731299Y557917D01*
X734371Y558528D01*
X736976Y560268D01*
X738716Y562873D01*
X739327Y565945D01*
X738716Y569017D01*
X736976Y571622D01*
X734371Y573362D01*
X731299Y573973D01*
D02*
G37*
G36*
X699803D02*
X696731Y573362D01*
X694126Y571622D01*
X692386Y569017D01*
X691775Y565945D01*
X692386Y562873D01*
X694126Y560268D01*
X696731Y558528D01*
X699803Y557917D01*
X702875Y558528D01*
X705480Y560268D01*
X707220Y562873D01*
X707831Y565945D01*
X707220Y569017D01*
X705480Y571622D01*
X702875Y573362D01*
X699803Y573973D01*
D02*
G37*
G36*
X594517Y559275D02*
X590677Y558511D01*
X587421Y556335D01*
X585246Y553080D01*
X584482Y549239D01*
X585246Y545399D01*
X587421Y542143D01*
X590677Y539968D01*
X594517Y539204D01*
X598357Y539968D01*
X601613Y542143D01*
X602186Y543001D01*
X605552Y544942D01*
X608524Y544170D01*
X609132Y543764D01*
X612205Y543153D01*
X615277Y543764D01*
X617881Y545504D01*
X619622Y548109D01*
X620233Y551181D01*
X619622Y554253D01*
X617881Y556858D01*
X615277Y558598D01*
X612205Y559209D01*
X609132Y558598D01*
X607046Y557204D01*
X606528Y556858D01*
X606527Y556858D01*
X605197Y556716D01*
X600623Y556997D01*
X598357Y558511D01*
X594517Y559275D01*
D02*
G37*
G36*
X791339Y558223D02*
X788266Y557612D01*
X785662Y555872D01*
X783922Y553268D01*
X783310Y550195D01*
X783922Y547123D01*
X785662Y544518D01*
X788266Y542778D01*
X791339Y542167D01*
X794411Y542778D01*
X797016Y544518D01*
X798756Y547123D01*
X799367Y550195D01*
X798756Y553268D01*
X797016Y555872D01*
X794411Y557612D01*
X791339Y558223D01*
D02*
G37*
G36*
X652559Y542477D02*
X649487Y541866D01*
X646882Y540125D01*
X645142Y537521D01*
X644731Y535455D01*
X642508Y533480D01*
X639876Y532220D01*
X637795Y532634D01*
X634723Y532023D01*
X632118Y530283D01*
X630378Y527678D01*
X629767Y524606D01*
X630378Y521534D01*
X632118Y518929D01*
X634723Y517189D01*
X637795Y516577D01*
X640868Y517189D01*
X643472Y518929D01*
X645212Y521534D01*
X645623Y523599D01*
X647847Y525574D01*
X650478Y526834D01*
X652559Y526420D01*
X655631Y527031D01*
X658236Y528772D01*
X659976Y531376D01*
X660587Y534449D01*
X659976Y537521D01*
X658236Y540125D01*
X655631Y541866D01*
X652559Y542477D01*
D02*
G37*
G36*
X510827Y542477D02*
X507755Y541866D01*
X505150Y540126D01*
X503410Y537521D01*
X502798Y534449D01*
X503410Y531376D01*
X505150Y528772D01*
X507755Y527032D01*
X510827Y526420D01*
X513899Y527032D01*
X516504Y528772D01*
X518244Y531376D01*
X518855Y534449D01*
X518244Y537521D01*
X516504Y540126D01*
X513899Y541866D01*
X510827Y542477D01*
D02*
G37*
G36*
X791339Y526727D02*
X788266Y526116D01*
X785662Y524376D01*
X783922Y521771D01*
X783310Y518699D01*
X783922Y515627D01*
X785662Y513022D01*
X788266Y511282D01*
X791339Y510671D01*
X794411Y511282D01*
X797016Y513022D01*
X798756Y515627D01*
X799367Y518699D01*
X798756Y521771D01*
X797016Y524376D01*
X794411Y526116D01*
X791339Y526727D01*
D02*
G37*
G36*
X742126Y539524D02*
X739053Y538913D01*
X736449Y537173D01*
X734709Y534568D01*
X734097Y531496D01*
X734709Y528424D01*
X736449Y525819D01*
X739053Y524079D01*
X742126Y523468D01*
X744198Y523880D01*
X744671Y523647D01*
X746932Y521696D01*
X748142Y520033D01*
X747877Y518699D01*
X748488Y515627D01*
X750229Y513022D01*
X752833Y511282D01*
X755905Y510671D01*
X758978Y511282D01*
X761582Y513022D01*
X763323Y515627D01*
X763934Y518699D01*
X763323Y521771D01*
X761582Y524376D01*
X758978Y526116D01*
X755905Y526727D01*
X753834Y526315D01*
X753360Y526548D01*
X751099Y528500D01*
X749889Y530163D01*
X750154Y531496D01*
X749543Y534568D01*
X747803Y537173D01*
X745198Y538913D01*
X742126Y539524D01*
D02*
G37*
G36*
X699803Y510981D02*
X696731Y510370D01*
X694126Y508630D01*
X692386Y506025D01*
X691775Y502953D01*
X692386Y499880D01*
X694126Y497276D01*
X696731Y495536D01*
X699803Y494925D01*
X702875Y495536D01*
X705480Y497276D01*
X707220Y499880D01*
X707831Y502953D01*
X707220Y506025D01*
X705480Y508630D01*
X702875Y510370D01*
X699803Y510981D01*
D02*
G37*
G36*
X670275Y530666D02*
X667203Y530055D01*
X664599Y528315D01*
X662858Y525710D01*
X662247Y522638D01*
X662858Y519565D01*
X664599Y516961D01*
X666466Y515713D01*
X666529Y512710D01*
X665938Y510510D01*
X665235Y510370D01*
X662630Y508630D01*
X660890Y506025D01*
X660279Y502953D01*
X660890Y499880D01*
X662630Y497276D01*
X665235Y495536D01*
X668307Y494925D01*
X671379Y495536D01*
X673984Y497276D01*
X675724Y499880D01*
X676335Y502953D01*
X675724Y506025D01*
X673984Y508630D01*
X672116Y509878D01*
X672054Y512881D01*
X672644Y515081D01*
X673348Y515221D01*
X675952Y516961D01*
X677693Y519565D01*
X678304Y522638D01*
X677693Y525710D01*
X675952Y528315D01*
X673348Y530055D01*
X670275Y530666D01*
D02*
G37*
G36*
X636811Y510981D02*
X633739Y510370D01*
X631134Y508630D01*
X629394Y506025D01*
X628783Y502953D01*
X629394Y499880D01*
X631134Y497276D01*
X633739Y495536D01*
X636811Y494925D01*
X639883Y495536D01*
X642488Y497276D01*
X644228Y499880D01*
X644839Y502953D01*
X644228Y506025D01*
X642488Y508630D01*
X639883Y510370D01*
X636811Y510981D01*
D02*
G37*
G36*
X542323D02*
X539250Y510370D01*
X536646Y508630D01*
X534906Y506025D01*
X534294Y502953D01*
X534906Y499880D01*
X536646Y497276D01*
X539250Y495536D01*
X542323Y494925D01*
X545395Y495536D01*
X548000Y497276D01*
X549740Y499880D01*
X550351Y502953D01*
X549740Y506025D01*
X548000Y508630D01*
X545395Y510370D01*
X542323Y510981D01*
D02*
G37*
G36*
X510827D02*
X507755Y510370D01*
X505150Y508630D01*
X503410Y506025D01*
X502798Y502953D01*
X503410Y499880D01*
X505150Y497276D01*
X507755Y495536D01*
X510827Y494925D01*
X513899Y495536D01*
X516504Y497276D01*
X518244Y499880D01*
X518855Y502953D01*
X518244Y506025D01*
X516504Y508630D01*
X513899Y510370D01*
X510827Y510981D01*
D02*
G37*
G36*
X605315Y508028D02*
X602243Y507417D01*
X599638Y505677D01*
X597898Y503072D01*
X597287Y500000D01*
X597898Y496928D01*
X599638Y494323D01*
X602243Y492583D01*
X605315Y491972D01*
X608387Y492583D01*
X610992Y494323D01*
X612732Y496928D01*
X613343Y500000D01*
X612732Y503072D01*
X610992Y505677D01*
X608387Y507417D01*
X605315Y508028D01*
D02*
G37*
G36*
X791339Y495231D02*
X788266Y494620D01*
X785662Y492880D01*
X783922Y490275D01*
X783311Y487203D01*
X783922Y484131D01*
X785662Y481526D01*
X788266Y479786D01*
X791339Y479175D01*
X794411Y479786D01*
X797016Y481526D01*
X798756Y484131D01*
X799367Y487203D01*
X798756Y490275D01*
X797016Y492880D01*
X794411Y494620D01*
X791339Y495231D01*
D02*
G37*
G36*
X684055Y479485D02*
X680983Y478874D01*
X678378Y477134D01*
X673984D01*
X671379Y478874D01*
X668307Y479485D01*
X665235Y478874D01*
X662630Y477134D01*
X660890Y474529D01*
X660279Y471457D01*
X660890Y468384D01*
X662630Y465780D01*
X665235Y464039D01*
X668307Y463428D01*
X671379Y464039D01*
X673984Y465780D01*
X678378D01*
X680983Y464039D01*
X684055Y463428D01*
X687127Y464039D01*
X689732Y465780D01*
X692192Y463834D01*
X694796Y462094D01*
X697869Y461483D01*
X700941Y462094D01*
X703546Y463834D01*
X705286Y466439D01*
X705897Y469511D01*
X705286Y472583D01*
X703546Y475188D01*
X700941Y476928D01*
X697869Y477539D01*
X694796Y476928D01*
X692192Y475188D01*
X689732Y477134D01*
X687127Y478874D01*
X684055Y479485D01*
D02*
G37*
G36*
X751968Y491294D02*
X748896Y490683D01*
X746291Y488943D01*
X744551Y486338D01*
X743940Y483266D01*
X744551Y480194D01*
X746291Y477589D01*
X748896Y475849D01*
X751968Y475238D01*
X755040Y475849D01*
X757645Y477589D01*
X759385Y480194D01*
X759996Y483266D01*
X759385Y486338D01*
X757645Y488943D01*
X755040Y490683D01*
X751968Y491294D01*
D02*
G37*
G36*
X636811Y479485D02*
X633739Y478874D01*
X631134Y477134D01*
X629394Y474529D01*
X628783Y471457D01*
X629394Y468384D01*
X631134Y465780D01*
X633739Y464039D01*
X636811Y463428D01*
X639883Y464039D01*
X642488Y465780D01*
X644228Y468384D01*
X644839Y471457D01*
X644228Y474529D01*
X642488Y477134D01*
X639883Y478874D01*
X636811Y479485D01*
D02*
G37*
G36*
X605315D02*
X602243Y478874D01*
X599638Y477134D01*
X597898Y474529D01*
X597287Y471457D01*
X597898Y468384D01*
X599638Y465780D01*
X602243Y464039D01*
X605315Y463428D01*
X608387Y464039D01*
X610992Y465780D01*
X612732Y468384D01*
X613343Y471457D01*
X612732Y474529D01*
X610992Y477134D01*
X608387Y478874D01*
X605315Y479485D01*
D02*
G37*
G36*
X542323D02*
X539250Y478874D01*
X536646Y477134D01*
X534906Y474529D01*
X534294Y471457D01*
X534906Y468384D01*
X536646Y465780D01*
X539250Y464039D01*
X542323Y463428D01*
X545395Y464039D01*
X548000Y465780D01*
X549740Y468384D01*
X550351Y471457D01*
X549740Y474529D01*
X548000Y477134D01*
X545395Y478874D01*
X542323Y479485D01*
D02*
G37*
G36*
X754958Y464743D02*
X751886Y464132D01*
X749281Y462392D01*
X747564Y459822D01*
X744399Y459161D01*
X742349Y459313D01*
X740949Y461408D01*
X738344Y463148D01*
X735272Y463759D01*
X732200Y463148D01*
X729595Y461408D01*
X727855Y458803D01*
X727244Y455731D01*
X727855Y452659D01*
X729595Y450054D01*
X732200Y448314D01*
X733660Y448023D01*
X734098Y446644D01*
X734188Y442820D01*
X732512Y441700D01*
X730772Y439096D01*
X730161Y436024D01*
X730772Y432951D01*
X732512Y430347D01*
X735117Y428606D01*
X738189Y427995D01*
X741261Y428606D01*
X743866Y430347D01*
X745606Y432951D01*
X746217Y436024D01*
X745606Y439096D01*
X743866Y441700D01*
X741261Y443441D01*
X739801Y443731D01*
X739363Y445110D01*
X739273Y448934D01*
X740949Y450054D01*
X742666Y452624D01*
X745832Y453286D01*
X747882Y453133D01*
X749281Y451038D01*
X751886Y449298D01*
X754958Y448687D01*
X758030Y449298D01*
X760635Y451038D01*
X762375Y453643D01*
X762986Y456715D01*
X762375Y459788D01*
X760635Y462392D01*
X758030Y464132D01*
X754958Y464743D01*
D02*
G37*
G36*
X787402Y463735D02*
X784329Y463124D01*
X781725Y461384D01*
X779984Y458779D01*
X779373Y455707D01*
X779984Y452635D01*
X781725Y450030D01*
X784329Y448290D01*
X787402Y447679D01*
X790474Y448290D01*
X793078Y450030D01*
X794819Y452635D01*
X795430Y455707D01*
X794819Y458779D01*
X793078Y461384D01*
X790474Y463124D01*
X787402Y463735D01*
D02*
G37*
G36*
X512795Y427320D02*
X509723Y426709D01*
X507118Y424968D01*
X505378Y422364D01*
X504767Y419291D01*
X505378Y416219D01*
X507118Y413614D01*
X509723Y411874D01*
X512795Y411263D01*
X515868Y411874D01*
X518472Y413614D01*
X520212Y416219D01*
X520824Y419291D01*
X520212Y422364D01*
X518472Y424968D01*
X515868Y426709D01*
X512795Y427320D01*
D02*
G37*
G36*
X747046Y410588D02*
X743974Y409976D01*
X741369Y408236D01*
X739629Y405632D01*
X739018Y402559D01*
X739629Y399487D01*
X741369Y396882D01*
X743974Y395142D01*
X747046Y394531D01*
X750118Y395142D01*
X752723Y396882D01*
X754463Y399487D01*
X755074Y402559D01*
X754463Y405632D01*
X752723Y408236D01*
X750118Y409976D01*
X747046Y410588D01*
D02*
G37*
G36*
X689961Y404682D02*
X686888Y404071D01*
X684284Y402330D01*
X682543Y399726D01*
X681932Y396654D01*
X682543Y393581D01*
X684284Y390977D01*
X686888Y389236D01*
X689011Y388814D01*
X689433Y386692D01*
X691173Y384087D01*
X693778Y382347D01*
X695901Y381924D01*
X696323Y379802D01*
X698063Y377197D01*
X700668Y375457D01*
X702790Y375035D01*
X703213Y372912D01*
X704953Y370307D01*
X707558Y368567D01*
X710630Y367956D01*
X713702Y368567D01*
X716307Y370307D01*
X718047Y372912D01*
X718658Y375984D01*
X718047Y379057D01*
X716307Y381661D01*
X713702Y383401D01*
X711580Y383824D01*
X711157Y385946D01*
X709417Y388551D01*
X706812Y390291D01*
X704690Y390713D01*
X704268Y392836D01*
X702527Y395441D01*
X699923Y397181D01*
X697800Y397603D01*
X697378Y399726D01*
X695638Y402330D01*
X693033Y404071D01*
X689961Y404682D01*
D02*
G37*
G36*
X598819Y329639D02*
X592674Y328417D01*
X587465Y324936D01*
X583985Y319727D01*
X582762Y313582D01*
X583985Y307438D01*
X587465Y302229D01*
X592674Y298748D01*
X598819Y297526D01*
X604963Y298748D01*
X610173Y302229D01*
X613653Y307438D01*
X614875Y313582D01*
X613653Y319727D01*
X610173Y324936D01*
X604963Y328417D01*
X598819Y329639D01*
D02*
G37*
G36*
X1068898Y558225D02*
X1065825Y557614D01*
X1063221Y555874D01*
X1061671Y553555D01*
X1059452Y553269D01*
X1058658D01*
X1056439Y553555D01*
X1054889Y555874D01*
X1052285Y557614D01*
X1049213Y558225D01*
X1046140Y557614D01*
X1043536Y555874D01*
X1041795Y553269D01*
X1041184Y550197D01*
X1041795Y547125D01*
X1043536Y544520D01*
X1046140Y542780D01*
X1049213Y542169D01*
X1052285Y542780D01*
X1054889Y544520D01*
X1056439Y546839D01*
X1058658Y547125D01*
X1059452D01*
X1061671Y546839D01*
X1063221Y544520D01*
X1065825Y542780D01*
X1068898Y542169D01*
X1071970Y542780D01*
X1074574Y544520D01*
X1076315Y547125D01*
X1076926Y550197D01*
X1076315Y553269D01*
X1074574Y555874D01*
X1071970Y557614D01*
X1068898Y558225D01*
D02*
G37*
G36*
X944882Y526727D02*
X941809Y526116D01*
X939205Y524376D01*
X937465Y521771D01*
X936854Y518699D01*
X937465Y515627D01*
X939205Y513022D01*
X941809Y511282D01*
X944882Y510671D01*
X947954Y511282D01*
X950559Y513022D01*
X952299Y515627D01*
X952910Y518699D01*
X952299Y521771D01*
X950559Y524376D01*
X947954Y526116D01*
X944882Y526727D01*
D02*
G37*
G36*
X1068898Y534642D02*
X1065057Y533878D01*
X1061802Y531702D01*
X1042117Y512017D01*
X1039941Y508762D01*
X1039177Y504921D01*
Y439960D01*
X1039941Y436120D01*
X1042117Y432864D01*
X1045372Y430689D01*
X1049213Y429925D01*
X1053053Y430689D01*
X1056309Y432864D01*
X1057281Y434320D01*
X1062642Y434715D01*
X1063017Y434589D01*
X1063221Y434283D01*
X1065825Y432543D01*
X1068898Y431932D01*
X1071970Y432543D01*
X1074574Y434283D01*
X1076315Y436888D01*
X1076926Y439960D01*
X1076315Y443033D01*
X1074574Y445637D01*
X1071970Y447377D01*
X1068898Y447988D01*
X1065825Y447377D01*
X1064248Y446324D01*
X1060600Y447551D01*
X1059248Y448538D01*
Y500765D01*
X1075994Y517510D01*
X1078169Y520766D01*
X1078933Y524606D01*
X1078169Y528447D01*
X1075994Y531702D01*
X1072738Y533878D01*
X1068898Y534642D01*
D02*
G37*
G36*
X921260Y441099D02*
X918188Y440488D01*
X915583Y438748D01*
X913843Y436143D01*
X913231Y433071D01*
X913843Y429999D01*
X915583Y427394D01*
X918188Y425654D01*
X921260Y425043D01*
X924332Y425654D01*
X926937Y427394D01*
X928677Y429999D01*
X929288Y433071D01*
X928677Y436143D01*
X926937Y438748D01*
X924332Y440488D01*
X921260Y441099D01*
D02*
G37*
G36*
X1068898Y422398D02*
X1065825Y421787D01*
X1063221Y420047D01*
X1061671Y417727D01*
X1059452Y417442D01*
X1058658D01*
X1056439Y417727D01*
X1054889Y420047D01*
X1052285Y421787D01*
X1049213Y422398D01*
X1046140Y421787D01*
X1043536Y420047D01*
X1041795Y417442D01*
X1041184Y414370D01*
X1041795Y411298D01*
X1043536Y408693D01*
X1046140Y406953D01*
X1049213Y406341D01*
X1052285Y406953D01*
X1054889Y408693D01*
X1056439Y411012D01*
X1058658Y411297D01*
X1059452D01*
X1061671Y411012D01*
X1063221Y408693D01*
X1065825Y406953D01*
X1068898Y406341D01*
X1071970Y406953D01*
X1074574Y408693D01*
X1076315Y411298D01*
X1076926Y414370D01*
X1076315Y417442D01*
X1074574Y420047D01*
X1071970Y421787D01*
X1068898Y422398D01*
D02*
G37*
G36*
X944882Y428302D02*
X941809Y427691D01*
X939205Y425951D01*
X937465Y423346D01*
X936854Y420274D01*
X937465Y417201D01*
X939205Y414597D01*
X941809Y412856D01*
X944882Y412245D01*
X947954Y412856D01*
X950559Y414597D01*
X952299Y417201D01*
X952910Y420274D01*
X952299Y423346D01*
X950559Y425951D01*
X947954Y427691D01*
X944882Y428302D01*
D02*
G37*
G36*
X1012795Y426335D02*
X1009723Y425724D01*
X1007119Y423984D01*
X1005378Y421379D01*
X1004767Y418307D01*
X1005378Y415235D01*
X1007119Y412630D01*
X1009723Y410890D01*
X1012795Y410279D01*
X1015868Y410890D01*
X1018472Y412630D01*
X1020213Y415235D01*
X1020824Y418307D01*
X1020213Y421379D01*
X1018472Y423984D01*
X1015868Y425724D01*
X1012795Y426335D01*
D02*
G37*
G36*
X909449Y416493D02*
X906376Y415882D01*
X903772Y414141D01*
X902032Y411537D01*
X901420Y408464D01*
X902032Y405392D01*
X903772Y402788D01*
X906376Y401047D01*
X909449Y400436D01*
X912521Y401047D01*
X915126Y402788D01*
X916866Y405392D01*
X917477Y408464D01*
X916866Y411537D01*
X915126Y414141D01*
X912521Y415882D01*
X909449Y416493D01*
D02*
G37*
G36*
X1012795Y400745D02*
X1009723Y400134D01*
X1007118Y398393D01*
X1005378Y395789D01*
X1004767Y392716D01*
X1005378Y389644D01*
X1007118Y387040D01*
X1009723Y385299D01*
X1012795Y384688D01*
X1015867Y385299D01*
X1018472Y387040D01*
X1020212Y389644D01*
X1020823Y392716D01*
X1020212Y395789D01*
X1018472Y398393D01*
X1015867Y400134D01*
X1012795Y400745D01*
D02*
G37*
G36*
X1049213Y396807D02*
X1046140Y396196D01*
X1043536Y394456D01*
X1041795Y391851D01*
X1041184Y388779D01*
X1041795Y385707D01*
X1043536Y383102D01*
X1046140Y381362D01*
X1049213Y380751D01*
X1052285Y381362D01*
X1054889Y383102D01*
X1056630Y385707D01*
X1057241Y388779D01*
X1056630Y391851D01*
X1054889Y394456D01*
X1052285Y396196D01*
X1049213Y396807D01*
D02*
G37*
G36*
X964614Y385015D02*
X961542Y384404D01*
X958937Y382664D01*
X957197Y380059D01*
X956586Y376987D01*
X957197Y373915D01*
X958937Y371310D01*
X961542Y369570D01*
X964614Y368959D01*
X967686Y369570D01*
X970291Y371310D01*
X972031Y373915D01*
X972642Y376987D01*
X972031Y380059D01*
X970291Y382664D01*
X967686Y384404D01*
X964614Y385015D01*
D02*
G37*
G36*
X1012795Y375154D02*
X1009723Y374543D01*
X1007118Y372803D01*
X1005378Y370198D01*
X1004767Y367126D01*
X1005378Y364054D01*
X1007118Y361449D01*
X1009723Y359709D01*
X1012795Y359098D01*
X1015867Y359709D01*
X1018472Y361449D01*
X1020212Y364054D01*
X1020823Y367126D01*
X1020212Y370198D01*
X1018472Y372803D01*
X1015867Y374543D01*
X1012795Y375154D01*
D02*
G37*
G36*
X1049213Y371217D02*
X1046140Y370606D01*
X1043536Y368865D01*
X1041795Y366261D01*
X1041184Y363189D01*
X1041795Y360116D01*
X1043536Y357512D01*
X1046140Y355771D01*
X1049213Y355160D01*
X1052285Y355771D01*
X1054889Y357512D01*
X1056630Y360116D01*
X1057241Y363189D01*
X1056630Y366261D01*
X1054889Y368865D01*
X1052285Y370606D01*
X1049213Y371217D01*
D02*
G37*
G36*
X909449Y385981D02*
X906376Y385370D01*
X903772Y383630D01*
X902032Y381025D01*
X901420Y377953D01*
X902032Y374880D01*
X903772Y372276D01*
X905266Y371277D01*
X906462Y369132D01*
X906692Y365375D01*
X905968Y364291D01*
X905357Y361219D01*
X905968Y358147D01*
X907709Y355542D01*
X910313Y353802D01*
X913386Y353190D01*
X916458Y353802D01*
X919063Y355542D01*
X920803Y358147D01*
X921414Y361219D01*
X920803Y364291D01*
X919063Y366896D01*
X917568Y367894D01*
X916372Y370040D01*
X916142Y373797D01*
X916866Y374880D01*
X917477Y377953D01*
X916866Y381025D01*
X915126Y383630D01*
X912521Y385370D01*
X909449Y385981D01*
D02*
G37*
G36*
X934055Y354485D02*
X930983Y353874D01*
X928378Y352134D01*
X926638Y349529D01*
X926027Y346457D01*
X926638Y343384D01*
X928378Y340780D01*
X930983Y339039D01*
X934055Y338428D01*
X937127Y339039D01*
X939732Y340780D01*
X941472Y343384D01*
X942083Y346457D01*
X941472Y349529D01*
X939732Y352134D01*
X937127Y353874D01*
X934055Y354485D01*
D02*
G37*
G36*
X808071Y352517D02*
X804999Y351905D01*
X802394Y350165D01*
X800654Y347560D01*
X800043Y344488D01*
X800654Y341416D01*
X802394Y338811D01*
X804999Y337071D01*
X808071Y336460D01*
X811143Y337071D01*
X813748Y338811D01*
X815488Y341416D01*
X816099Y344488D01*
X815488Y347560D01*
X813748Y350165D01*
X811143Y351905D01*
X808071Y352517D01*
D02*
G37*
G36*
X985236Y351163D02*
X982164Y350552D01*
X979559Y348812D01*
X977819Y346207D01*
X977208Y343135D01*
X977819Y340063D01*
X979559Y337458D01*
X982164Y335718D01*
X985236Y335107D01*
X988309Y335718D01*
X990913Y337458D01*
X992654Y340063D01*
X993265Y343135D01*
X992654Y346207D01*
X990913Y348812D01*
X988309Y350552D01*
X985236Y351163D01*
D02*
G37*
G36*
X1049213Y345626D02*
X1046140Y345015D01*
X1043536Y343275D01*
X1041795Y340670D01*
X1041184Y337598D01*
X1041795Y334526D01*
X1043536Y331921D01*
X1046140Y330181D01*
X1049213Y329570D01*
X1052285Y330181D01*
X1054889Y331921D01*
X1056630Y334526D01*
X1057241Y337598D01*
X1056630Y340670D01*
X1054889Y343275D01*
X1052285Y345015D01*
X1049213Y345626D01*
D02*
G37*
G36*
X827756Y327909D02*
X824684Y327298D01*
X822079Y325558D01*
X820529Y323238D01*
X818310Y322953D01*
X817517D01*
X815298Y323238D01*
X813748Y325558D01*
X811143Y327298D01*
X808071Y327909D01*
X804999Y327298D01*
X802394Y325558D01*
X800654Y322953D01*
X800043Y319881D01*
X800654Y316808D01*
X802394Y314204D01*
X804999Y312464D01*
X808071Y311853D01*
X811143Y312464D01*
X813748Y314204D01*
X815298Y316523D01*
X817517Y316808D01*
X818310D01*
X820529Y316523D01*
X822079Y314204D01*
X824684Y312464D01*
X827756Y311853D01*
X830828Y312464D01*
X833433Y314204D01*
X835173Y316808D01*
X835784Y319881D01*
X835173Y322953D01*
X833433Y325558D01*
X830828Y327298D01*
X827756Y327909D01*
D02*
G37*
G36*
X913386Y337751D02*
X910313Y337140D01*
X907709Y335400D01*
X905968Y332795D01*
X905357Y329723D01*
X905968Y326650D01*
X907709Y324046D01*
X910313Y322305D01*
X913386Y321694D01*
X916458Y322305D01*
X919063Y324046D01*
X920803Y326650D01*
X921414Y329723D01*
X920803Y332795D01*
X919063Y335400D01*
X916458Y337140D01*
X913386Y337751D01*
D02*
G37*
G36*
X1012795Y323973D02*
X1009723Y323362D01*
X1007118Y321622D01*
X1005378Y319017D01*
X1004767Y315945D01*
X1005378Y312873D01*
X1007118Y310268D01*
X1009723Y308528D01*
X1012795Y307916D01*
X1015868Y308528D01*
X1018472Y310268D01*
X1020212Y312873D01*
X1020824Y315945D01*
X1020212Y319017D01*
X1018472Y321622D01*
X1015868Y323362D01*
X1012795Y323973D01*
D02*
G37*
G36*
X1049213Y320034D02*
X1046140Y319423D01*
X1043536Y317683D01*
X1041795Y315078D01*
X1041184Y312006D01*
X1041795Y308934D01*
X1043536Y306329D01*
X1046140Y304589D01*
X1049213Y303978D01*
X1052285Y304589D01*
X1054889Y306329D01*
X1056630Y308934D01*
X1057241Y312006D01*
X1056630Y315078D01*
X1054889Y317683D01*
X1052285Y319423D01*
X1049213Y320034D01*
D02*
G37*
G36*
X854331Y315115D02*
X851258Y314504D01*
X848654Y312764D01*
X846913Y310159D01*
X846302Y307087D01*
X846913Y304014D01*
X848654Y301410D01*
X851258Y299670D01*
X854331Y299058D01*
X857403Y299670D01*
X860008Y301410D01*
X861748Y304014D01*
X862359Y307087D01*
X861748Y310159D01*
X860008Y312764D01*
X857403Y314504D01*
X854331Y315115D01*
D02*
G37*
G36*
X944882Y306255D02*
X941809Y305644D01*
X939205Y303904D01*
X937465Y301299D01*
X936854Y298227D01*
X937465Y295154D01*
X939205Y292550D01*
X941809Y290810D01*
X944882Y290198D01*
X947954Y290810D01*
X950559Y292550D01*
X952299Y295154D01*
X952910Y298227D01*
X952299Y301299D01*
X950559Y303904D01*
X947954Y305644D01*
X944882Y306255D01*
D02*
G37*
G36*
X913386D02*
X910313Y305644D01*
X907709Y303904D01*
X905968Y301299D01*
X905357Y298227D01*
X905968Y295154D01*
X907709Y292550D01*
X910313Y290810D01*
X913386Y290198D01*
X916458Y290810D01*
X919063Y292550D01*
X920803Y295154D01*
X921414Y298227D01*
X920803Y301299D01*
X919063Y303904D01*
X916458Y305644D01*
X913386Y306255D01*
D02*
G37*
G36*
X783503Y302334D02*
X780431Y301723D01*
X777826Y299983D01*
X776086Y297378D01*
X775475Y294306D01*
X776086Y291233D01*
X777826Y288629D01*
X780431Y286889D01*
X783503Y286277D01*
X786575Y286889D01*
X789180Y288629D01*
X790920Y291233D01*
X791531Y294306D01*
X790920Y297378D01*
X789180Y299983D01*
X786575Y301723D01*
X783503Y302334D01*
D02*
G37*
G36*
X750000Y285587D02*
X746928Y284976D01*
X744323Y283236D01*
X742583Y280631D01*
X741972Y277559D01*
X742583Y274487D01*
X744323Y271882D01*
X746928Y270142D01*
X750000Y269531D01*
X753072Y270142D01*
X755677Y271882D01*
X757417Y274487D01*
X758028Y277559D01*
X757417Y280631D01*
X755677Y283236D01*
X753072Y284976D01*
X750000Y285587D01*
D02*
G37*
G36*
X864173Y284680D02*
X859565Y283764D01*
X855658Y281153D01*
X853048Y277246D01*
X852131Y272638D01*
X853048Y268029D01*
X855658Y264123D01*
X859565Y261512D01*
X864173Y260595D01*
X868782Y261512D01*
X872688Y264123D01*
X875299Y268029D01*
X876216Y272638D01*
X875299Y277246D01*
X872688Y281153D01*
X868782Y283764D01*
X864173Y284680D01*
D02*
G37*
G36*
X936024Y251138D02*
X932951Y250527D01*
X930347Y248787D01*
X927921D01*
X925316Y250527D01*
X922244Y251138D01*
X919172Y250527D01*
X916567Y248787D01*
X914827Y246182D01*
X914216Y243110D01*
X914827Y240038D01*
X916567Y237433D01*
X919172Y235693D01*
X922244Y235082D01*
X925316Y235693D01*
X927921Y237433D01*
X930347D01*
X932951Y235693D01*
X936024Y235082D01*
X939096Y235693D01*
X941701Y237433D01*
X943441Y240038D01*
X944052Y243110D01*
X943441Y246182D01*
X941701Y248787D01*
X939096Y250527D01*
X936024Y251138D01*
D02*
G37*
G36*
X958661Y233422D02*
X955589Y232811D01*
X952985Y231071D01*
X951244Y228466D01*
X950633Y225394D01*
X951244Y222321D01*
X952985Y219717D01*
X955589Y217976D01*
X958661Y217365D01*
X961734Y217976D01*
X964338Y219717D01*
X966079Y222321D01*
X966690Y225394D01*
X966079Y228466D01*
X964338Y231071D01*
X961734Y232811D01*
X958661Y233422D01*
D02*
G37*
G36*
X750984Y232438D02*
X747912Y231827D01*
X745307Y230086D01*
X743567Y227482D01*
X742956Y224409D01*
X743567Y221337D01*
X745307Y218732D01*
X747912Y216992D01*
X750984Y216381D01*
X754057Y216992D01*
X756661Y218732D01*
X758402Y221337D01*
X759013Y224409D01*
X758402Y227482D01*
X756661Y230086D01*
X754057Y231827D01*
X750984Y232438D01*
D02*
G37*
G36*
X900590Y211769D02*
X897518Y211158D01*
X894913Y209417D01*
X893173Y206813D01*
X892562Y203740D01*
X893173Y200668D01*
X894913Y198064D01*
X897518Y196323D01*
X900590Y195712D01*
X903663Y196323D01*
X906267Y198064D01*
X908008Y200668D01*
X908619Y203740D01*
X908008Y206813D01*
X906267Y209417D01*
X903663Y211158D01*
X900590Y211769D01*
D02*
G37*
G36*
X961661Y202920D02*
X958589Y202309D01*
X955984Y200568D01*
X954244Y197964D01*
X953633Y194891D01*
X954244Y191819D01*
X955984Y189214D01*
X958589Y187474D01*
X961661Y186863D01*
X964733Y187474D01*
X967338Y189214D01*
X969078Y191819D01*
X969689Y194891D01*
X969078Y197964D01*
X967338Y200568D01*
X964733Y202309D01*
X961661Y202920D01*
D02*
G37*
G36*
X787402Y148775D02*
X784329Y148164D01*
X781725Y146423D01*
X779984Y143819D01*
X779373Y140746D01*
X779984Y137674D01*
X781725Y135070D01*
X784329Y133329D01*
X787402Y132718D01*
X790474Y133329D01*
X793078Y135070D01*
X794819Y137674D01*
X795430Y140746D01*
X794819Y143819D01*
X793078Y146423D01*
X790474Y148164D01*
X787402Y148775D01*
D02*
G37*
G36*
X755905Y148775D02*
X752833Y148163D01*
X750229Y146423D01*
X748488Y143819D01*
X747877Y140746D01*
X748488Y137674D01*
X750229Y135069D01*
X752833Y133329D01*
X755905Y132718D01*
X758978Y133329D01*
X761582Y135069D01*
X763323Y137674D01*
X763934Y140746D01*
X763323Y143819D01*
X761582Y146423D01*
X758978Y148163D01*
X755905Y148775D01*
D02*
G37*
G36*
X1049213Y130151D02*
X1044604Y129235D01*
X1040697Y126624D01*
X1038087Y122718D01*
X1037170Y118109D01*
X1038087Y113501D01*
X1040697Y109594D01*
X1044604Y106983D01*
X1049213Y106067D01*
X1053821Y106983D01*
X1057728Y109594D01*
X1060338Y113501D01*
X1061255Y118109D01*
X1060338Y122718D01*
X1057728Y126624D01*
X1053821Y129235D01*
X1049213Y130151D01*
D02*
G37*
G36*
X787402Y85782D02*
X784329Y85171D01*
X781725Y83431D01*
X779984Y80826D01*
X779373Y77754D01*
X779984Y74682D01*
X781725Y72077D01*
X784329Y70337D01*
X787402Y69726D01*
X790474Y70337D01*
X793078Y72077D01*
X794819Y74682D01*
X795430Y77754D01*
X794819Y80826D01*
X793078Y83431D01*
X790474Y85171D01*
X787402Y85782D01*
D02*
G37*
G36*
X755905D02*
X752833Y85171D01*
X750229Y83431D01*
X748488Y80826D01*
X747877Y77754D01*
X748488Y74682D01*
X750229Y72077D01*
X752833Y70337D01*
X755905Y69726D01*
X758978Y70337D01*
X761582Y72077D01*
X763323Y74682D01*
X763934Y77754D01*
X763323Y80826D01*
X761582Y83431D01*
X758978Y85171D01*
X755905Y85782D01*
D02*
G37*
G36*
X957676Y72005D02*
X954604Y71394D01*
X951999Y69654D01*
X950259Y67049D01*
X949648Y63977D01*
X950259Y60904D01*
X951999Y58300D01*
X954604Y56559D01*
X957676Y55948D01*
X960749Y56559D01*
X963353Y58300D01*
X965093Y60904D01*
X965705Y63977D01*
X965093Y67049D01*
X963353Y69654D01*
X960749Y71394D01*
X957676Y72005D01*
D02*
G37*
G36*
X874016Y47398D02*
X870943Y46787D01*
X868339Y45047D01*
X866598Y42442D01*
X865987Y39370D01*
X866598Y36298D01*
X868339Y33693D01*
X870943Y31953D01*
X874016Y31342D01*
X877088Y31953D01*
X879693Y33693D01*
X881433Y36298D01*
X882044Y39370D01*
X881433Y42442D01*
X879693Y45047D01*
X877088Y46787D01*
X874016Y47398D01*
D02*
G37*
G36*
X795276D02*
X792203Y46787D01*
X789599Y45047D01*
X787858Y42442D01*
X787247Y39370D01*
X787858Y36298D01*
X789599Y33693D01*
X792203Y31953D01*
X795276Y31342D01*
X798348Y31953D01*
X800952Y33693D01*
X802693Y36298D01*
X803304Y39370D01*
X802693Y42442D01*
X800952Y45047D01*
X798348Y46787D01*
X795276Y47398D01*
D02*
G37*
G36*
X353346Y44446D02*
X350274Y43835D01*
X347669Y42094D01*
X345929Y39490D01*
X345318Y36417D01*
X345929Y33345D01*
X347669Y30741D01*
X350274Y29000D01*
X353346Y28389D01*
X356418Y29000D01*
X359023Y30741D01*
X360763Y33345D01*
X361375Y36417D01*
X360763Y39490D01*
X359023Y42094D01*
X356418Y43835D01*
X353346Y44446D01*
D02*
G37*
G36*
X248032D02*
X244959Y43835D01*
X242355Y42094D01*
X240614Y39490D01*
X240003Y36417D01*
X240614Y33345D01*
X242355Y30741D01*
X244959Y29000D01*
X248032Y28389D01*
X251104Y29000D01*
X253709Y30741D01*
X255449Y33345D01*
X256060Y36417D01*
X255449Y39490D01*
X253709Y42094D01*
X251104Y43835D01*
X248032Y44446D01*
D02*
G37*
G36*
X496063Y44446D02*
X492991Y43835D01*
X490386Y42094D01*
X488646Y39490D01*
X488035Y36417D01*
X488646Y33345D01*
X490386Y30741D01*
X492991Y29000D01*
X496063Y28389D01*
X499135Y29000D01*
X501740Y30741D01*
X503480Y33345D01*
X504091Y36417D01*
X503480Y39490D01*
X501740Y42094D01*
X499135Y43835D01*
X496063Y44446D01*
D02*
G37*
G36*
X645669Y44446D02*
X642597Y43834D01*
X639993Y42094D01*
X638252Y39490D01*
X637641Y36417D01*
X638252Y33345D01*
X639993Y30740D01*
X642597Y29000D01*
X645669Y28389D01*
X648742Y29000D01*
X651346Y30740D01*
X653087Y33345D01*
X653698Y36417D01*
X653087Y39490D01*
X651346Y42094D01*
X648742Y43834D01*
X645669Y44446D01*
D02*
G37*
G36*
X374213Y281651D02*
X371140Y281039D01*
X368536Y279299D01*
X366795Y276695D01*
X366184Y273622D01*
X366795Y270550D01*
X368536Y267945D01*
X371140Y266205D01*
X374213Y265594D01*
X377285Y266205D01*
X379889Y267945D01*
X381630Y270550D01*
X382241Y273622D01*
X381630Y276695D01*
X379889Y279299D01*
X377285Y281039D01*
X374213Y281651D01*
D02*
G37*
G36*
X270669Y252200D02*
X266061Y251283D01*
X262154Y248673D01*
X259544Y244766D01*
X258627Y240158D01*
X259544Y235549D01*
X262154Y231642D01*
X266061Y229032D01*
X270669Y228115D01*
X275278Y229032D01*
X279185Y231642D01*
X281795Y235549D01*
X282712Y240158D01*
X281795Y244766D01*
X279185Y248673D01*
X275278Y251283D01*
X270669Y252200D01*
D02*
G37*
G36*
X264567Y215898D02*
X183071D01*
X176158Y214523D01*
X170298Y210607D01*
X136046Y176355D01*
X132130Y170495D01*
X130755Y163583D01*
X132130Y156670D01*
X136046Y150810D01*
X141906Y146894D01*
X148819Y145519D01*
X155732Y146894D01*
X161592Y150810D01*
X190553Y179771D01*
X257084D01*
X286046Y150810D01*
X291906Y146894D01*
X298819Y145519D01*
X305732Y146894D01*
X311592Y150810D01*
X315507Y156670D01*
X316882Y163582D01*
X315507Y170495D01*
X311592Y176355D01*
X277340Y210607D01*
X271479Y214523D01*
X264567Y215898D01*
D02*
G37*
G36*
X498819Y121611D02*
X495747Y121000D01*
X493142Y119259D01*
X491402Y116655D01*
X490791Y113582D01*
X491402Y110510D01*
X493142Y107906D01*
X495747Y106165D01*
X498819Y105554D01*
X501891Y106165D01*
X504496Y107906D01*
X506236Y110510D01*
X506847Y113582D01*
X506236Y116655D01*
X504496Y119259D01*
X501891Y121000D01*
X498819Y121611D01*
D02*
G37*
%LPD*%
D33*
X882874Y812008D02*
X888779Y817913D01*
X899606D01*
X904528Y812992D01*
X882874Y742405D02*
Y749016D01*
Y812008D01*
D34*
X573819Y581693D02*
X589567Y565945D01*
X618110D01*
X626968Y534449D02*
Y557087D01*
X931102Y862205D02*
X1056102Y737205D01*
X896654Y862205D02*
X931102D01*
X888780Y870079D02*
X896654Y862205D01*
X790354Y870079D02*
X888780D01*
X581693Y848425D02*
X588583Y855315D01*
X500984Y848425D02*
X581693D01*
X423228Y770669D02*
X500984Y848425D01*
X1056102Y699803D02*
Y737205D01*
X768701Y848425D02*
X790354Y870079D01*
X609252Y848425D02*
X768701D01*
X602362Y855315D02*
X609252Y848425D01*
X588583Y855315D02*
X602362D01*
X620079Y382874D02*
X621063Y383858D01*
Y528543D02*
X626968Y534449D01*
X618110Y565945D02*
X626968Y557087D01*
X967519Y685040D02*
X1047244D01*
X967519Y665355D02*
X967520Y665354D01*
X1057087Y675197D02*
X1070866D01*
X1083661D01*
X1070866Y633859D02*
Y675197D01*
Y633859D02*
X1077756Y626969D01*
X1068898Y618110D02*
X1077756Y626969D01*
X1065945Y575788D02*
X1068898Y578740D01*
Y618110D01*
X1049213Y439960D02*
Y504921D01*
X1056102Y699803D02*
X1063976Y691929D01*
X879921Y469488D02*
X935039D01*
X1049213Y504921D02*
X1068898Y524606D01*
X1047244Y685040D02*
X1057087Y675197D01*
X198819Y312008D02*
Y313582D01*
X713091Y450295D02*
X713583Y450787D01*
Y452756D01*
Y465551D01*
X920275Y674213D02*
X921260Y675197D01*
X882874Y674213D02*
X920275D01*
X621063Y383858D02*
Y528543D01*
X827100Y416667D02*
X879921Y469488D01*
X772675Y416667D02*
X827100D01*
X967519Y665355D02*
Y685040D01*
D35*
X236417Y125984D02*
X248819Y113582D01*
X385630Y100394D02*
X398819Y113582D01*
X88583Y125984D02*
X236417D01*
X94488Y100394D02*
X385630D01*
X44291Y170276D02*
X88583Y125984D01*
X30512Y164370D02*
X94488Y100394D01*
X30512Y164370D02*
Y219488D01*
X0Y250000D02*
X30512Y219488D01*
X44291Y170276D02*
Y226378D01*
X30512Y240157D02*
X44291Y226378D01*
X30512Y240157D02*
Y269488D01*
X0Y300000D02*
X30512Y269488D01*
D36*
X550000Y1003150D02*
Y1100000D01*
Y1003150D02*
X649606Y903543D01*
X748032D01*
X489173Y1050197D02*
X645669Y893701D01*
X245157Y1050197D02*
X489173D01*
X645669Y893701D02*
X938976D01*
X342520Y1070866D02*
X470866D01*
X500000Y1100000D01*
X938976Y893701D02*
X951772Y880905D01*
X83801Y484252D02*
X210630D01*
X228346Y501969D01*
X49549Y450000D02*
X83801Y484252D01*
X0Y450000D02*
X49549D01*
X62008Y1061024D02*
X107284D01*
X117126Y1051181D01*
X223701D01*
X234921Y1039961D01*
X56102Y1066929D02*
X62008Y1061024D01*
X234921Y1039961D02*
X245157Y1050197D01*
X228346Y501969D02*
X253937D01*
X265748Y490158D01*
D37*
X620079Y382874D02*
X632874Y370079D01*
X92521Y463584D02*
X277559D01*
X652559Y76772D02*
X693898Y118110D01*
X28937Y400000D02*
X92521Y463584D01*
X68111Y248031D02*
X133268D01*
X664370Y279528D02*
X693898Y309055D01*
X0Y400000D02*
X28937D01*
X148819Y163583D02*
X183071Y197835D01*
X264567D01*
X298819Y163582D01*
X133268Y248031D02*
X198819Y313582D01*
X80709Y76772D02*
X652559D01*
X7480Y150000D02*
X80709Y76772D01*
X532874Y279528D02*
X664370D01*
X498819Y313582D02*
X532874Y279528D01*
X7677Y300000D02*
X90551Y382874D01*
X0Y300000D02*
X7677D01*
X0Y150000D02*
X7480D01*
X680991Y418307D02*
X681102D01*
X713091Y450295D02*
Y452264D01*
X706838Y447858D02*
X709276Y450295D01*
X685062Y447858D02*
X695889D01*
X706838D01*
X709276Y450295D02*
X711122D01*
X713091D01*
X90551Y382874D02*
X620079D01*
X660378Y393756D02*
Y397693D01*
X680991Y418307D01*
X683563Y319390D02*
Y344980D01*
X645614Y382930D02*
X683563Y344980D01*
X632874Y370079D02*
X683563Y319390D01*
X693898Y309055D01*
X632874Y370190D02*
X645614Y382930D01*
X660378Y397693D01*
X681102Y418307D02*
X692913Y430118D01*
X713091Y450295D01*
X693898Y328740D02*
Y360236D01*
X660378Y393756D02*
X693898Y360236D01*
X666339Y429134D02*
X685062Y447858D01*
X657503D02*
X685062D01*
X621063Y383858D02*
X632874Y395669D01*
X666339Y429134D01*
D38*
X88583Y795276D02*
X398622D01*
X15783Y775556D02*
X49247D01*
X51181Y773622D01*
X66929D01*
X88583Y795276D01*
X398622D02*
X423228Y770669D01*
X715551Y459646D02*
Y467520D01*
Y479331D01*
X817915Y502951D02*
X829724Y491142D01*
X817915Y502951D02*
X870079Y555115D01*
Y708661D02*
X873032Y711614D01*
X882874Y721457D01*
X873032Y711614D02*
Y739173D01*
X891101Y757242D02*
Y765748D01*
X907481Y761811D02*
X921260Y748032D01*
Y582677D02*
Y643701D01*
X882874Y544291D02*
X921260Y582677D01*
X908465Y587598D02*
Y643701D01*
X921260D01*
X896654Y575787D02*
Y643701D01*
X882874Y562008D02*
X896654Y575787D01*
X908465Y587598D01*
X882874Y643701D02*
X896654D01*
X908465D01*
X870079Y555115D02*
Y569601D01*
X801181Y502951D02*
X807087Y508857D01*
X826772Y590551D02*
X870079D01*
X801181Y502951D02*
X817915D01*
X870079Y590551D02*
Y708661D01*
X807087Y508857D02*
Y570866D01*
X826772Y590551D01*
X870079Y569601D02*
Y578740D01*
Y590551D01*
X916339Y719488D02*
X921260Y724409D01*
X884842Y719488D02*
X916339D01*
X882874Y721457D02*
X884842Y719488D01*
X921260Y724409D02*
Y748032D01*
X919291Y704724D02*
X921260Y706693D01*
Y724409D01*
X882874Y704724D02*
X919291D01*
X921260Y643701D02*
Y675197D01*
Y706693D01*
X873032Y739173D02*
X882874Y749016D01*
X891101Y757242D01*
X739172Y502951D02*
Y503939D01*
X723917Y487696D02*
Y510334D01*
X728346Y514764D01*
X715551Y527559D02*
X728346Y514764D01*
X739172Y503939D01*
X715551Y479331D02*
X723917Y487696D01*
X739172Y502951D01*
X771655D02*
X801181D01*
X715551Y527559D02*
X741632Y553640D01*
X758859Y570866D01*
X771655Y502951D02*
X774606Y505902D01*
Y570866D01*
X758859D02*
X774606D01*
X807087D01*
X741632Y553640D02*
X757384D01*
X758859Y552165D01*
X739172Y502951D02*
X771655D01*
X652559Y477980D02*
X661784Y487205D01*
X700787Y527559D02*
X715551D01*
X693405Y520177D02*
X714073D01*
X715551Y518699D01*
X723917Y510334D01*
X715551Y479331D02*
Y518699D01*
Y527559D01*
X684055Y510827D02*
X693405Y520177D01*
X700787Y527559D01*
X661784Y487205D02*
X684055D01*
Y510827D01*
X707677Y487205D02*
X715551Y479331D01*
X684055Y487205D02*
X707677D01*
X632874Y433071D02*
X652559Y452756D01*
Y442913D02*
Y452756D01*
Y477980D01*
X653051Y438484D02*
X656988D01*
X632874Y418307D02*
X653051Y438484D01*
X652559Y442913D02*
X656988Y438484D01*
X666339Y429134D01*
X632874Y395669D02*
Y418307D01*
Y433071D01*
D39*
X891101Y765748D02*
Y799565D01*
X902280Y761811D02*
X904528D01*
Y787402D02*
Y812992D01*
Y761811D02*
Y787402D01*
X313976Y348425D02*
X348819Y313582D01*
X677165Y134843D02*
X693898Y118110D01*
X627559Y134843D02*
X677165D01*
X598819Y163583D02*
X627559Y134843D01*
X448819Y163582D02*
X499803D01*
X534056Y197835D01*
X564567D01*
X598819Y163583D01*
X68111Y309055D02*
X107481Y348425D01*
X313976D01*
X820866Y482284D02*
X829724Y491142D01*
X882874Y544291D01*
Y721457D02*
Y742405D01*
X891101Y799565D02*
X904528Y812992D01*
X882874Y742405D02*
X891101Y750631D01*
X902280Y761811D01*
X891101Y750631D02*
Y757242D01*
X882874Y544291D02*
Y562008D01*
X874297Y573819D02*
X882874D01*
Y562008D02*
Y573819D01*
Y643701D01*
X870079Y569601D02*
X874297Y573819D01*
X819038Y567070D02*
X830709Y578740D01*
X808704Y508226D02*
X819038Y518560D01*
X870079Y569601D01*
X819038Y543448D02*
X854331Y578740D01*
X819038Y518560D02*
Y543448D01*
Y567070D01*
X830709Y578740D02*
X854331D01*
X870079D01*
X882874Y704724D02*
Y721457D01*
Y643701D02*
Y674213D01*
Y704724D01*
X693898Y309055D02*
Y328740D01*
X732284Y367126D02*
Y384842D01*
X692913Y424213D02*
Y430118D01*
X724409Y392717D02*
Y419291D01*
X713091Y430610D02*
Y450295D01*
X692913Y424213D02*
X724409Y392717D01*
X732284Y384842D01*
X715587Y428114D02*
X724409Y419291D01*
X715587Y454760D02*
Y458661D01*
X713091Y430610D02*
X715587Y428114D01*
X707677Y346457D02*
X711614D01*
X693898Y360236D02*
X707677Y346457D01*
X693898Y328740D02*
X711614Y346457D01*
X732284Y367126D01*
X715587Y428114D02*
Y454760D01*
D40*
X620079Y382874D02*
X630905D01*
X809053Y470471D02*
X820866Y482284D01*
X632874Y370079D02*
Y370190D01*
Y372047D01*
X713091Y452264D02*
X713583Y452756D01*
Y465551D02*
X715551Y467520D01*
X749016Y500984D01*
X632874Y372047D02*
X711122Y450295D01*
X713091Y452264D01*
X630905Y382874D02*
X695889Y447858D01*
X713583Y465551D01*
X771655Y500984D02*
Y502951D01*
Y523617D01*
X749016Y500984D02*
X771655D01*
X761809Y533463D02*
Y567915D01*
X758859Y570866D02*
X761809Y567915D01*
Y533463D02*
X771655Y523617D01*
X750983Y544290D02*
X758859Y552165D01*
Y570866D01*
X741632Y553640D02*
X750983Y544290D01*
X761809Y533463D01*
X713583Y452756D02*
X715587Y454760D01*
X771655Y500984D02*
X802165D01*
X820866Y482284D01*
X715587Y454760D02*
X731297Y470471D01*
X809053D01*
D41*
X-17716Y600000D02*
D03*
Y650000D02*
D03*
Y700000D02*
D03*
Y750000D02*
D03*
Y800000D02*
D03*
Y850000D02*
D03*
Y900000D02*
D03*
Y950000D02*
D03*
Y1000000D02*
D03*
Y1050000D02*
D03*
X1117716D02*
D03*
Y1000000D02*
D03*
Y950000D02*
D03*
Y900000D02*
D03*
Y850000D02*
D03*
Y800000D02*
D03*
Y750000D02*
D03*
Y700000D02*
D03*
Y650000D02*
D03*
Y600000D02*
D03*
Y550000D02*
D03*
Y500000D02*
D03*
Y450000D02*
D03*
Y400000D02*
D03*
Y350000D02*
D03*
Y300000D02*
D03*
Y250000D02*
D03*
Y200000D02*
D03*
Y150000D02*
D03*
Y100000D02*
D03*
Y50000D02*
D03*
X-17716D02*
D03*
Y100000D02*
D03*
Y150000D02*
D03*
Y200000D02*
D03*
Y250000D02*
D03*
Y300000D02*
D03*
Y350000D02*
D03*
Y400000D02*
D03*
Y450000D02*
D03*
Y500000D02*
D03*
D42*
X50000Y1117716D02*
D03*
X100000D02*
D03*
X150000D02*
D03*
X200000D02*
D03*
X250000D02*
D03*
X300000D02*
D03*
X350000D02*
D03*
X400000D02*
D03*
X450000D02*
D03*
X500000D02*
D03*
X550000D02*
D03*
X600000D02*
D03*
X650000D02*
D03*
X700000D02*
D03*
X750000D02*
D03*
X800000D02*
D03*
X850000D02*
D03*
X900000D02*
D03*
X950000D02*
D03*
X1000000D02*
D03*
X1050000D02*
D03*
Y-17716D02*
D03*
X1000000D02*
D03*
X950000D02*
D03*
X900000D02*
D03*
X850000D02*
D03*
X800000D02*
D03*
X750000D02*
D03*
X700000D02*
D03*
X650000D02*
D03*
X600000D02*
D03*
X550000D02*
D03*
X500000D02*
D03*
X450000D02*
D03*
X400000D02*
D03*
X350000D02*
D03*
X300000D02*
D03*
X250000D02*
D03*
X200000D02*
D03*
X150000D02*
D03*
X100000D02*
D03*
X50000D02*
D03*
D43*
X-17716Y550000D02*
D03*
D44*
X637795Y524606D02*
D03*
X612205Y551181D02*
D03*
X573819Y534449D02*
D03*
X605315Y500000D02*
D03*
X670275Y522638D02*
D03*
X560039Y555118D02*
D03*
X542323Y565945D02*
D03*
X559055Y540354D02*
D03*
X624046Y581721D02*
D03*
X633889Y598454D02*
D03*
X668307Y628937D02*
D03*
X699803Y597441D02*
D03*
X847441Y646654D02*
D03*
X951772Y660433D02*
D03*
X605315Y869094D02*
D03*
X595472Y840551D02*
D03*
X652559Y534449D02*
D03*
X624016Y825787D02*
D03*
X365159Y779528D02*
D03*
X350394Y674213D02*
D03*
X333661Y689962D02*
D03*
X423228Y697836D02*
D03*
X410124Y707677D02*
D03*
X423228Y750984D02*
D03*
Y678150D02*
D03*
X437992Y689961D02*
D03*
X156181Y1039960D02*
D03*
X605315Y978347D02*
D03*
X731299Y915355D02*
D03*
X636811Y932087D02*
D03*
X676181Y932087D02*
D03*
X748032Y903543D02*
D03*
X342520Y1070866D02*
D03*
X636811Y975394D02*
D03*
X913386Y455707D02*
D03*
X351379Y626970D02*
D03*
X425197Y589567D02*
D03*
X560039Y571850D02*
D03*
X825787Y754921D02*
D03*
X967519Y685040D02*
D03*
X1063976Y757874D02*
D03*
X1003937Y848425D02*
D03*
X1083661Y675197D02*
D03*
X1077756Y626969D02*
D03*
X1068898Y414370D02*
D03*
X1049213D02*
D03*
X1068898Y439960D02*
D03*
X1049213D02*
D03*
X351379Y595474D02*
D03*
Y579726D02*
D03*
X423228Y650591D02*
D03*
Y630905D02*
D03*
X816929Y856299D02*
D03*
X888779Y883858D02*
D03*
X744095Y739173D02*
D03*
X716535Y735236D02*
D03*
X182087Y516734D02*
D03*
X197835D02*
D03*
X327756Y611222D02*
D03*
X423228Y571849D02*
D03*
X762795Y817913D02*
D03*
X510827Y660433D02*
D03*
X542323D02*
D03*
X573819D02*
D03*
X605315Y691929D02*
D03*
X588583D02*
D03*
X573819D02*
D03*
X558071D02*
D03*
X890747Y833662D02*
D03*
X762795Y786417D02*
D03*
X757874Y739173D02*
D03*
X731299Y786417D02*
D03*
X542323Y691929D02*
D03*
Y628937D02*
D03*
X526575Y660433D02*
D03*
X573819Y766732D02*
D03*
X590551Y759842D02*
D03*
X587598Y784449D02*
D03*
X351395Y563962D02*
D03*
X351379Y531496D02*
D03*
X595472Y825787D02*
D03*
X951772Y975394D02*
D03*
X857284Y1006890D02*
D03*
X731299Y943898D02*
D03*
X825787Y912402D02*
D03*
X794291D02*
D03*
X888779D02*
D03*
X857284D02*
D03*
X103347Y689962D02*
D03*
X575788Y910433D02*
D03*
X571850Y818898D02*
D03*
X327757Y745080D02*
D03*
X772638Y386811D02*
D03*
Y376969D02*
D03*
X935039Y469488D02*
D03*
X1070866Y499016D02*
D03*
X1049213Y550197D02*
D03*
X900590Y203740D02*
D03*
X964614Y376987D02*
D03*
X985236Y376600D02*
D03*
Y343135D02*
D03*
X874016Y39370D02*
D03*
X922244Y243110D02*
D03*
X913386Y329723D02*
D03*
X913386Y487203D02*
D03*
X909449Y377953D02*
D03*
X984252Y436024D02*
D03*
X1068898Y524606D02*
D03*
X808071Y393700D02*
D03*
X597441Y772638D02*
D03*
X533465Y990158D02*
D03*
X59055Y790354D02*
D03*
X532480Y1024607D02*
D03*
X467519Y924213D02*
D03*
X587598Y1024606D02*
D03*
X276575Y763779D02*
D03*
X260827Y750001D02*
D03*
X13780Y824803D02*
D03*
X326771Y658466D02*
D03*
X517717Y586614D02*
D03*
X794291Y691929D02*
D03*
X825787Y660433D02*
D03*
X731299Y817913D02*
D03*
X814960Y786417D02*
D03*
X825787Y723425D02*
D03*
X542323Y502953D02*
D03*
X166339Y752954D02*
D03*
X265748Y490158D02*
D03*
X276575Y503937D02*
D03*
X287402Y426181D02*
D03*
X1004921Y206693D02*
D03*
X993110Y209646D02*
D03*
X755905Y140746D02*
D03*
X134843Y752954D02*
D03*
X339567Y721458D02*
D03*
Y705710D02*
D03*
X292323Y516734D02*
D03*
X951772Y880905D02*
D03*
X904528Y838583D02*
D03*
X475394Y880906D02*
D03*
X479331Y912402D02*
D03*
X510827Y975394D02*
D03*
X495079Y935039D02*
D03*
X469488Y941929D02*
D03*
X449803Y902559D02*
D03*
X540354Y909449D02*
D03*
X510827Y880905D02*
D03*
X666338Y863189D02*
D03*
Y882874D02*
D03*
X961661Y194891D02*
D03*
X957676Y63977D02*
D03*
X967520Y665354D02*
D03*
X967520Y675197D02*
D03*
X1068898Y473426D02*
D03*
X1065945Y575788D02*
D03*
X1068898Y550197D02*
D03*
X1049213Y337598D02*
D03*
Y363189D02*
D03*
Y388779D02*
D03*
X944882Y420274D02*
D03*
X921260Y433071D02*
D03*
X827756Y319881D02*
D03*
X808071D02*
D03*
X783503Y294306D02*
D03*
X750000Y277559D02*
D03*
X808071Y344488D02*
D03*
X787402Y77754D02*
D03*
X645669Y36417D02*
D03*
X755905Y77754D02*
D03*
X795276Y39370D02*
D03*
X1049213Y286416D02*
D03*
Y312006D02*
D03*
X573819Y581693D02*
D03*
X958661Y225394D02*
D03*
X893701Y173228D02*
D03*
X779527Y162401D02*
D03*
X944882Y266731D02*
D03*
X962598Y266732D02*
D03*
X1016732Y220473D02*
D03*
X955709Y211615D02*
D03*
X510827Y502953D02*
D03*
X623031Y236220D02*
D03*
Y208661D02*
D03*
X479331Y628937D02*
D03*
Y597441D02*
D03*
X864173Y163386D02*
D03*
Y106299D02*
D03*
X512795Y419291D02*
D03*
X481299D02*
D03*
X731299Y565945D02*
D03*
X699803D02*
D03*
X934055Y346457D02*
D03*
X827756Y369095D02*
D03*
X909449Y408464D02*
D03*
X684055Y471457D02*
D03*
X795314Y435061D02*
D03*
X787402Y455707D02*
D03*
X913386Y361219D02*
D03*
X791339Y550195D02*
D03*
X873074Y173237D02*
D03*
X696850Y389764D02*
D03*
X710630Y375984D02*
D03*
X703740Y382874D02*
D03*
X689961Y396654D02*
D03*
X601378Y581693D02*
D03*
X699803Y502953D02*
D03*
X731299Y597441D02*
D03*
X668307Y502953D02*
D03*
Y471457D02*
D03*
X542323D02*
D03*
X933071Y455709D02*
D03*
X944882Y487203D02*
D03*
X913386Y518699D02*
D03*
X944882D02*
D03*
Y550195D02*
D03*
X913386D02*
D03*
X1012795Y315945D02*
D03*
X1012795Y367126D02*
D03*
X1012795Y418307D02*
D03*
X1012795Y392716D02*
D03*
X636811Y502953D02*
D03*
X854331Y307087D02*
D03*
X888779Y849409D02*
D03*
X920276Y880905D02*
D03*
X904528Y876968D02*
D03*
X1063976Y691929D02*
D03*
X723425Y991142D02*
D03*
X716535Y754921D02*
D03*
X644685Y810039D02*
D03*
X757874Y833661D02*
D03*
X904528Y761811D02*
D03*
Y787402D02*
D03*
Y812992D02*
D03*
X794291Y817913D02*
D03*
X825787D02*
D03*
X423228Y770669D02*
D03*
Y552164D02*
D03*
X652559Y600394D02*
D03*
X645669Y865158D02*
D03*
X1003346Y991142D02*
D03*
X794291Y849409D02*
D03*
X762795Y975394D02*
D03*
Y1006890D02*
D03*
X1063976Y1013779D02*
D03*
X1063976Y828740D02*
D03*
Y860236D02*
D03*
Y931102D02*
D03*
X891732Y1060039D02*
D03*
X820866D02*
D03*
X769685D02*
D03*
X738189D02*
D03*
X667323D02*
D03*
X635827D02*
D03*
X564961Y1060039D02*
D03*
X462598Y1060039D02*
D03*
X847440Y613189D02*
D03*
X904528Y736220D02*
D03*
X794291Y660433D02*
D03*
X762795Y691929D02*
D03*
X825787D02*
D03*
X841535Y762796D02*
D03*
X794291Y786417D02*
D03*
X417323Y809055D02*
D03*
X612205Y802165D02*
D03*
X528543Y863189D02*
D03*
X489173D02*
D03*
X417323Y885827D02*
D03*
X57087Y807087D02*
D03*
X366142Y833661D02*
D03*
X306102Y1062008D02*
D03*
X234921Y1039961D02*
D03*
X195551Y1039960D02*
D03*
X274291Y1039961D02*
D03*
X215236D02*
D03*
X293976D02*
D03*
X175866Y1039960D02*
D03*
X126653Y912008D02*
D03*
X80709Y836613D02*
D03*
X80709Y935039D02*
D03*
X61024Y503938D02*
D03*
Y605317D02*
D03*
X259842Y426181D02*
D03*
X240157D02*
D03*
X212599Y426182D02*
D03*
X192913D02*
D03*
X245079Y516734D02*
D03*
X213583D02*
D03*
X248819Y113582D02*
D03*
X398819D02*
D03*
X374213Y273622D02*
D03*
X399607Y291339D02*
D03*
X215748Y36417D02*
D03*
X613386D02*
D03*
X496063Y36417D02*
D03*
X353346Y36417D02*
D03*
X248032D02*
D03*
X198819Y113582D02*
D03*
X348819Y113582D02*
D03*
X498819Y113582D02*
D03*
X648819D02*
D03*
X105906Y532480D02*
D03*
Y500984D02*
D03*
X76772Y491142D02*
D03*
X182087Y752954D02*
D03*
X197835D02*
D03*
X213583D02*
D03*
X229331D02*
D03*
X245079D02*
D03*
X79724Y638779D02*
D03*
X234252Y491142D02*
D03*
X904528Y991142D02*
D03*
X791339Y518699D02*
D03*
X668307Y568898D02*
D03*
X510827Y628937D02*
D03*
X573819Y597441D02*
D03*
X542323D02*
D03*
X479331Y565945D02*
D03*
Y534449D02*
D03*
X944882Y298227D02*
D03*
X913386D02*
D03*
X787402Y203738D02*
D03*
X787402Y140746D02*
D03*
X936024Y243110D02*
D03*
X865158Y144685D02*
D03*
X868110Y86614D02*
D03*
X750984Y224409D02*
D03*
X510827Y534449D02*
D03*
Y565945D02*
D03*
X56102Y1066929D02*
D03*
X648622Y786417D02*
D03*
X150591Y752954D02*
D03*
X249016Y491142D02*
D03*
X229331Y516734D02*
D03*
X274291Y853938D02*
D03*
X308071Y516734D02*
D03*
X558071Y755906D02*
D03*
X417323Y860236D02*
D03*
X428150Y841535D02*
D03*
X525591Y770669D02*
D03*
X512795Y770669D02*
D03*
X103347Y705710D02*
D03*
Y674214D02*
D03*
X57087Y671260D02*
D03*
X77756Y697835D02*
D03*
X67913Y680118D02*
D03*
X558071Y868110D02*
D03*
X459645Y853346D02*
D03*
X544291Y815945D02*
D03*
X605315Y597441D02*
D03*
X625000Y1088583D02*
D03*
X1039370Y727362D02*
D03*
X605315Y660433D02*
D03*
Y628937D02*
D03*
X636811D02*
D03*
X697869Y469511D02*
D03*
X857284Y723425D02*
D03*
X904528Y659448D02*
D03*
X938485Y660433D02*
D03*
X904528Y687992D02*
D03*
X605315Y471457D02*
D03*
X636811D02*
D03*
X742126Y531496D02*
D03*
X741142Y345472D02*
D03*
X755905Y518699D02*
D03*
X751968Y483266D02*
D03*
X791339Y487203D02*
D03*
X754958Y456715D02*
D03*
X792361Y402579D02*
D03*
X772675Y416667D02*
D03*
X762832Y435061D02*
D03*
X747046Y402559D02*
D03*
X735272Y455731D02*
D03*
X738189Y436024D02*
D03*
D45*
X594517Y549239D02*
D03*
X378937Y660433D02*
D03*
X844488Y836614D02*
D03*
X621063Y899606D02*
D03*
D46*
X1076772Y724409D02*
D03*
X375000Y814961D02*
D03*
X15748Y775591D02*
D03*
X458661Y443897D02*
D03*
X694882Y78740D02*
D03*
X864173Y272638D02*
D03*
X828740Y26575D02*
D03*
X1049213Y118109D02*
D03*
X1019685Y279528D02*
D03*
X997047Y240158D02*
D03*
X174213Y1076772D02*
D03*
X270669Y240158D02*
D03*
X98425Y1046260D02*
D03*
X59055Y1039370D02*
D03*
X964567Y96457D02*
D03*
D47*
X348819Y313582D02*
D03*
X277559Y463584D02*
D03*
X693898Y118110D02*
D03*
X248819Y163582D02*
D03*
X693898Y179134D02*
D03*
X694092Y49212D02*
D03*
X693898Y248031D02*
D03*
Y309055D02*
D03*
X170276Y966535D02*
D03*
Y996339D02*
D03*
X498819Y213582D02*
D03*
X198819Y263582D02*
D03*
X498819Y313582D02*
D03*
X448819Y338975D02*
D03*
X198819Y313582D02*
D03*
X68111Y309055D02*
D03*
X68111Y179134D02*
D03*
X598819Y163583D02*
D03*
X448819Y163582D02*
D03*
X298819D02*
D03*
X148819Y163583D02*
D03*
X419292Y43307D02*
D03*
X148819Y313582D02*
D03*
X298819D02*
D03*
X598819Y313582D02*
D03*
X648819Y163583D02*
D03*
X548819Y163582D02*
D03*
X398819Y163583D02*
D03*
X157480Y591535D02*
D03*
X215551D02*
D03*
D48*
X68111Y248031D02*
D03*
D49*
X847441Y753937D02*
Y770669D01*
Y753937D02*
X861221Y767717D01*
X833661Y762795D02*
X844488Y773622D01*
X847441Y713583D02*
Y733268D01*
X819882Y762795D02*
X833661D01*
X732283Y616142D02*
X785433Y669291D01*
X812992Y616142D02*
X825787Y628937D01*
X669291Y600394D02*
X685039Y616142D01*
X794291Y660433D02*
X825787Y691929D01*
X847441Y646654D02*
Y670276D01*
X825787Y691929D02*
X847441Y670276D01*
X841535Y613189D02*
X847440D01*
X825787Y691929D02*
X825787D01*
Y754921D02*
Y754921D01*
X318898Y244095D02*
X557087D01*
X249410Y313582D02*
X318898Y244095D01*
X198819Y313582D02*
X249410D01*
X557087Y244095D02*
X611221Y189961D01*
X677165Y206693D02*
X713583D01*
X660433Y189961D02*
X677165Y206693D01*
X611221Y189961D02*
X660433D01*
X736221Y184055D02*
X799213D01*
X713583Y206693D02*
X736221Y184055D01*
X1019685Y279528D02*
X1035433Y263779D01*
Y210630D02*
Y263779D01*
X950788Y125984D02*
X1035433Y210630D01*
X857284Y125984D02*
X950788D01*
X799213Y184055D02*
X857284Y125984D01*
X652559Y600394D02*
X669291D01*
X687008Y616142D02*
X762795Y691929D01*
X685039Y616142D02*
X687008D01*
X762795Y668307D02*
Y691929D01*
X710630Y616142D02*
X762795Y668307D01*
X687008Y616142D02*
X710630D01*
X732283D01*
X762795Y691929D02*
X785433Y669291D01*
X794291Y660433D01*
X753937Y616142D02*
X794291Y656496D01*
Y660433D01*
X732283Y616142D02*
X753937D01*
X779528D01*
X809055Y645669D01*
X794291Y660433D02*
X809055Y645669D01*
X796260Y616142D02*
X816437Y636319D01*
Y638287D01*
X809055Y645669D02*
X816437Y638287D01*
X825787Y628937D01*
X779528Y616142D02*
X796260D01*
X812992D01*
X794291Y723425D02*
X825787Y691929D01*
X794291Y723425D02*
X825787Y754921D01*
X762795Y691929D02*
X794291Y723425D01*
X843504Y646654D02*
X847441D01*
X825787Y628937D02*
X843504Y646654D01*
X847440Y613189D02*
Y646653D01*
X847441Y646654D01*
X825787Y754921D02*
X847441Y733268D01*
X844488Y773622D02*
X847441Y770669D01*
X861221Y767717D02*
Y819882D01*
X844488Y836614D02*
X861221Y819882D01*
X847441Y733268D02*
Y753937D01*
X685039Y616142D02*
X688976Y620079D01*
Y642717D01*
X809055Y762795D01*
X825787Y754921D02*
X833661Y762795D01*
X819882D02*
X833661Y776575D01*
Y797244D01*
X844488Y808071D01*
X809055Y762795D02*
X819882D01*
X844488Y773622D02*
Y808071D01*
Y836614D01*
X845472Y615158D02*
X847440Y613189D01*
X685039Y616142D02*
X686024Y615158D01*
X839567D01*
X845472D01*
X825787Y628937D02*
X839567Y615158D01*
X841535Y613189D01*
X825787Y691929D02*
X847441Y713583D01*
Y670276D02*
Y713583D01*
%TF.MD5,d5ee21cbd05bfd7734e8e6231fb5c6fe*%
M02*
