%TF.GenerationSoftware,Altium Limited,DefaultClient, ()*%
G04 Layer_Physical_Order=2*
G04 Layer_Color=36540*
%FSLAX26Y26*%
%MOIN*%
%TF.SameCoordinates,9CB29443-125E-45F9-99EE-4E50F1371B14*%
%TF.FilePolarity,Positive*%
%TF.FileFunction,Copper,L2,Inr,Signal*%
%TF.Part,Single*%
G01*
G75*
%TA.AperFunction,Conductor*%
%ADD34C,0.011811*%
%ADD36C,0.003937*%
%TA.AperFunction,ComponentPad*%
G04:AMPARAMS|DCode=41|XSize=27.559mil|YSize=62.992mil|CornerRadius=6.89mil|HoleSize=0mil|Usage=FLASHONLY|Rotation=90.000|XOffset=0mil|YOffset=0mil|HoleType=Round|Shape=RoundedRectangle|*
%AMROUNDEDRECTD41*
21,1,0.027559,0.049212,0,0,90.0*
21,1,0.013780,0.062992,0,0,90.0*
1,1,0.013780,0.024606,0.006890*
1,1,0.013780,0.024606,-0.006890*
1,1,0.013780,-0.024606,-0.006890*
1,1,0.013780,-0.024606,0.006890*
%
%ADD41ROUNDEDRECTD41*%
G04:AMPARAMS|DCode=42|XSize=27.559mil|YSize=62.992mil|CornerRadius=6.89mil|HoleSize=0mil|Usage=FLASHONLY|Rotation=0.000|XOffset=0mil|YOffset=0mil|HoleType=Round|Shape=RoundedRectangle|*
%AMROUNDEDRECTD42*
21,1,0.027559,0.049212,0,0,0.0*
21,1,0.013780,0.062992,0,0,0.0*
1,1,0.013780,0.006890,-0.024606*
1,1,0.013780,-0.006890,-0.024606*
1,1,0.013780,-0.006890,0.024606*
1,1,0.013780,0.006890,0.024606*
%
%ADD42ROUNDEDRECTD42*%
%ADD43R,0.062992X0.027559*%
%TA.AperFunction,ViaPad*%
%ADD44C,0.007874*%
%ADD45C,0.011811*%
%ADD46C,0.015748*%
%ADD47C,0.023622*%
%ADD48C,0.039370*%
G36*
X782071Y1093110D02*
X782912Y1088886D01*
X785305Y1085305D01*
X788886Y1082912D01*
X793110Y1082071D01*
X802663D01*
Y1040354D01*
X804535Y1035834D01*
X853844Y986525D01*
Y928544D01*
X855260Y925125D01*
X854585Y921708D01*
X853395Y919274D01*
X851607Y918078D01*
X849866Y915474D01*
X849255Y912402D01*
X849866Y909329D01*
X851607Y906725D01*
X854211Y904984D01*
X857283Y904373D01*
X861718Y900339D01*
Y892968D01*
X861306Y892411D01*
X856718Y890511D01*
X851961Y895268D01*
X847441Y897140D01*
X819882D01*
X815362Y895268D01*
X806029Y885935D01*
X799968Y886582D01*
X797364Y888323D01*
X794291Y888934D01*
X791219Y888323D01*
X788614Y886582D01*
X786874Y883978D01*
X786514Y882168D01*
X768118Y863772D01*
X766246Y859252D01*
X762795Y857438D01*
X759723Y856827D01*
X758189Y855802D01*
X748032D01*
X743512Y853929D01*
X743200Y853618D01*
X737225Y854714D01*
X736976Y855086D01*
X734371Y856827D01*
X731299Y857438D01*
X728227Y856827D01*
X725622Y855086D01*
X723882Y852482D01*
X723522Y850672D01*
X718809Y845959D01*
X649251D01*
X644839Y849410D01*
X644228Y852482D01*
X644557Y853541D01*
X646964Y857387D01*
X648742Y857740D01*
X651346Y859481D01*
X652822Y861689D01*
X653391Y862142D01*
X658820Y860456D01*
X658921Y860117D01*
X659131Y859803D01*
X660661Y857512D01*
X663266Y855772D01*
X666338Y855161D01*
X669411Y855772D01*
X672015Y857512D01*
X673755Y860117D01*
X674367Y863189D01*
X673755Y866261D01*
X672015Y868866D01*
X669696Y870416D01*
X669411Y872635D01*
Y873428D01*
X669696Y875647D01*
X672015Y877197D01*
X673755Y879802D01*
X674367Y882874D01*
X673755Y885946D01*
X672015Y888551D01*
X669411Y890291D01*
X666338Y890902D01*
X663266Y890291D01*
X660661Y888551D01*
X658921Y885946D01*
X658310Y882874D01*
X658921Y879802D01*
X660661Y877197D01*
X662981Y875647D01*
X663266Y873428D01*
Y872635D01*
X662981Y870416D01*
X660661Y868866D01*
X659185Y866657D01*
X658616Y866205D01*
X653188Y867890D01*
X653087Y868230D01*
X652877Y868544D01*
X651346Y870834D01*
X648742Y872575D01*
X645669Y873186D01*
X642597Y872575D01*
X639992Y870834D01*
X638252Y868230D01*
X637641Y865158D01*
X638252Y862085D01*
X637924Y861026D01*
X635516Y857180D01*
X633739Y856827D01*
X633678Y856786D01*
X589567D01*
X587713Y856018D01*
X584860Y855026D01*
X581464Y857055D01*
X578942Y859152D01*
X579976Y863605D01*
X580211Y864173D01*
Y876299D01*
X581236Y877833D01*
X581847Y880905D01*
X581236Y883978D01*
X579496Y886582D01*
X576891Y888323D01*
X573819Y888934D01*
X570747Y888323D01*
X568142Y886582D01*
X566402Y883978D01*
X565791Y880905D01*
X566357Y878057D01*
X565845Y877361D01*
X562821Y874798D01*
X562427Y874670D01*
X561143Y875527D01*
X558071Y876139D01*
X554999Y875527D01*
X553715Y874670D01*
X553320Y874798D01*
X550297Y877361D01*
X549784Y878057D01*
X550351Y880905D01*
X549740Y883978D01*
X548000Y886582D01*
X547352Y892643D01*
X563073Y908364D01*
X567743Y907480D01*
X568679Y906899D01*
X570111Y904756D01*
X572715Y903016D01*
X575788Y902405D01*
X578860Y903016D01*
X581464Y904756D01*
X583205Y907361D01*
X583816Y910433D01*
X583537Y911836D01*
X586024Y915985D01*
X586993Y916836D01*
X591841D01*
X597538Y911139D01*
X597898Y909329D01*
X599638Y906725D01*
X602243Y904984D01*
X605315Y904373D01*
X607091Y904727D01*
X610337Y902243D01*
X611287Y900908D01*
X611028Y899606D01*
X611792Y895766D01*
X613967Y892510D01*
X617223Y890335D01*
X621063Y889571D01*
X624903Y890335D01*
X628159Y892510D01*
X630334Y895766D01*
X631098Y899606D01*
X630334Y903446D01*
X628159Y906702D01*
X624903Y908877D01*
X621063Y909641D01*
X617762Y908985D01*
X615568Y910321D01*
X613320Y912283D01*
X613343Y912402D01*
X612732Y915474D01*
X610992Y918078D01*
X608387Y919819D01*
X606578Y920179D01*
X599008Y927748D01*
X594488Y929620D01*
X568898D01*
X564378Y927748D01*
X551929Y915299D01*
X546031Y915126D01*
X545384Y921187D01*
X561703Y937505D01*
X600708D01*
X602243Y936480D01*
X605315Y935869D01*
X608387Y936480D01*
X610992Y938221D01*
X612732Y940825D01*
X613343Y943898D01*
X612732Y946970D01*
X610992Y949574D01*
X608387Y951315D01*
X605315Y951926D01*
X602243Y951315D01*
X600708Y950290D01*
X559055D01*
X554535Y948418D01*
X554224Y948106D01*
X548249Y949202D01*
X548000Y949574D01*
X546447Y950612D01*
X545273Y954769D01*
X545255Y955264D01*
X549054Y959159D01*
X563976D01*
X568496Y961031D01*
X575082Y967616D01*
X576891Y967976D01*
X579496Y969717D01*
X581236Y972321D01*
X581847Y975394D01*
X581236Y978466D01*
X580682Y979295D01*
X584287Y982900D01*
X584526Y982740D01*
X587598Y982129D01*
X590671Y982740D01*
X593275Y984481D01*
X595016Y987085D01*
X595627Y990158D01*
X595016Y993230D01*
X593990Y994764D01*
Y1009842D01*
X592118Y1014362D01*
X593275Y1018929D01*
X595016Y1021534D01*
X595627Y1024606D01*
X600038Y1028057D01*
X604694D01*
X644198Y988552D01*
Y968055D01*
X646071Y963535D01*
X656449Y953157D01*
X660969Y951285D01*
X665799D01*
X672586Y944498D01*
X672709Y943328D01*
X671550Y938463D01*
X670504Y937764D01*
X668764Y935159D01*
X668153Y932087D01*
X668764Y929014D01*
X670504Y926410D01*
X673109Y924669D01*
X676181Y924058D01*
X679253Y924669D01*
X681858Y926410D01*
X682557Y927456D01*
X687423Y928614D01*
X688592Y928492D01*
X693411Y923673D01*
Y917008D01*
X692386Y915474D01*
X691775Y912402D01*
X692386Y909329D01*
X694126Y906725D01*
X696731Y904984D01*
X699803Y904373D01*
X702875Y904984D01*
X705480Y906725D01*
X707220Y909329D01*
X707831Y912402D01*
X707220Y915474D01*
X706195Y917008D01*
Y926321D01*
X704323Y930841D01*
X703631Y931533D01*
X703471Y932584D01*
X704601Y937634D01*
X705480Y938221D01*
X707220Y940825D01*
X707831Y943898D01*
X707220Y946970D01*
X705480Y949574D01*
X702875Y951315D01*
X701066Y951675D01*
X682669Y970071D01*
X678149Y971943D01*
X676335Y975394D01*
X675724Y978466D01*
X674699Y980000D01*
Y984925D01*
X679319Y986838D01*
X692026Y974131D01*
X692386Y972321D01*
X694126Y969717D01*
X696731Y967976D01*
X699803Y967365D01*
X702875Y967976D01*
X705480Y969717D01*
X707220Y972321D01*
X707831Y975394D01*
X707715Y975977D01*
X712323Y978440D01*
X719890Y970874D01*
X724409Y969002D01*
X726693D01*
X728227Y967976D01*
X731299Y967365D01*
X734371Y967976D01*
X736976Y969717D01*
X738716Y972321D01*
X739327Y975394D01*
X738716Y978466D01*
X736976Y981071D01*
X734371Y982811D01*
X733463Y982992D01*
X730851Y987978D01*
X730842Y988069D01*
X731453Y991142D01*
X730842Y994214D01*
X729102Y996819D01*
X726497Y998559D01*
X723425Y999170D01*
X720353Y998559D01*
X717748Y996819D01*
X711851Y996992D01*
X664396Y1044447D01*
X664679Y1048025D01*
X667323Y1052011D01*
X670395Y1052622D01*
X673000Y1054362D01*
X674740Y1056967D01*
X675351Y1060039D01*
X674740Y1063112D01*
X673000Y1065716D01*
X670395Y1067457D01*
X667323Y1068068D01*
X666877Y1067979D01*
X663761Y1067938D01*
X660610Y1071037D01*
X660032Y1072433D01*
X654987Y1077478D01*
X656048Y1080040D01*
X657369Y1082167D01*
X661114Y1082912D01*
X664695Y1085305D01*
X667088Y1088886D01*
X667929Y1093110D01*
Y1100000D01*
X682071D01*
Y1093110D01*
X682912Y1088886D01*
X685305Y1085305D01*
X688886Y1082912D01*
X693110Y1082071D01*
X706890D01*
X711114Y1082912D01*
X714695Y1085305D01*
X717088Y1088886D01*
X717929Y1093110D01*
Y1100000D01*
X732071D01*
Y1093110D01*
X732912Y1088886D01*
X735305Y1085305D01*
X738886Y1082912D01*
X743110Y1082071D01*
X756890D01*
X761114Y1082912D01*
X764695Y1085305D01*
X767088Y1088886D01*
X767929Y1093110D01*
Y1100000D01*
X782071D01*
Y1093110D01*
D02*
G37*
G36*
X282071D02*
X282912Y1088886D01*
X285305Y1085305D01*
X288886Y1082912D01*
X293110Y1082071D01*
X306890D01*
X308112Y1082315D01*
X336876Y1053551D01*
X341396Y1051679D01*
X347063D01*
X348031Y1050827D01*
X350519Y1046679D01*
X350239Y1045276D01*
X350851Y1042203D01*
X352591Y1039599D01*
X355195Y1037858D01*
X356698Y1037560D01*
X359155Y1034044D01*
X357128Y1029455D01*
X355195Y1029071D01*
X353661Y1028046D01*
X317913D01*
X313393Y1026173D01*
X306504Y1019284D01*
X304632Y1014764D01*
Y866142D01*
X306504Y861622D01*
X309673Y858452D01*
X307760Y853833D01*
X297923D01*
X283063Y868693D01*
X278543Y870565D01*
X255984D01*
X251464Y868693D01*
X233659Y850887D01*
X231849Y850527D01*
X229244Y848787D01*
X227813Y846644D01*
X227484Y846441D01*
X225476Y846183D01*
X224682D01*
X222463Y846468D01*
X220913Y848787D01*
X218309Y850527D01*
X215236Y851138D01*
X212164Y850527D01*
X209559Y848787D01*
X208128Y846644D01*
X207799Y846441D01*
X205792Y846183D01*
X204996D01*
X202778Y846468D01*
X201228Y848787D01*
X198623Y850527D01*
X195551Y851139D01*
X192479Y850527D01*
X189874Y848787D01*
X188134Y846183D01*
X187523Y843110D01*
X188134Y840038D01*
X189874Y837433D01*
X192479Y835693D01*
X194288Y835333D01*
X211307Y818315D01*
X215827Y816442D01*
X305285D01*
X356562Y765165D01*
X361082Y763293D01*
X371063D01*
X375583Y765165D01*
X385522Y775104D01*
X411166D01*
X415200Y770669D01*
X415811Y767597D01*
X417551Y764992D01*
X420156Y763252D01*
X423228Y762641D01*
X426301Y763252D01*
X428905Y764992D01*
X430646Y767597D01*
X431257Y770669D01*
X435291Y775104D01*
X481727D01*
X485734Y771712D01*
Y766126D01*
X484882Y765158D01*
X480734Y762670D01*
X479331Y762950D01*
X476258Y762338D01*
X473654Y760598D01*
X471913Y757994D01*
X471553Y756184D01*
X443315Y727945D01*
X441442Y723425D01*
Y713894D01*
X436823Y711981D01*
X422827Y725977D01*
X418307Y727849D01*
X381893D01*
X323726Y786016D01*
X319206Y787888D01*
X136502D01*
X131982Y786016D01*
X111622Y765655D01*
X109750Y761135D01*
Y738868D01*
X76493Y705612D01*
X74684Y705252D01*
X72079Y703511D01*
X70339Y700907D01*
X69728Y697835D01*
X70339Y694762D01*
X71880Y692455D01*
X71543Y691227D01*
X69578Y687815D01*
X67913Y688146D01*
X64841Y687535D01*
X62236Y685795D01*
X60572Y683305D01*
X60496Y683190D01*
Y683190D01*
X59885Y680118D01*
X57087Y679288D01*
X54014Y678677D01*
X51410Y676937D01*
X49669Y674332D01*
X49058Y671260D01*
X49669Y668188D01*
X51410Y665583D01*
X54014Y663843D01*
X57087Y663231D01*
X58898Y663592D01*
X61682Y659305D01*
X55520Y653142D01*
X53647Y648622D01*
Y627953D01*
X55520Y623433D01*
X60866Y618087D01*
X58949Y612933D01*
X57951Y612734D01*
X55347Y610994D01*
X53606Y608389D01*
X52995Y605317D01*
X53606Y602245D01*
X55347Y599640D01*
X57951Y597900D01*
X61024Y597289D01*
X64096Y597900D01*
X66701Y599640D01*
X68441Y602245D01*
X68639Y603242D01*
X73793Y605159D01*
X77269Y601683D01*
Y500679D01*
X75509Y498919D01*
X73699Y498559D01*
X72569Y497804D01*
X72279Y497610D01*
X68995Y500396D01*
X68485Y501089D01*
X69052Y503938D01*
X68441Y507011D01*
X66701Y509615D01*
X64096Y511356D01*
X61024Y511967D01*
X57951Y511356D01*
X55347Y509615D01*
X53606Y507011D01*
X52995Y503938D01*
X53606Y500866D01*
X55347Y498261D01*
X57951Y496521D01*
X61024Y495910D01*
X64096Y496521D01*
X65226Y497276D01*
X65517Y497470D01*
X68800Y494684D01*
X69310Y493991D01*
X68743Y491142D01*
X69355Y488070D01*
X71095Y485465D01*
X73699Y483725D01*
X76772Y483114D01*
X79844Y483725D01*
X82449Y485465D01*
X84189Y488070D01*
X84549Y489879D01*
X88181Y493512D01*
X90053Y498032D01*
Y501264D01*
X94673Y503177D01*
X98128Y499722D01*
X98488Y497912D01*
X100229Y495307D01*
X102833Y493567D01*
X105906Y492956D01*
X108978Y493567D01*
X111582Y495307D01*
X113323Y497912D01*
X113934Y500984D01*
X113323Y504057D01*
X111582Y506661D01*
X108978Y508401D01*
X107168Y508762D01*
X99896Y516034D01*
Y521012D01*
X100512Y521862D01*
X104896Y524653D01*
X105906Y524452D01*
X108978Y525063D01*
X111582Y526803D01*
X113323Y529408D01*
X113934Y532480D01*
X113323Y535553D01*
X112298Y537087D01*
Y574715D01*
X117709Y580126D01*
X119581Y584646D01*
Y618416D01*
X246342Y745177D01*
X248151Y745537D01*
X248589Y745829D01*
X250278Y746214D01*
X254435Y743229D01*
Y525508D01*
X253803Y524976D01*
X249435Y523293D01*
X248151Y524151D01*
X245079Y524762D01*
X242007Y524151D01*
X239402Y522410D01*
X235008D01*
X232403Y524151D01*
X229331Y524762D01*
X226259Y524151D01*
X223654Y522410D01*
X219260D01*
X216655Y524151D01*
X213583Y524762D01*
X210511Y524151D01*
X207906Y522410D01*
X203512D01*
X200907Y524151D01*
X197835Y524762D01*
X194763Y524151D01*
X192158Y522410D01*
X187764D01*
X185159Y524151D01*
X182087Y524762D01*
X179015Y524151D01*
X176410Y522410D01*
X174670Y519806D01*
X174059Y516734D01*
X174670Y513661D01*
X176410Y511057D01*
X179015Y509316D01*
X182087Y508705D01*
X185159Y509316D01*
X187764Y511057D01*
X192158D01*
X194763Y509316D01*
X197835Y508705D01*
X200907Y509316D01*
X203512Y511057D01*
X207906D01*
X210511Y509316D01*
X213583Y508705D01*
X216655Y509316D01*
X219260Y511057D01*
X223654D01*
X226259Y509316D01*
X229331Y508705D01*
X232403Y509316D01*
X234388Y510642D01*
X236909Y509929D01*
X239297Y507470D01*
X239229Y505159D01*
X232989Y498919D01*
X231179Y498559D01*
X228575Y496818D01*
X226835Y494214D01*
X226224Y491142D01*
X226835Y488069D01*
X228575Y485465D01*
X231179Y483724D01*
X234252Y483113D01*
X237324Y483724D01*
X239929Y485465D01*
X244486Y484698D01*
X245944Y483725D01*
X249016Y483113D01*
X252088Y483725D01*
X254115Y485079D01*
X254862Y485434D01*
X260060Y484498D01*
X260071Y484481D01*
X262676Y482740D01*
X265748Y482129D01*
X268820Y482740D01*
X271425Y484481D01*
X273165Y487085D01*
X273776Y490158D01*
X273632Y490882D01*
X274791Y492136D01*
X278104Y494029D01*
X281495Y492625D01*
X426322D01*
X430842Y494497D01*
X466966Y530621D01*
X468017Y530782D01*
X473067Y529651D01*
X473654Y528772D01*
X476258Y527032D01*
X479331Y526420D01*
X482403Y527032D01*
X485008Y528772D01*
X486748Y531376D01*
X487359Y534449D01*
X486748Y537521D01*
X485008Y540126D01*
X484129Y540713D01*
X482998Y545762D01*
X483159Y546814D01*
X494677Y558332D01*
X496550Y562852D01*
Y572464D01*
X520485Y596399D01*
X525104Y594486D01*
Y491821D01*
X463000Y429717D01*
X461128Y425197D01*
Y180311D01*
X456128Y177639D01*
X454964Y178417D01*
X448819Y179639D01*
X442674Y178417D01*
X437465Y174936D01*
X433985Y169727D01*
X432762Y163582D01*
X433985Y157438D01*
X437465Y152229D01*
X442674Y148748D01*
X448819Y147526D01*
X454964Y148748D01*
X456128Y149526D01*
X461128Y146853D01*
Y21435D01*
X457070Y17893D01*
X456890Y17929D01*
X443110D01*
X438886Y17088D01*
X435305Y14695D01*
X432912Y11114D01*
X432071Y6890D01*
Y0D01*
X417929D01*
Y6890D01*
X417088Y11114D01*
X414695Y14695D01*
X411114Y17088D01*
X406890Y17929D01*
X393110D01*
X388886Y17088D01*
X385305Y14695D01*
X382912Y11114D01*
X382071Y6890D01*
Y0D01*
X367929D01*
Y6890D01*
X367088Y11114D01*
X364695Y14695D01*
X361114Y17088D01*
X356890Y17929D01*
X343110D01*
X338886Y17088D01*
X335305Y14695D01*
X332912Y11114D01*
X332071Y6890D01*
Y0D01*
X317929D01*
Y6890D01*
X317088Y11114D01*
X314695Y14695D01*
X311114Y17088D01*
X306890Y17929D01*
X293110D01*
X288886Y17088D01*
X285305Y14695D01*
X282912Y11114D01*
X282071Y6890D01*
Y0D01*
X267929D01*
Y6890D01*
X267088Y11114D01*
X264695Y14695D01*
X261114Y17088D01*
X256890Y17929D01*
X243110D01*
X238886Y17088D01*
X235305Y14695D01*
X232912Y11114D01*
X232071Y6890D01*
Y0D01*
X217929D01*
Y6890D01*
X217088Y11114D01*
X214695Y14695D01*
X211114Y17088D01*
X206890Y17929D01*
X193110D01*
X188886Y17088D01*
X185305Y14695D01*
X182912Y11114D01*
X182071Y6890D01*
Y0D01*
X167929D01*
Y6890D01*
X167088Y11114D01*
X164695Y14695D01*
X161114Y17088D01*
X156890Y17929D01*
X143110D01*
X138886Y17088D01*
X135305Y14695D01*
X132912Y11114D01*
X132071Y6890D01*
Y0D01*
X117929D01*
Y6890D01*
X117088Y11114D01*
X114695Y14695D01*
X111114Y17088D01*
X106890Y17929D01*
X93110D01*
X88886Y17088D01*
X85305Y14695D01*
X82912Y11114D01*
X82071Y6890D01*
Y0D01*
X67929D01*
Y6890D01*
X67088Y11114D01*
X64695Y14695D01*
X61114Y17088D01*
X56890Y17929D01*
X43110D01*
X38886Y17088D01*
X35305Y14695D01*
X0Y50000D01*
Y132071D01*
X6890D01*
X11114Y132912D01*
X14695Y135305D01*
X17088Y138886D01*
X17929Y143110D01*
Y156890D01*
X17088Y161114D01*
X14695Y164695D01*
X11114Y167088D01*
X6890Y167929D01*
X0D01*
Y182071D01*
X6890D01*
X11114Y182912D01*
X14695Y185305D01*
X17088Y188886D01*
X17929Y193110D01*
Y206890D01*
X17088Y211114D01*
X14695Y214695D01*
X11114Y217088D01*
X6890Y217929D01*
X0D01*
Y232071D01*
X6890D01*
X11114Y232912D01*
X14695Y235305D01*
X17088Y238886D01*
X17929Y243110D01*
Y256890D01*
X17088Y261114D01*
X14695Y264695D01*
X11114Y267088D01*
X6890Y267929D01*
X0D01*
Y282071D01*
X6890D01*
X11114Y282912D01*
X14695Y285305D01*
X17088Y288886D01*
X17929Y293110D01*
Y306890D01*
X17088Y311114D01*
X14695Y314695D01*
X11114Y317088D01*
X6890Y317929D01*
X0D01*
Y332071D01*
X6890D01*
X11114Y332912D01*
X14695Y335305D01*
X17088Y338886D01*
X17929Y343110D01*
Y356890D01*
X17088Y361114D01*
X14695Y364695D01*
X11114Y367088D01*
X6890Y367929D01*
X0D01*
Y382071D01*
X6890D01*
X11114Y382912D01*
X14695Y385305D01*
X17088Y388886D01*
X17929Y393110D01*
Y406890D01*
X17088Y411114D01*
X14695Y414695D01*
X11114Y417088D01*
X6890Y417929D01*
X0D01*
Y432071D01*
X6890D01*
X11114Y432912D01*
X14695Y435305D01*
X17088Y438886D01*
X17929Y443110D01*
Y456890D01*
X17088Y461114D01*
X14695Y464695D01*
X11114Y467088D01*
X6890Y467929D01*
X0D01*
Y482071D01*
X6890D01*
X11114Y482912D01*
X14695Y485305D01*
X17088Y488886D01*
X17929Y493110D01*
Y506890D01*
X17088Y511114D01*
X14695Y514695D01*
X11114Y517088D01*
X6890Y517929D01*
X0D01*
Y531959D01*
X13780D01*
X16793Y533207D01*
X18041Y536221D01*
Y559001D01*
X41922Y582882D01*
X43794Y587402D01*
Y766053D01*
X60318Y782577D01*
X62128Y782937D01*
X64732Y784677D01*
X66472Y787282D01*
X67084Y790354D01*
X66472Y793427D01*
X64732Y796031D01*
X64223Y796371D01*
X62964Y800718D01*
X63453Y802442D01*
X64504Y804014D01*
X65115Y807087D01*
X64504Y810159D01*
X62764Y812764D01*
X60159Y814504D01*
X57087Y815115D01*
X54014Y814504D01*
X51410Y812764D01*
X50762Y811794D01*
X45762Y813311D01*
Y1059232D01*
X49006Y1060637D01*
X50762Y1061027D01*
X53030Y1059512D01*
X56102Y1058901D01*
X59175Y1059512D01*
X61779Y1061252D01*
X63520Y1063857D01*
X64131Y1066929D01*
X63520Y1070001D01*
X61779Y1072606D01*
X59175Y1074346D01*
X56102Y1074957D01*
X53030Y1074346D01*
X50762Y1072831D01*
X49006Y1073221D01*
X45762Y1074627D01*
Y1082071D01*
X56890D01*
X61114Y1082912D01*
X64695Y1085305D01*
X67088Y1088886D01*
X67929Y1093110D01*
Y1100000D01*
X82071D01*
Y1093110D01*
X82912Y1088886D01*
X85305Y1085305D01*
X88886Y1082912D01*
X93110Y1082071D01*
X106890D01*
X111114Y1082912D01*
X114695Y1085305D01*
X117088Y1088886D01*
X117929Y1093110D01*
Y1100000D01*
X132071D01*
Y1093110D01*
X132912Y1088886D01*
X135305Y1085305D01*
X138886Y1082912D01*
X143110Y1082071D01*
X156890D01*
X161114Y1082912D01*
X164695Y1085305D01*
X167088Y1088886D01*
X167929Y1093110D01*
Y1100000D01*
X182071D01*
Y1093110D01*
X182912Y1088886D01*
X185305Y1085305D01*
X188886Y1082912D01*
X193110Y1082071D01*
X206890D01*
X211114Y1082912D01*
X214695Y1085305D01*
X217088Y1088886D01*
X217929Y1093110D01*
Y1100000D01*
X232071D01*
Y1093110D01*
X232912Y1088886D01*
X235305Y1085305D01*
X238886Y1082912D01*
X243110Y1082071D01*
X256890D01*
X261114Y1082912D01*
X264695Y1085305D01*
X267088Y1088886D01*
X267929Y1093110D01*
Y1100000D01*
X282071D01*
Y1093110D01*
D02*
G37*
G36*
X1082071Y1043110D02*
X1082912Y1038886D01*
X1085305Y1035305D01*
X1088886Y1032912D01*
X1093110Y1032071D01*
X1100000D01*
Y1017929D01*
X1093110D01*
X1088886Y1017088D01*
X1085305Y1014695D01*
X1082912Y1011114D01*
X1082071Y1006890D01*
Y993110D01*
X1082403Y991443D01*
X1048413Y957453D01*
X1043794Y959366D01*
Y1019990D01*
X1067411Y1043608D01*
X1082071D01*
Y1043110D01*
D02*
G37*
G36*
X882071Y1093110D02*
X882912Y1088886D01*
X885305Y1085305D01*
X888886Y1082912D01*
X893110Y1082071D01*
X906890D01*
X908557Y1082403D01*
X956206Y1034754D01*
Y892968D01*
X951771Y888934D01*
X948699Y888323D01*
X946095Y886582D01*
X944354Y883978D01*
X943743Y880905D01*
X944354Y877833D01*
X946095Y875229D01*
X948699Y873488D01*
X951771Y872877D01*
X956206Y868843D01*
Y815640D01*
X937409Y796843D01*
X935537Y792323D01*
Y773626D01*
X929535Y767624D01*
X928430Y764956D01*
X923919Y762633D01*
X922663Y762475D01*
X920276Y762950D01*
X917376Y762373D01*
X917179Y762350D01*
X911952Y764844D01*
X911945Y764883D01*
X910204Y767488D01*
X907600Y769228D01*
X904528Y769839D01*
X901455Y769228D01*
X898851Y767488D01*
X897110Y764883D01*
X897102Y764844D01*
X891876Y762350D01*
X891679Y762373D01*
X888779Y762950D01*
X885707Y762338D01*
X883103Y760598D01*
X881362Y757994D01*
X880751Y754921D01*
X881362Y751849D01*
X883103Y749244D01*
X885707Y747504D01*
X888779Y746893D01*
X891852Y747504D01*
X894456Y749244D01*
X896197Y751849D01*
X896205Y751888D01*
X901431Y754382D01*
X901628Y754359D01*
X904528Y753782D01*
X907427Y754359D01*
X907624Y754382D01*
X912851Y751888D01*
X912858Y751849D01*
X914599Y749244D01*
X917203Y747504D01*
X920276Y746893D01*
X921702Y747177D01*
X924165Y742569D01*
X917357Y735761D01*
X916427Y735850D01*
X912255Y737730D01*
X911945Y739292D01*
X910205Y741897D01*
X907600Y743637D01*
X904528Y744248D01*
X901455Y743637D01*
X898851Y741897D01*
X897111Y739292D01*
X896499Y736220D01*
X897066Y733372D01*
X896552Y732674D01*
X893271Y729894D01*
X891852Y730842D01*
X888779Y731453D01*
X885707Y730842D01*
X883103Y729102D01*
X881362Y726497D01*
X880751Y723425D01*
X881362Y720353D01*
X883103Y717748D01*
X885707Y716008D01*
X888779Y715397D01*
X890206Y715681D01*
X892669Y711072D01*
X879122Y697525D01*
X874502Y699439D01*
Y860541D01*
X880504Y866543D01*
X882376Y871063D01*
Y872653D01*
X883228Y873622D01*
X886844Y875790D01*
X888146Y875956D01*
X888779Y875830D01*
X891679Y876407D01*
X891876Y876430D01*
X897102Y873936D01*
X897110Y873896D01*
X898851Y871292D01*
X901455Y869551D01*
X904528Y868940D01*
X907600Y869551D01*
X910204Y871292D01*
X911945Y873896D01*
X912556Y876968D01*
X911945Y880041D01*
X910204Y882645D01*
X907600Y884386D01*
X904528Y884997D01*
X901628Y884420D01*
X901431Y884397D01*
X896205Y886891D01*
X896197Y886931D01*
X894456Y889535D01*
X891852Y891276D01*
X888779Y891887D01*
X887376Y891608D01*
X883228Y894095D01*
X882376Y895063D01*
Y901197D01*
X883228Y902165D01*
X887376Y904652D01*
X888779Y904373D01*
X891852Y904984D01*
X894456Y906725D01*
X896197Y909329D01*
X896808Y912402D01*
X896197Y915474D01*
X894456Y918078D01*
X891852Y919819D01*
X888779Y920430D01*
X887376Y920151D01*
X883228Y922638D01*
X882376Y923607D01*
Y923932D01*
X880504Y928451D01*
X874502Y934453D01*
Y1012795D01*
X872630Y1017315D01*
X856392Y1033553D01*
Y1055012D01*
X856786Y1055963D01*
Y1082071D01*
X856890D01*
X861114Y1082912D01*
X864695Y1085305D01*
X867088Y1088886D01*
X867929Y1093110D01*
Y1100000D01*
X882071D01*
Y1093110D01*
D02*
G37*
G36*
X849506Y879643D02*
X849866Y877833D01*
X851607Y875229D01*
X852384Y874709D01*
X854282Y872580D01*
X854614Y868310D01*
X853844Y866450D01*
Y848214D01*
X848844Y845541D01*
X848328Y845886D01*
X844488Y846650D01*
X840648Y845886D01*
X837392Y843710D01*
X835217Y840455D01*
X834453Y836614D01*
X835217Y832774D01*
X837392Y829518D01*
X840648Y827343D01*
X844488Y826579D01*
X848328Y827343D01*
X848844Y827688D01*
X853844Y825015D01*
Y806782D01*
X811425Y764362D01*
X809553Y759842D01*
Y638779D01*
X811425Y634260D01*
X818010Y627674D01*
X818370Y625865D01*
X820111Y623260D01*
X822715Y621520D01*
X825787Y620909D01*
X828860Y621520D01*
X831464Y623260D01*
X833205Y625865D01*
X833816Y628937D01*
X833205Y632009D01*
X831464Y634614D01*
X828860Y636354D01*
X827050Y636714D01*
X822337Y641427D01*
Y679489D01*
X825788Y683901D01*
X828860Y684512D01*
X831464Y686252D01*
X833205Y688857D01*
X833816Y691929D01*
X833205Y695001D01*
X831464Y697606D01*
X828860Y699346D01*
X825788Y699957D01*
X822337Y704369D01*
Y742481D01*
X825788Y746893D01*
X828860Y747504D01*
X831464Y749244D01*
X833205Y751849D01*
X833385Y752758D01*
X838371Y755370D01*
X838463Y755379D01*
X841535Y754768D01*
X844607Y755379D01*
X847212Y757119D01*
X848952Y759724D01*
X849563Y762796D01*
X848952Y765869D01*
X847212Y768473D01*
X844607Y770213D01*
X842788Y770575D01*
X841048Y774129D01*
X840819Y775677D01*
X857099Y791957D01*
X861718Y790043D01*
Y735488D01*
X857283Y731453D01*
X854211Y730842D01*
X851607Y729102D01*
X849866Y726497D01*
X849255Y723425D01*
X849866Y720353D01*
X851607Y717748D01*
X854211Y716008D01*
X857283Y715397D01*
X861718Y711362D01*
Y691484D01*
X852764Y682530D01*
X850891Y678010D01*
Y659093D01*
X847441Y654682D01*
X844369Y654071D01*
X841764Y652330D01*
X840024Y649726D01*
X839413Y646654D01*
X840024Y643581D01*
X841764Y640977D01*
X844369Y639236D01*
X847441Y638625D01*
X850891Y634213D01*
Y633543D01*
X849866Y632009D01*
X849255Y628937D01*
X849866Y625865D01*
X849891Y625828D01*
X848332Y622895D01*
X847015Y621133D01*
X844368Y620606D01*
X841763Y618866D01*
X840023Y616261D01*
X839412Y613189D01*
X840023Y610117D01*
X841763Y607512D01*
X844368Y605772D01*
X847015Y605245D01*
X848332Y603484D01*
X849891Y600550D01*
X849866Y600513D01*
X849255Y597441D01*
X849866Y594369D01*
X851607Y591764D01*
X854211Y590024D01*
X857284Y589413D01*
X860356Y590024D01*
X862960Y591764D01*
X864701Y594369D01*
X865061Y596178D01*
X872106Y603223D01*
X874417Y602764D01*
X881002Y596178D01*
X881362Y594369D01*
X883103Y591764D01*
X885707Y590024D01*
X888779Y589413D01*
X891852Y590024D01*
X894456Y591764D01*
X896197Y594369D01*
X896808Y597441D01*
X896197Y600513D01*
X894456Y603118D01*
X891852Y604858D01*
X890042Y605218D01*
X885329Y609931D01*
Y647993D01*
X888780Y652405D01*
X891852Y653016D01*
X893198Y653916D01*
X894514Y654743D01*
X898851Y653771D01*
X901455Y652031D01*
X904528Y651420D01*
X907600Y652031D01*
X910204Y653771D01*
X914541Y654743D01*
X915857Y653916D01*
X917203Y653016D01*
X920276Y652405D01*
X923348Y653016D01*
X925952Y654756D01*
X927693Y657361D01*
X928304Y660433D01*
X927693Y663505D01*
X926668Y665040D01*
Y672549D01*
X940197Y686079D01*
X946095Y686252D01*
X948699Y684512D01*
X951772Y683901D01*
X954670Y684477D01*
X954868Y684500D01*
X957618Y683188D01*
X960102Y678269D01*
X959491Y675197D01*
X960102Y672125D01*
X961338Y670275D01*
X960103Y668427D01*
X959491Y665354D01*
X960103Y662282D01*
X961843Y659677D01*
X964447Y657937D01*
X967520Y657326D01*
X970592Y657937D01*
X970633Y657964D01*
X975470Y657405D01*
X976528Y656347D01*
X977591Y654756D01*
X980195Y653016D01*
X983268Y652405D01*
X986340Y653016D01*
X988945Y654756D01*
X990685Y657361D01*
X991045Y659170D01*
X1025406Y693531D01*
X1027684Y692741D01*
X1030025Y691080D01*
Y684734D01*
X982005Y636714D01*
X980195Y636354D01*
X977591Y634614D01*
X975851Y632009D01*
X975239Y628937D01*
X975851Y625865D01*
X977591Y623260D01*
X980195Y621520D01*
X983268Y620909D01*
X986340Y621520D01*
X988945Y623260D01*
X990685Y625865D01*
X991045Y627674D01*
X1035542Y672172D01*
X1040162Y670258D01*
Y654528D01*
X1040926Y650687D01*
X1043101Y647432D01*
X1053941Y636591D01*
Y613409D01*
X1028337Y587805D01*
X1026162Y584549D01*
X1025398Y580709D01*
Y547465D01*
X959555Y481622D01*
X956197Y481926D01*
X952826Y486778D01*
X952910Y487203D01*
X952299Y490275D01*
X950559Y492880D01*
X947954Y494620D01*
X944882Y495231D01*
X941809Y494620D01*
X939205Y492880D01*
X937465Y490275D01*
X936854Y487203D01*
X937386Y484524D01*
X937334Y483926D01*
X934530Y479524D01*
X923738D01*
X920933Y483926D01*
X920881Y484524D01*
X921414Y487203D01*
X920803Y490275D01*
X919062Y492880D01*
X916458Y494620D01*
X913386Y495231D01*
X910313Y494620D01*
X907709Y492880D01*
X905968Y490275D01*
X905357Y487203D01*
X905890Y484524D01*
X905838Y483926D01*
X903033Y479524D01*
X902559D01*
X898719Y478760D01*
X895463Y476584D01*
X871841Y452962D01*
X869666Y449707D01*
X868902Y445866D01*
Y418307D01*
X869666Y414467D01*
X871841Y411211D01*
X875097Y409036D01*
X878937Y408272D01*
X882777Y409036D01*
X886033Y411211D01*
X888208Y414467D01*
X888972Y418307D01*
Y441709D01*
X900709Y453446D01*
X904471Y452866D01*
X906369Y452035D01*
X907709Y450030D01*
X910313Y448290D01*
X913386Y447679D01*
X916458Y448290D01*
X919063Y450030D01*
X920613Y452350D01*
X922831Y452635D01*
X923628Y452636D01*
X925845Y452351D01*
X927394Y450032D01*
X929999Y448292D01*
X933071Y447681D01*
X936143Y448292D01*
X938748Y450032D01*
X940488Y452637D01*
X941099Y455709D01*
X945452Y459453D01*
X951578D01*
Y433192D01*
X946578Y429972D01*
X944882Y430309D01*
X941042Y429545D01*
X937786Y427370D01*
X935610Y424114D01*
X934846Y420274D01*
Y419511D01*
X922271Y406935D01*
X919471Y407829D01*
X917353Y409089D01*
X916866Y411537D01*
X915126Y414141D01*
X912521Y415882D01*
X909449Y416493D01*
X906376Y415882D01*
X903772Y414141D01*
X902032Y411537D01*
X901420Y408465D01*
X897582Y403736D01*
X883858D01*
X880018Y402972D01*
X876762Y400797D01*
X866920Y390954D01*
X864744Y387699D01*
X863980Y383858D01*
Y315665D01*
X862629Y314678D01*
X858980Y313450D01*
X857403Y314504D01*
X854331Y315115D01*
X851258Y314504D01*
X848654Y312764D01*
X848497Y312529D01*
X842468Y311488D01*
X837791Y316165D01*
Y319881D01*
X837027Y323721D01*
X834852Y326977D01*
X831596Y329152D01*
X827756Y329916D01*
X823916Y329152D01*
X821582Y327593D01*
X817641Y329442D01*
X816918Y330032D01*
X816869Y330327D01*
X843103Y356561D01*
X844975Y361081D01*
Y498031D01*
X843103Y502551D01*
X806685Y538969D01*
X802165Y540841D01*
X800114D01*
X799360Y541736D01*
X798641Y543115D01*
X798312Y546021D01*
X798464Y546686D01*
X798756Y547123D01*
X799367Y550195D01*
X798756Y553268D01*
X797016Y555872D01*
X794411Y557612D01*
X791339Y558223D01*
X788266Y557612D01*
X785662Y555872D01*
X783922Y553268D01*
X783310Y550195D01*
X783922Y547123D01*
X785662Y544518D01*
X785925Y544342D01*
X787912Y541227D01*
X787166Y537958D01*
X786874Y537521D01*
X786263Y534449D01*
X786874Y531376D01*
X787167Y530938D01*
X787468Y529616D01*
X785345Y526234D01*
X780031Y526253D01*
X770572Y535711D01*
X770212Y537521D01*
X768472Y540126D01*
X765868Y541866D01*
X762795Y542477D01*
X759723Y541866D01*
X757118Y540126D01*
X755378Y537521D01*
X754767Y534449D01*
X753328Y533250D01*
X750193Y531814D01*
X750078Y531878D01*
X749543Y534568D01*
X747803Y537173D01*
X745198Y538913D01*
X742126Y539524D01*
X739053Y538913D01*
X736449Y537173D01*
X734709Y534568D01*
X734097Y531496D01*
X734709Y528424D01*
X736449Y525819D01*
X739053Y524079D01*
X742126Y523468D01*
X744198Y523880D01*
X744671Y523647D01*
X746932Y521696D01*
X748142Y520033D01*
X747877Y518699D01*
X748488Y515627D01*
X750229Y513022D01*
X752833Y511282D01*
X755905Y510671D01*
X758978Y511282D01*
X761582Y513022D01*
X763323Y515627D01*
X763429Y516162D01*
X766101Y517615D01*
X768239Y518234D01*
X771167Y515459D01*
Y481346D01*
X766167Y478674D01*
X765868Y478874D01*
X764271Y479191D01*
X762788Y479496D01*
X759997Y483265D01*
X759997Y483266D01*
X759851Y483997D01*
X759385Y486338D01*
X757645Y488943D01*
X755040Y490683D01*
X751968Y491294D01*
X748896Y490683D01*
X746291Y488943D01*
X744551Y486338D01*
X743940Y483266D01*
X744551Y480194D01*
X746291Y477589D01*
X748896Y475849D01*
X750492Y475531D01*
X751976Y475227D01*
X754766Y471458D01*
X754767Y471457D01*
X754913Y470725D01*
X755158Y469493D01*
X755096Y468015D01*
X752168Y464189D01*
X751886Y464132D01*
X749281Y462392D01*
X747564Y459822D01*
X744399Y459161D01*
X742349Y459313D01*
X740949Y461408D01*
X738344Y463148D01*
X735272Y463759D01*
X732200Y463148D01*
X729595Y461408D01*
X727855Y458803D01*
X727244Y455731D01*
X727855Y452659D01*
X729595Y450054D01*
X732200Y448314D01*
X733660Y448023D01*
X734098Y446644D01*
X734188Y442820D01*
X732512Y441700D01*
X730772Y439096D01*
X730161Y436024D01*
X730772Y432951D01*
X732512Y430347D01*
X735117Y428606D01*
X738189Y427995D01*
X741261Y428606D01*
X743866Y430347D01*
X745606Y432951D01*
X746217Y436024D01*
X745606Y439096D01*
X743866Y441700D01*
X741261Y443441D01*
X739801Y443731D01*
X739363Y445110D01*
X739273Y448934D01*
X740949Y450054D01*
X742666Y452624D01*
X745832Y453286D01*
X747882Y453133D01*
X749281Y451038D01*
X751886Y449298D01*
X754958Y448687D01*
X758030Y449298D01*
X760635Y451038D01*
X762375Y453643D01*
X762986Y456715D01*
X762596Y458679D01*
X762658Y460157D01*
X765585Y463983D01*
X765868Y464039D01*
X766167Y464240D01*
X771167Y461567D01*
Y449803D01*
X773039Y445283D01*
X778057Y440266D01*
Y428096D01*
X773057Y424619D01*
X772675Y424695D01*
X769603Y424084D01*
X766998Y422344D01*
X765258Y419739D01*
X764647Y416667D01*
X765258Y413594D01*
X766998Y410990D01*
X769603Y409250D01*
X772675Y408638D01*
X776088Y404219D01*
Y347445D01*
X769102Y340459D01*
X767230Y335939D01*
Y290267D01*
X769102Y285747D01*
X840065Y214785D01*
Y17323D01*
X838886Y17088D01*
X835305Y14695D01*
X832912Y11114D01*
X832071Y6890D01*
Y0D01*
X817929D01*
Y6890D01*
X817088Y11114D01*
X814695Y14695D01*
X811114Y17088D01*
X806890Y17929D01*
X793110D01*
X788886Y17088D01*
X785305Y14695D01*
X782912Y11114D01*
X782071Y6890D01*
Y0D01*
X767929D01*
Y6890D01*
X767088Y11114D01*
X764695Y14695D01*
X761114Y17088D01*
X756890Y17929D01*
X743110D01*
X738886Y17088D01*
X735305Y14695D01*
X732912Y11114D01*
X732071Y6890D01*
Y0D01*
X717929D01*
Y6890D01*
X717088Y11114D01*
X714695Y14695D01*
X711114Y17088D01*
X706890Y17929D01*
X693110D01*
X688886Y17088D01*
X685305Y14695D01*
X682912Y11114D01*
X682071Y6890D01*
Y0D01*
X667929D01*
Y6890D01*
X667597Y8557D01*
X672827Y13787D01*
X674699Y18307D01*
Y110182D01*
X674878Y110255D01*
X679699Y111014D01*
X682544Y106756D01*
X687753Y103276D01*
X693898Y102053D01*
X700042Y103276D01*
X705251Y106756D01*
X708732Y111965D01*
X709954Y118110D01*
X708732Y124255D01*
X705251Y129464D01*
X700042Y132944D01*
X693898Y134167D01*
X687753Y132944D01*
X682544Y129464D01*
X679699Y125206D01*
X674878Y125965D01*
X674699Y126038D01*
Y240103D01*
X674878Y240177D01*
X679699Y240935D01*
X682544Y236678D01*
X687753Y233197D01*
X693898Y231975D01*
X700042Y233197D01*
X705251Y236678D01*
X708732Y241887D01*
X709954Y248031D01*
X708732Y254176D01*
X705251Y259385D01*
X700042Y262866D01*
X693898Y264088D01*
X687753Y262866D01*
X682544Y259385D01*
X679699Y255128D01*
X674878Y255887D01*
X674699Y255959D01*
Y301127D01*
X674878Y301200D01*
X679699Y301959D01*
X682544Y297701D01*
X687753Y294221D01*
X693898Y292999D01*
X700042Y294221D01*
X705251Y297701D01*
X708732Y302911D01*
X709954Y309055D01*
X708732Y315200D01*
X705251Y320409D01*
X700042Y323889D01*
X693898Y325112D01*
X687753Y323889D01*
X682544Y320409D01*
X679699Y316151D01*
X674878Y316910D01*
X674699Y316983D01*
Y402559D01*
X672827Y407079D01*
X664857Y415049D01*
Y459017D01*
X668307Y463428D01*
X671379Y464039D01*
X673984Y465780D01*
X678378D01*
X680983Y464039D01*
X684055Y463428D01*
X687127Y464039D01*
X689732Y465780D01*
X692192Y463834D01*
X694796Y462094D01*
X697869Y461483D01*
X700941Y462094D01*
X703546Y463834D01*
X705286Y466439D01*
X705897Y469511D01*
X705286Y472583D01*
X703546Y475188D01*
X700941Y476928D01*
X697869Y477539D01*
X694796Y476928D01*
X694664Y476840D01*
X691449Y478670D01*
X690988Y484114D01*
X694481Y487606D01*
X696353Y492126D01*
X699803Y494925D01*
X702875Y495536D01*
X705480Y497276D01*
X707220Y499880D01*
X707831Y502953D01*
X707220Y506025D01*
X705480Y508630D01*
X702875Y510370D01*
X699803Y510981D01*
X696353Y515393D01*
Y553505D01*
X699803Y557917D01*
X702875Y558528D01*
X705480Y560268D01*
X707220Y562873D01*
X707831Y565945D01*
X711866Y570380D01*
X719237D01*
X723271Y565945D01*
X723882Y562873D01*
X725622Y560268D01*
X728227Y558528D01*
X731299Y557917D01*
X734371Y558528D01*
X736976Y560268D01*
X738716Y562873D01*
X739327Y565945D01*
X742126Y570380D01*
X746646Y572252D01*
X764058Y589664D01*
X765868Y590024D01*
X768472Y591764D01*
X770212Y594369D01*
X770824Y597441D01*
X770212Y600513D01*
X768697Y602781D01*
X769087Y604538D01*
X770493Y607781D01*
X779528D01*
X784047Y609653D01*
X795554Y621160D01*
X797364Y621520D01*
X799968Y623260D01*
X801708Y625865D01*
X802320Y628937D01*
X801708Y632009D01*
X799968Y634614D01*
X797364Y636354D01*
X794291Y636965D01*
X791219Y636354D01*
X788614Y634614D01*
X786874Y632009D01*
X786514Y630200D01*
X777287Y620972D01*
X772231Y621414D01*
X770013Y625565D01*
X770212Y625865D01*
X770824Y628937D01*
X770212Y632009D01*
X768472Y634614D01*
X765868Y636354D01*
X764058Y636714D01*
X754520Y646252D01*
X750000Y648124D01*
X625311D01*
X623398Y652744D01*
X623614Y652961D01*
X625487Y657480D01*
Y664675D01*
X667018Y706206D01*
X746063D01*
X750583Y708078D01*
X788969Y746464D01*
X790841Y750984D01*
Y758179D01*
X809638Y776976D01*
X811510Y781496D01*
Y844894D01*
X816510Y848354D01*
X816929Y848271D01*
X820001Y848882D01*
X822606Y850622D01*
X824346Y853227D01*
X824957Y856299D01*
X824346Y859371D01*
X822606Y861976D01*
X821959Y868037D01*
X827050Y873128D01*
X828860Y873488D01*
X831464Y875229D01*
X833205Y877833D01*
X833816Y880905D01*
X838227Y884356D01*
X844793D01*
X849506Y879643D01*
D02*
G37*
G36*
X932071Y1093110D02*
X932912Y1088886D01*
X935305Y1085305D01*
X938886Y1082912D01*
X943110Y1082071D01*
X956890D01*
X958557Y1082403D01*
X1007388Y1033573D01*
Y1003464D01*
X1003346Y999170D01*
X1000274Y998559D01*
X997670Y996819D01*
X995929Y994214D01*
X995318Y991142D01*
X995929Y988069D01*
X997670Y985465D01*
X1000274Y983725D01*
X1003346Y983113D01*
X1007388Y978819D01*
Y845476D01*
X991543Y829632D01*
X990971Y828250D01*
X986523Y825446D01*
X984882Y825621D01*
X983268Y825942D01*
X980195Y825331D01*
X977591Y823590D01*
X975851Y820986D01*
X975239Y817913D01*
X975851Y814841D01*
X977591Y812236D01*
X977963Y811988D01*
X979059Y806012D01*
X963673Y790626D01*
X957697Y791722D01*
X957449Y792094D01*
X956801Y798155D01*
X967118Y808472D01*
X968990Y812992D01*
Y1037402D01*
X967118Y1041921D01*
X917597Y1091443D01*
X917929Y1093110D01*
Y1100000D01*
X932071D01*
Y1093110D01*
D02*
G37*
G36*
X750206Y835473D02*
X749846Y833661D01*
X750457Y830589D01*
X752197Y827985D01*
X753788Y826921D01*
X754846Y825864D01*
X755405Y821026D01*
X755378Y820986D01*
X754767Y817913D01*
X755378Y814841D01*
X757118Y812236D01*
X759723Y810496D01*
X762795Y809885D01*
X766246Y805473D01*
Y784144D01*
X765069Y782967D01*
X743739D01*
X739327Y786417D01*
X738716Y789490D01*
X736976Y792094D01*
X734371Y793835D01*
X731299Y794446D01*
X728227Y793835D01*
X725622Y792094D01*
X723882Y789490D01*
X723271Y786417D01*
X718859Y782967D01*
X705709D01*
X701189Y781095D01*
X617053Y696959D01*
X610992Y697606D01*
X608387Y699346D01*
X605315Y699957D01*
X602243Y699346D01*
X599638Y697606D01*
X594260D01*
X591655Y699346D01*
X588583Y699957D01*
X585510Y699346D01*
X582906Y697606D01*
X579496D01*
X576891Y699346D01*
X573819Y699957D01*
X570747Y699346D01*
X568142Y697606D01*
X563748D01*
X561143Y699346D01*
X558071Y699957D01*
X554999Y699346D01*
X552394Y697606D01*
X550654Y695001D01*
X550043Y691929D01*
X550654Y688857D01*
X552394Y686252D01*
X552766Y686003D01*
X553862Y680028D01*
X548630Y674795D01*
X547528Y672136D01*
X546562Y670196D01*
X542323Y668461D01*
X539250Y667850D01*
X536646Y666110D01*
X532252D01*
X529647Y667850D01*
X526575Y668461D01*
X523503Y667850D01*
X520898Y666110D01*
X516504D01*
X514141Y667688D01*
X513876Y667946D01*
X512590Y673209D01*
X582990Y743608D01*
X595472D01*
X599992Y745480D01*
X626567Y772055D01*
X628439Y776575D01*
Y800502D01*
X632947Y805010D01*
X639008Y804362D01*
X641613Y802622D01*
X644685Y802011D01*
X647758Y802622D01*
X650362Y804362D01*
X652102Y806967D01*
X652713Y810039D01*
X652102Y813112D01*
X650362Y815716D01*
X649715Y821777D01*
X653238Y825301D01*
X730315D01*
X734835Y827173D01*
X745919Y838257D01*
X750206Y835473D01*
D02*
G37*
G36*
X756503Y604538D02*
X756893Y602781D01*
X755378Y600513D01*
X755018Y598704D01*
X739478Y583164D01*
X694882D01*
X690362Y581292D01*
X685441Y576370D01*
X683568Y571850D01*
Y494774D01*
X676486Y487691D01*
X662402D01*
X657882Y485819D01*
X653945Y481882D01*
X652072Y477362D01*
Y412402D01*
X653945Y407882D01*
X661915Y399911D01*
Y20955D01*
X658557Y17597D01*
X656890Y17929D01*
X643110D01*
X638886Y17088D01*
X635305Y14695D01*
X632912Y11114D01*
X632071Y6890D01*
Y0D01*
X617929D01*
Y6890D01*
X617088Y11114D01*
X614695Y14695D01*
X611114Y17088D01*
X606890Y17929D01*
X593110D01*
X588886Y17088D01*
X585305Y14695D01*
X582912Y11114D01*
X582071Y6890D01*
Y0D01*
X567929D01*
Y6890D01*
X567088Y11114D01*
X564695Y14695D01*
X561114Y17088D01*
X556890Y17929D01*
X543110D01*
X538886Y17088D01*
X535305Y14695D01*
X532912Y11114D01*
X532071Y6890D01*
Y0D01*
X517929D01*
Y6890D01*
X517088Y11114D01*
X514695Y14695D01*
X511114Y17088D01*
X506890Y17929D01*
X493110D01*
X488886Y17088D01*
X485305Y14695D01*
X482912Y11114D01*
X482071Y6890D01*
Y0D01*
X467929D01*
Y6890D01*
X467597Y8557D01*
X472040Y13000D01*
X473912Y17520D01*
Y408744D01*
X477132Y411080D01*
X478912Y411738D01*
X481299Y411263D01*
X484372Y411874D01*
X486976Y413614D01*
X488716Y416219D01*
X489327Y419291D01*
X488716Y422364D01*
X486976Y424968D01*
X484834Y426400D01*
X484253Y427337D01*
X483369Y432006D01*
X536016Y484653D01*
X537888Y489173D01*
Y490890D01*
X542323Y494925D01*
X545395Y495536D01*
X548000Y497276D01*
X549740Y499880D01*
X550351Y502953D01*
X549740Y506025D01*
X548000Y508630D01*
X545395Y510370D01*
X542323Y510981D01*
X537888Y515015D01*
Y553882D01*
X542323Y557917D01*
X545395Y558528D01*
X548000Y560268D01*
X548463Y560962D01*
X552622Y558190D01*
X552011Y555118D01*
X552622Y552046D01*
X554362Y549441D01*
X553378Y546031D01*
X551638Y543427D01*
X551027Y540354D01*
X551638Y537282D01*
X553378Y534677D01*
X555983Y532937D01*
X559055Y532326D01*
X562127Y532937D01*
X566402Y531376D01*
X568142Y528772D01*
X570747Y527032D01*
X573819Y526420D01*
X576891Y527032D01*
X579496Y528772D01*
X581236Y531376D01*
X581847Y534449D01*
X581236Y537521D01*
X579496Y540126D01*
X576891Y541866D01*
X573819Y542477D01*
X570966Y541910D01*
X570650Y542132D01*
X568518Y548003D01*
X568898Y548726D01*
X573418Y550598D01*
X594087Y571268D01*
X595959Y575787D01*
Y588667D01*
X596591Y589199D01*
X600959Y590881D01*
X602243Y590024D01*
X605315Y589413D01*
X608387Y590024D01*
X610992Y591764D01*
X612732Y594369D01*
X613343Y597441D01*
X612732Y600513D01*
X611217Y602781D01*
X611607Y604538D01*
X613013Y607781D01*
X625095D01*
X625582Y607211D01*
X627310Y602781D01*
X626472Y601527D01*
X625861Y598454D01*
X626472Y595382D01*
X627256Y594209D01*
X624591Y589641D01*
X624046Y589750D01*
X620974Y589139D01*
X618369Y587398D01*
X616629Y584794D01*
X616018Y581721D01*
X616629Y578649D01*
X618369Y576044D01*
X620974Y574304D01*
X624046Y573693D01*
X627119Y574304D01*
X629723Y576044D01*
X631463Y578649D01*
X632074Y581721D01*
X631463Y584794D01*
X630680Y585966D01*
X633344Y590535D01*
X633889Y590426D01*
X636962Y591037D01*
X639566Y592778D01*
X640930Y594818D01*
X643806Y595401D01*
X646412Y595420D01*
X646882Y594717D01*
X649487Y592976D01*
X652559Y592365D01*
X655631Y592976D01*
X658236Y594717D01*
X659976Y597321D01*
X660587Y600394D01*
X660112Y602781D01*
X660770Y604561D01*
X663107Y607781D01*
X692105D01*
X693511Y604538D01*
X693901Y602781D01*
X692386Y600513D01*
X691775Y597441D01*
X692386Y594369D01*
X694126Y591764D01*
X696731Y590024D01*
X699803Y589413D01*
X702875Y590024D01*
X705480Y591764D01*
X707220Y594369D01*
X707831Y597441D01*
X707220Y600513D01*
X705705Y602781D01*
X706095Y604538D01*
X707501Y607781D01*
X723601D01*
X725007Y604538D01*
X725397Y602781D01*
X723882Y600513D01*
X723271Y597441D01*
X723882Y594369D01*
X725622Y591764D01*
X728227Y590024D01*
X731299Y589413D01*
X734371Y590024D01*
X736976Y591764D01*
X738716Y594369D01*
X739327Y597441D01*
X738716Y600513D01*
X737201Y602781D01*
X737591Y604538D01*
X738997Y607781D01*
X755098D01*
X756503Y604538D01*
D02*
G37*
G36*
X471818Y625888D02*
X472075Y625622D01*
X473654Y623260D01*
X474301Y617199D01*
X431504Y574402D01*
X429632Y569882D01*
Y563369D01*
X428780Y562401D01*
X424631Y559913D01*
X423228Y560192D01*
X420156Y559581D01*
X417551Y557841D01*
X415811Y555236D01*
X415200Y552164D01*
X415811Y549092D01*
X417551Y546487D01*
X418513Y545845D01*
X419659Y540884D01*
X419516Y539776D01*
X402865Y523126D01*
X361269D01*
X358597Y528126D01*
X358796Y528424D01*
X359407Y531496D01*
X358796Y534569D01*
X358606Y534853D01*
X361206Y539853D01*
X365726Y541725D01*
X412319Y588319D01*
X417744Y586673D01*
X417780Y586495D01*
X419520Y583890D01*
X422125Y582150D01*
X425197Y581539D01*
X428269Y582150D01*
X430874Y583890D01*
X432614Y586495D01*
X433225Y589567D01*
X432750Y591954D01*
X433020Y593393D01*
X435299Y597621D01*
X438208Y598827D01*
X466555Y627173D01*
X471818Y625888D01*
D02*
G37*
G36*
X1093110Y632071D02*
X1100000D01*
Y617929D01*
X1093110D01*
X1088886Y617088D01*
X1085305Y614695D01*
X1082912Y611114D01*
X1082071Y606890D01*
Y593110D01*
X1082912Y588886D01*
X1085305Y585305D01*
X1088886Y582912D01*
X1093110Y582071D01*
X1100000D01*
Y567929D01*
X1093110D01*
X1088886Y567088D01*
X1085305Y564695D01*
X1082912Y561114D01*
X1082071Y556890D01*
Y543110D01*
X1082912Y538886D01*
X1085305Y535305D01*
X1088886Y532912D01*
X1093110Y532071D01*
X1100000D01*
Y517929D01*
X1093110D01*
X1088886Y517088D01*
X1085305Y514695D01*
X1082912Y511114D01*
X1082071Y506890D01*
Y493110D01*
X1082912Y488886D01*
X1085305Y485305D01*
X1088886Y482912D01*
X1093110Y482071D01*
X1100000D01*
Y467929D01*
X1093110D01*
X1088886Y467088D01*
X1085305Y464695D01*
X1082912Y461114D01*
X1082071Y456890D01*
Y443110D01*
X1082912Y438886D01*
X1085305Y435305D01*
X1088886Y432912D01*
X1093110Y432071D01*
X1100000D01*
Y417929D01*
X1093110D01*
X1088886Y417088D01*
X1085305Y414695D01*
X1082912Y411114D01*
X1082071Y406890D01*
Y393110D01*
X1082912Y388886D01*
X1085305Y385305D01*
X1088886Y382912D01*
X1093110Y382071D01*
X1100000D01*
Y367929D01*
X1093110D01*
X1088886Y367088D01*
X1085305Y364695D01*
X1082912Y361114D01*
X1082071Y356890D01*
Y343110D01*
X1082912Y338886D01*
X1085305Y335305D01*
X1088886Y332912D01*
X1093110Y332071D01*
X1100000D01*
Y317929D01*
X1093110D01*
X1088886Y317088D01*
X1085305Y314695D01*
X1082912Y311114D01*
X1082071Y306890D01*
Y293110D01*
X1082912Y288886D01*
X1085305Y285305D01*
X1088886Y282912D01*
X1093110Y282071D01*
X1100000D01*
Y267929D01*
X1093110D01*
X1088886Y267088D01*
X1085305Y264695D01*
X1082912Y261114D01*
X1082071Y256890D01*
Y243110D01*
X1082912Y238886D01*
X1085305Y235305D01*
X1088886Y232912D01*
X1093110Y232071D01*
X1100000D01*
Y217929D01*
X1093110D01*
X1088886Y217088D01*
X1085305Y214695D01*
X1082912Y211114D01*
X1082071Y206890D01*
Y193110D01*
X1082912Y188886D01*
X1085305Y185305D01*
X1088886Y182912D01*
X1093110Y182071D01*
X1100000D01*
Y167929D01*
X1093110D01*
X1088886Y167088D01*
X1085305Y164695D01*
X1082912Y161114D01*
X1082071Y156890D01*
Y143110D01*
X1082912Y138886D01*
X1085305Y135305D01*
X1088886Y132912D01*
X1093110Y132071D01*
X1100000D01*
Y117929D01*
X1093110D01*
X1088886Y117088D01*
X1085305Y114695D01*
X1082912Y111114D01*
X1082071Y106890D01*
Y93110D01*
X1082912Y88886D01*
X1085305Y85305D01*
X1088886Y82912D01*
X1093110Y82071D01*
X1100000D01*
Y67929D01*
X1093110D01*
X1088886Y67088D01*
X1085305Y64695D01*
X1082912Y61114D01*
X1082071Y56890D01*
Y43110D01*
X1082912Y38886D01*
X1085305Y35305D01*
X1088886Y32912D01*
X1093110Y32071D01*
X1100000D01*
Y0D01*
X1067929D01*
Y6890D01*
X1067088Y11114D01*
X1064695Y14695D01*
X1061114Y17088D01*
X1056890Y17929D01*
X1043110D01*
X1038886Y17088D01*
X1035305Y14695D01*
X1032912Y11114D01*
X1032071Y6890D01*
Y0D01*
X1017929D01*
Y6890D01*
X1017597Y8557D01*
X1038969Y29929D01*
X1040841Y34449D01*
Y103942D01*
X1045841Y106737D01*
X1049213Y106067D01*
X1053821Y106983D01*
X1057728Y109594D01*
X1060338Y113501D01*
X1061255Y118109D01*
X1060338Y122718D01*
X1057728Y126624D01*
X1053821Y129235D01*
X1049213Y130151D01*
X1045841Y129481D01*
X1040841Y132276D01*
Y276526D01*
X1045841Y279199D01*
X1046140Y278999D01*
X1049213Y278387D01*
X1052285Y278999D01*
X1054889Y280739D01*
X1056630Y283344D01*
X1057241Y286416D01*
X1056630Y289488D01*
X1054889Y292093D01*
X1052285Y293833D01*
X1049213Y294444D01*
X1046140Y293833D01*
X1045841Y293633D01*
X1040841Y296306D01*
Y302116D01*
X1045841Y304789D01*
X1046140Y304589D01*
X1049213Y303978D01*
X1052285Y304589D01*
X1054889Y306329D01*
X1056630Y308934D01*
X1057241Y312006D01*
X1056630Y315078D01*
X1054889Y317683D01*
X1052285Y319423D01*
X1049213Y320034D01*
X1046140Y319423D01*
X1045841Y319223D01*
X1040841Y321896D01*
Y327708D01*
X1045841Y330381D01*
X1046140Y330181D01*
X1049213Y329570D01*
X1052285Y330181D01*
X1054889Y331921D01*
X1056630Y334526D01*
X1057241Y337598D01*
X1056630Y340670D01*
X1054889Y343275D01*
X1052285Y345015D01*
X1049213Y345626D01*
X1046140Y345015D01*
X1045841Y344815D01*
X1040841Y347488D01*
Y353299D01*
X1045841Y355971D01*
X1046140Y355771D01*
X1049213Y355160D01*
X1052285Y355771D01*
X1054889Y357512D01*
X1056630Y360116D01*
X1057241Y363189D01*
X1056630Y366261D01*
X1054889Y368865D01*
X1052285Y370606D01*
X1049213Y371217D01*
X1046140Y370606D01*
X1045841Y370406D01*
X1040841Y373078D01*
Y378889D01*
X1045841Y381562D01*
X1046140Y381362D01*
X1049213Y380751D01*
X1052285Y381362D01*
X1054889Y383102D01*
X1056630Y385707D01*
X1057241Y388779D01*
X1056630Y391851D01*
X1054889Y394456D01*
X1052285Y396196D01*
X1049213Y396807D01*
X1046140Y396196D01*
X1045841Y395996D01*
X1040841Y398669D01*
Y404480D01*
X1045841Y407153D01*
X1046140Y406953D01*
X1049213Y406341D01*
X1052285Y406953D01*
X1054889Y408693D01*
X1056439Y411012D01*
X1058658Y411297D01*
X1059452D01*
X1061671Y411012D01*
X1063221Y408693D01*
X1065825Y406953D01*
X1068898Y406341D01*
X1071970Y406953D01*
X1074574Y408693D01*
X1076315Y411298D01*
X1076926Y414370D01*
X1076315Y417442D01*
X1074574Y420047D01*
X1071970Y421787D01*
X1068898Y422398D01*
X1065825Y421787D01*
X1063221Y420047D01*
X1061671Y417727D01*
X1059452Y417442D01*
X1058658D01*
X1056439Y417727D01*
X1054889Y420047D01*
X1052285Y421787D01*
X1049213Y422398D01*
X1046140Y421787D01*
X1045841Y421587D01*
X1040841Y424260D01*
Y430070D01*
X1045841Y432743D01*
X1046140Y432543D01*
X1049213Y431932D01*
X1052285Y432543D01*
X1054889Y434283D01*
X1056439Y436603D01*
X1058658Y436888D01*
X1059452D01*
X1061671Y436603D01*
X1063221Y434283D01*
X1065825Y432543D01*
X1068898Y431932D01*
X1071970Y432543D01*
X1074574Y434283D01*
X1076315Y436888D01*
X1076926Y439960D01*
X1076315Y443033D01*
X1074574Y445637D01*
X1071970Y447377D01*
X1068898Y447988D01*
X1065825Y447377D01*
X1063221Y445637D01*
X1061671Y443318D01*
X1059452Y443033D01*
X1058658D01*
X1056439Y443318D01*
X1054889Y445637D01*
X1052285Y447377D01*
X1049213Y447988D01*
X1046140Y447377D01*
X1045841Y447177D01*
X1040841Y449850D01*
Y451772D01*
X1038969Y456292D01*
X1022541Y472719D01*
X1022181Y474529D01*
X1020441Y477134D01*
X1017836Y478874D01*
X1014764Y479485D01*
X1011692Y478874D01*
X1009087Y477134D01*
X1007347Y474529D01*
X1006736Y471457D01*
X1007347Y468384D01*
X1009087Y465780D01*
X1011692Y464039D01*
X1013501Y463680D01*
X1028057Y449124D01*
Y293695D01*
X1023057Y290899D01*
X1019685Y291570D01*
X1015077Y290653D01*
X1011170Y288043D01*
X1008559Y284136D01*
X1007643Y279528D01*
X1008559Y274919D01*
X1011170Y271012D01*
X1015077Y268402D01*
X1019685Y267485D01*
X1023057Y268156D01*
X1028057Y265361D01*
Y226697D01*
X1023057Y225181D01*
X1022409Y226150D01*
X1019804Y227890D01*
X1016732Y228501D01*
X1013660Y227890D01*
X1011055Y226150D01*
X1009315Y223545D01*
X1008704Y220473D01*
X1008998Y218994D01*
X1006287Y215421D01*
X1005147Y214676D01*
X1004921Y214721D01*
X1001849Y214110D01*
X1000292Y213070D01*
X998787Y215323D01*
X996183Y217063D01*
X993110Y217674D01*
X990038Y217063D01*
X987433Y215323D01*
X985693Y212718D01*
X985082Y209646D01*
X985693Y206573D01*
X987433Y203969D01*
X990038Y202228D01*
X993110Y201617D01*
X996183Y202228D01*
X997739Y203268D01*
X999244Y201016D01*
X1001849Y199276D01*
X1004921Y198665D01*
X1007993Y199276D01*
X1010598Y201016D01*
X1012338Y203620D01*
X1012949Y206693D01*
X1012655Y208171D01*
X1015367Y211745D01*
X1016506Y212490D01*
X1016732Y212445D01*
X1019804Y213056D01*
X1022409Y214796D01*
X1023057Y215765D01*
X1028057Y214249D01*
Y37096D01*
X1008557Y17597D01*
X1006890Y17929D01*
X993110D01*
X988886Y17088D01*
X985305Y14695D01*
X982912Y11114D01*
X982071Y6890D01*
Y0D01*
X967929D01*
Y6890D01*
X967088Y11114D01*
X964695Y14695D01*
X961114Y17088D01*
X956890Y17929D01*
X943110D01*
X938886Y17088D01*
X937655Y16266D01*
X914144Y39777D01*
X914002Y40885D01*
X915147Y45846D01*
X916109Y46488D01*
X917172Y48080D01*
X918230Y49137D01*
X923067Y49696D01*
X923108Y49669D01*
X926180Y49058D01*
X929253Y49669D01*
X931857Y51410D01*
X936251D01*
X938856Y49669D01*
X941928Y49058D01*
X945000Y49669D01*
X947605Y51410D01*
X949345Y54014D01*
X949353Y54054D01*
X954580Y56548D01*
X954777Y56525D01*
X957676Y55948D01*
X960749Y56559D01*
X963353Y58300D01*
X965093Y60904D01*
X965705Y63977D01*
X965093Y67049D01*
X963353Y69654D01*
X960749Y71394D01*
X957676Y72005D01*
X954604Y71394D01*
X951999Y69654D01*
X950259Y67049D01*
X950251Y67009D01*
X945025Y64515D01*
X944828Y64538D01*
X941928Y65115D01*
X938856Y64504D01*
X936251Y62764D01*
X931857D01*
X929253Y64504D01*
X926180Y65115D01*
X923108Y64504D01*
X920503Y62764D01*
X919440Y61172D01*
X918382Y60115D01*
X913545Y59556D01*
X913505Y59583D01*
X910432Y60194D01*
X907360Y59583D01*
X904755Y57842D01*
X904113Y56880D01*
X899152Y55735D01*
X898044Y55877D01*
X894459Y59462D01*
X894317Y60570D01*
X895462Y65531D01*
X896424Y66174D01*
X898164Y68778D01*
X898775Y71850D01*
X898164Y74923D01*
X898137Y74963D01*
X898697Y79801D01*
X899754Y80858D01*
X901345Y81921D01*
X903086Y84526D01*
X903697Y87598D01*
X903086Y90671D01*
X901345Y93275D01*
Y97670D01*
X903086Y100274D01*
X903697Y103346D01*
X903086Y106419D01*
X901345Y109023D01*
Y113418D01*
X903086Y116022D01*
X903697Y119094D01*
X903086Y122167D01*
X901345Y124771D01*
Y129166D01*
X903086Y131770D01*
X903697Y134843D01*
X903086Y137915D01*
X901345Y140519D01*
X898741Y142260D01*
X895668Y142871D01*
X895250Y142788D01*
X890250Y146248D01*
Y160788D01*
X893701Y165200D01*
X896773Y165811D01*
X899378Y167551D01*
X901118Y170156D01*
X901729Y173228D01*
X901118Y176301D01*
X899378Y178905D01*
X896773Y180645D01*
X893701Y181257D01*
X890250Y185668D01*
Y196042D01*
X893493Y197448D01*
X895250Y197838D01*
X897518Y196323D01*
X900590Y195712D01*
X903663Y196323D01*
X906267Y198064D01*
X908008Y200668D01*
X908619Y203740D01*
X908008Y206813D01*
X906267Y209417D01*
X903663Y211158D01*
X900590Y211769D01*
X897518Y211158D01*
X895250Y209643D01*
X893493Y210033D01*
X890250Y211439D01*
Y219005D01*
X888378Y223525D01*
X806764Y305140D01*
X807348Y311268D01*
X808071Y311853D01*
X811143Y312464D01*
X812721Y313517D01*
X816329Y312428D01*
X817844Y311385D01*
X818485Y308168D01*
X820660Y304912D01*
X839361Y286211D01*
X842616Y284036D01*
X846457Y283272D01*
X851060D01*
X853733Y278272D01*
X853048Y277246D01*
X852131Y272638D01*
X853048Y268029D01*
X855658Y264123D01*
X859565Y261512D01*
X864173Y260595D01*
X868782Y261512D01*
X872688Y264123D01*
X875299Y268029D01*
X876216Y272638D01*
X875299Y277246D01*
X872688Y281153D01*
X870585Y282558D01*
X869583Y287705D01*
X869776Y288655D01*
X881112Y299991D01*
X883287Y303246D01*
X884051Y307087D01*
Y379702D01*
X888015Y383666D01*
X897847D01*
X898524Y383238D01*
X901562Y378665D01*
X901420Y377953D01*
X902032Y374880D01*
X903772Y372276D01*
X905266Y371277D01*
X906462Y369132D01*
X906692Y365375D01*
X905968Y364291D01*
X905357Y361219D01*
X905968Y358147D01*
X907709Y355542D01*
X910313Y353802D01*
X913386Y353190D01*
X916458Y353802D01*
X919063Y355542D01*
X920803Y358147D01*
X921414Y361219D01*
X920803Y364291D01*
X919063Y366896D01*
X917568Y367894D01*
X916372Y370040D01*
X916142Y373797D01*
X916866Y374880D01*
X917477Y377953D01*
X917335Y378665D01*
X920374Y383238D01*
X921051Y383666D01*
X923228D01*
X927069Y384429D01*
X930324Y386605D01*
X951978Y408258D01*
X957773Y409036D01*
X961613Y408272D01*
X965454Y409036D01*
X968709Y411211D01*
X970885Y414467D01*
X971649Y418307D01*
Y465332D01*
X1042529Y536212D01*
X1044705Y539467D01*
X1049127Y542186D01*
X1049213Y542169D01*
X1052285Y542780D01*
X1054889Y544520D01*
X1056439Y546839D01*
X1058658Y547125D01*
X1059452D01*
X1061671Y546839D01*
X1063221Y544520D01*
X1065825Y542780D01*
X1068898Y542169D01*
X1071970Y542780D01*
X1074574Y544520D01*
X1076315Y547125D01*
X1076926Y550197D01*
X1076315Y553269D01*
X1074574Y555874D01*
X1071970Y557614D01*
X1068898Y558225D01*
X1065825Y557614D01*
X1063221Y555874D01*
X1061671Y553555D01*
X1059452Y553269D01*
X1058658D01*
X1056439Y553555D01*
X1054889Y555874D01*
X1052285Y557614D01*
X1049213Y558225D01*
X1045468Y562579D01*
Y576552D01*
X1071072Y602156D01*
X1073248Y605412D01*
X1074012Y609252D01*
Y614587D01*
X1077756Y618940D01*
X1080829Y619551D01*
X1083433Y621292D01*
X1085174Y623896D01*
X1085785Y626969D01*
X1085325Y629277D01*
X1087398Y631531D01*
X1089328Y632824D01*
X1093110Y632071D01*
D02*
G37*
G36*
X832191Y495384D02*
Y363728D01*
X819307Y350845D01*
X817556Y350631D01*
X816095Y351963D01*
X815998Y358139D01*
X822433Y364575D01*
X824306Y369094D01*
Y447835D01*
X822433Y452354D01*
X802068Y472719D01*
X801708Y474529D01*
X799968Y477134D01*
X799705Y477310D01*
X797718Y480425D01*
X798464Y483694D01*
X798756Y484131D01*
X799367Y487203D01*
X798756Y490275D01*
X797016Y492880D01*
X794411Y494620D01*
X791339Y495231D01*
X788951Y494756D01*
X787173Y495414D01*
X783951Y497750D01*
Y508152D01*
X787172Y510488D01*
X788951Y511146D01*
X791339Y510671D01*
X794411Y511282D01*
X797016Y513022D01*
X798756Y515627D01*
X799367Y518699D01*
X798756Y521771D01*
X802688Y524886D01*
X832191Y495384D01*
D02*
G37*
%LPC*%
G36*
X769685Y1068068D02*
X766613Y1067457D01*
X764008Y1065716D01*
X762268Y1063112D01*
X761657Y1060039D01*
X762268Y1056967D01*
X764008Y1054362D01*
X766613Y1052622D01*
X769685Y1052011D01*
X772757Y1052622D01*
X775362Y1054362D01*
X777102Y1056967D01*
X777713Y1060039D01*
X777102Y1063112D01*
X775362Y1065716D01*
X772757Y1067457D01*
X769685Y1068068D01*
D02*
G37*
G36*
X738189D02*
X735116Y1067457D01*
X732512Y1065716D01*
X730772Y1063112D01*
X730160Y1060039D01*
X730772Y1056967D01*
X732512Y1054362D01*
X735116Y1052622D01*
X738189Y1052011D01*
X741261Y1052622D01*
X743866Y1054362D01*
X745606Y1056967D01*
X746217Y1060039D01*
X745606Y1063112D01*
X743866Y1065716D01*
X741261Y1067457D01*
X738189Y1068068D01*
D02*
G37*
G36*
X762795Y1014918D02*
X759723Y1014307D01*
X757118Y1012567D01*
X755378Y1009962D01*
X754767Y1006890D01*
X755378Y1003817D01*
X757118Y1001213D01*
X759723Y999473D01*
X762795Y998861D01*
X765868Y999473D01*
X768472Y1001213D01*
X770212Y1003817D01*
X770824Y1006890D01*
X770212Y1009962D01*
X768472Y1012567D01*
X765868Y1014307D01*
X762795Y1014918D01*
D02*
G37*
G36*
X605315Y986375D02*
X602243Y985764D01*
X599638Y984024D01*
X597898Y981419D01*
X597287Y978347D01*
X597898Y975274D01*
X599638Y972670D01*
X602243Y970929D01*
X605315Y970318D01*
X608387Y970929D01*
X610992Y972670D01*
X612732Y975274D01*
X613343Y978347D01*
X612732Y981419D01*
X610992Y984024D01*
X608387Y985764D01*
X605315Y986375D01*
D02*
G37*
G36*
X762795Y983422D02*
X759723Y982811D01*
X757118Y981071D01*
X755378Y978466D01*
X754767Y975394D01*
X755378Y972321D01*
X757118Y969717D01*
X759723Y967976D01*
X762795Y967365D01*
X765868Y967976D01*
X768472Y969717D01*
X770212Y972321D01*
X770824Y975394D01*
X770212Y978466D01*
X768472Y981071D01*
X765868Y982811D01*
X762795Y983422D01*
D02*
G37*
G36*
X636811Y940115D02*
X633739Y939504D01*
X631134Y937763D01*
X629394Y935159D01*
X628783Y932087D01*
X629394Y929014D01*
X631134Y926410D01*
X633739Y924669D01*
X636811Y924058D01*
X639883Y924669D01*
X642488Y926410D01*
X644228Y929014D01*
X644839Y932087D01*
X644228Y935159D01*
X642488Y937763D01*
X639883Y939504D01*
X636811Y940115D01*
D02*
G37*
G36*
X731299Y923383D02*
X728227Y922772D01*
X725622Y921031D01*
X723882Y918427D01*
X723271Y915355D01*
X723882Y912282D01*
X725622Y909678D01*
X728227Y907937D01*
X731299Y907326D01*
X734371Y907937D01*
X736976Y909677D01*
X740614Y906615D01*
X740003Y903543D01*
X740614Y900471D01*
X742355Y897866D01*
X744959Y896126D01*
X748032Y895515D01*
X751104Y896126D01*
X753708Y897866D01*
X755449Y900471D01*
X756060Y903543D01*
X755449Y906616D01*
X753708Y909220D01*
X751104Y910961D01*
X748032Y911572D01*
X744959Y910961D01*
X742355Y909221D01*
X738717Y912282D01*
X739327Y915355D01*
X738716Y918427D01*
X736976Y921031D01*
X734371Y922772D01*
X731299Y923383D01*
D02*
G37*
G36*
X293976Y1047989D02*
X290904Y1047378D01*
X288299Y1045638D01*
X286750Y1043318D01*
X284531Y1043033D01*
X283737D01*
X281518Y1043318D01*
X279968Y1045638D01*
X277364Y1047378D01*
X274291Y1047989D01*
X271219Y1047378D01*
X268614Y1045638D01*
X266874Y1043033D01*
X266263Y1039961D01*
X266874Y1036888D01*
X268614Y1034284D01*
X271219Y1032543D01*
X274291Y1031932D01*
X277364Y1032543D01*
X279968Y1034284D01*
X281518Y1036603D01*
X283737Y1036888D01*
X284531D01*
X286750Y1036603D01*
X288299Y1034284D01*
X290904Y1032543D01*
X293976Y1031932D01*
X297049Y1032543D01*
X299653Y1034284D01*
X301394Y1036888D01*
X302005Y1039961D01*
X301394Y1043033D01*
X299653Y1045638D01*
X297049Y1047378D01*
X293976Y1047989D01*
D02*
G37*
G36*
X234921D02*
X231849Y1047378D01*
X229244Y1045638D01*
X227695Y1043318D01*
X225476Y1043033D01*
X224682D01*
X222463Y1043318D01*
X220913Y1045638D01*
X218309Y1047378D01*
X215236Y1047989D01*
X212164Y1047378D01*
X209559Y1045638D01*
X208010Y1043318D01*
X205792Y1043033D01*
X204995D01*
X202778Y1043318D01*
X201228Y1045637D01*
X198623Y1047378D01*
X195551Y1047989D01*
X192479Y1047378D01*
X189874Y1045637D01*
X188325Y1043318D01*
X186105Y1043033D01*
X185312D01*
X183093Y1043318D01*
X181543Y1045637D01*
X178938Y1047378D01*
X175866Y1047989D01*
X172794Y1047378D01*
X170189Y1045637D01*
X168639Y1043318D01*
X166420Y1043033D01*
X165627D01*
X163408Y1043318D01*
X161858Y1045637D01*
X159253Y1047378D01*
X156181Y1047989D01*
X153109Y1047378D01*
X150504Y1045637D01*
X148764Y1043033D01*
X148153Y1039960D01*
X148764Y1036888D01*
X150504Y1034284D01*
X153109Y1032543D01*
X156181Y1031932D01*
X159253Y1032543D01*
X161858Y1034284D01*
X163408Y1036603D01*
X165627Y1036888D01*
X166420D01*
X168639Y1036603D01*
X170189Y1034284D01*
X172794Y1032543D01*
X175866Y1031932D01*
X178938Y1032543D01*
X181543Y1034284D01*
X183093Y1036603D01*
X185312Y1036888D01*
X186105D01*
X188325Y1036603D01*
X189874Y1034284D01*
X192479Y1032543D01*
X195551Y1031932D01*
X198623Y1032543D01*
X201228Y1034284D01*
X202778Y1036603D01*
X204996Y1036888D01*
X205792D01*
X208010Y1036603D01*
X209559Y1034284D01*
X212164Y1032543D01*
X215236Y1031932D01*
X218309Y1032543D01*
X220913Y1034284D01*
X222463Y1036603D01*
X224682Y1036888D01*
X225476D01*
X227695Y1036603D01*
X229244Y1034284D01*
X231849Y1032543D01*
X234921Y1031932D01*
X237994Y1032543D01*
X240598Y1034284D01*
X242338Y1036888D01*
X242950Y1039961D01*
X242338Y1043033D01*
X240598Y1045638D01*
X237994Y1047378D01*
X234921Y1047989D01*
D02*
G37*
G36*
X98425Y1058302D02*
X93817Y1057386D01*
X89910Y1054775D01*
X87299Y1050868D01*
X86383Y1046260D01*
X87299Y1041652D01*
X89910Y1037745D01*
X93817Y1035134D01*
X98425Y1034218D01*
X103034Y1035134D01*
X106941Y1037745D01*
X109551Y1041652D01*
X110468Y1046260D01*
X109551Y1050868D01*
X106941Y1054775D01*
X103034Y1057386D01*
X98425Y1058302D01*
D02*
G37*
G36*
X80709Y943068D02*
X77636Y942457D01*
X75032Y940716D01*
X73291Y938112D01*
X72680Y935039D01*
X73291Y931967D01*
X75032Y929362D01*
X77636Y927622D01*
X80709Y927011D01*
X83781Y927622D01*
X86385Y929362D01*
X88126Y931967D01*
X88737Y935039D01*
X88126Y938112D01*
X86385Y940716D01*
X83781Y942457D01*
X80709Y943068D01*
D02*
G37*
G36*
X126653Y920036D02*
X123581Y919425D01*
X120977Y917685D01*
X119236Y915080D01*
X118625Y912008D01*
X119236Y908936D01*
X120977Y906331D01*
X123581Y904591D01*
X126653Y903980D01*
X129726Y904591D01*
X132330Y906331D01*
X134071Y908936D01*
X134682Y912008D01*
X134071Y915080D01*
X132330Y917685D01*
X129726Y919425D01*
X126653Y920036D01*
D02*
G37*
G36*
X80709Y844641D02*
X77636Y844030D01*
X75032Y842290D01*
X73292Y839685D01*
X72680Y836613D01*
X73292Y833541D01*
X75032Y830936D01*
X77636Y829196D01*
X80709Y828585D01*
X83781Y829196D01*
X86386Y830936D01*
X88126Y833541D01*
X88737Y836613D01*
X88126Y839685D01*
X86386Y842290D01*
X83781Y844030D01*
X80709Y844641D01*
D02*
G37*
G36*
X510827Y573973D02*
X507755Y573362D01*
X505150Y571622D01*
X503410Y569017D01*
X502798Y565945D01*
X503410Y562873D01*
X505150Y560268D01*
X507755Y558528D01*
X510827Y557917D01*
X513899Y558528D01*
X516504Y560268D01*
X518244Y562873D01*
X518855Y565945D01*
X518244Y569017D01*
X516504Y571622D01*
X513899Y573362D01*
X510827Y573973D01*
D02*
G37*
G36*
Y542477D02*
X507755Y541866D01*
X505150Y540126D01*
X503410Y537521D01*
X502798Y534449D01*
X503410Y531376D01*
X505150Y528772D01*
X507755Y527032D01*
X510827Y526420D01*
X513899Y527032D01*
X516504Y528772D01*
X518244Y531376D01*
X518855Y534449D01*
X518244Y537521D01*
X516504Y540126D01*
X513899Y541866D01*
X510827Y542477D01*
D02*
G37*
G36*
Y510981D02*
X507755Y510370D01*
X505150Y508630D01*
X503410Y506025D01*
X502798Y502953D01*
X503410Y499880D01*
X505150Y497276D01*
X507755Y495536D01*
X510827Y494925D01*
X513899Y495536D01*
X516504Y497276D01*
X518244Y499880D01*
X518855Y502953D01*
X518244Y506025D01*
X516504Y508630D01*
X513899Y510370D01*
X510827Y510981D01*
D02*
G37*
G36*
X277559Y479640D02*
X271415Y478418D01*
X266206Y474937D01*
X262725Y469728D01*
X261503Y463584D01*
X262725Y457439D01*
X266206Y452230D01*
X271415Y448749D01*
X277559Y447527D01*
X283704Y448749D01*
X288913Y452230D01*
X292394Y457439D01*
X293616Y463584D01*
X292394Y469728D01*
X288913Y474937D01*
X283704Y478418D01*
X277559Y479640D01*
D02*
G37*
G36*
X212599Y434210D02*
X209526Y433599D01*
X206922Y431858D01*
X205372Y429539D01*
X203153Y429254D01*
X202359D01*
X200140Y429539D01*
X198590Y431858D01*
X195986Y433599D01*
X192913Y434210D01*
X189841Y433599D01*
X187237Y431858D01*
X185496Y429254D01*
X184885Y426182D01*
X185496Y423109D01*
X187237Y420505D01*
X189841Y418764D01*
X192913Y418153D01*
X195986Y418764D01*
X198590Y420505D01*
X200140Y422824D01*
X202359Y423109D01*
X203153D01*
X205372Y422824D01*
X206922Y420505D01*
X209526Y418764D01*
X212599Y418153D01*
X215671Y418764D01*
X218275Y420505D01*
X220016Y423109D01*
X220627Y426182D01*
X220016Y429254D01*
X218275Y431858D01*
X215671Y433599D01*
X212599Y434210D01*
D02*
G37*
G36*
X259842Y434210D02*
X256770Y433599D01*
X254166Y431858D01*
X252616Y429539D01*
X250397Y429254D01*
X249603D01*
X247384Y429539D01*
X245834Y431858D01*
X243230Y433599D01*
X240157Y434210D01*
X237085Y433599D01*
X234481Y431858D01*
X232740Y429254D01*
X232129Y426181D01*
X232740Y423109D01*
X234481Y420504D01*
X237085Y418764D01*
X240157Y418153D01*
X243230Y418764D01*
X245834Y420504D01*
X247384Y422824D01*
X249603Y423109D01*
X250397D01*
X252616Y422824D01*
X254166Y420504D01*
X256770Y418764D01*
X259842Y418153D01*
X262915Y418764D01*
X265519Y420504D01*
X267260Y423109D01*
X267871Y426181D01*
X267260Y429254D01*
X265519Y431858D01*
X262915Y433599D01*
X259842Y434210D01*
D02*
G37*
G36*
X287402D02*
X284329Y433599D01*
X281725Y431858D01*
X279985Y429254D01*
X279373Y426181D01*
X279985Y423109D01*
X281725Y420504D01*
X284329Y418764D01*
X287402Y418153D01*
X290474Y418764D01*
X293079Y420504D01*
X294819Y423109D01*
X295430Y426181D01*
X294819Y429254D01*
X293079Y431858D01*
X290474Y433599D01*
X287402Y434210D01*
D02*
G37*
G36*
X348819Y329639D02*
X342674Y328417D01*
X337465Y324936D01*
X333985Y319727D01*
X332762Y313582D01*
X333985Y307438D01*
X337465Y302229D01*
X342674Y298748D01*
X348819Y297526D01*
X354964Y298748D01*
X360173Y302229D01*
X363653Y307438D01*
X364875Y313582D01*
X363653Y319727D01*
X360173Y324936D01*
X354964Y328417D01*
X348819Y329639D01*
D02*
G37*
G36*
X198819D02*
X192674Y328417D01*
X187465Y324936D01*
X183985Y319727D01*
X182762Y313582D01*
X183985Y307438D01*
X187465Y302229D01*
X192674Y298748D01*
X198819Y297526D01*
X204964Y298748D01*
X210173Y302229D01*
X213653Y307438D01*
X214875Y313582D01*
X213653Y319727D01*
X210173Y324936D01*
X204964Y328417D01*
X198819Y329639D01*
D02*
G37*
G36*
X68111Y325111D02*
X61966Y323889D01*
X56757Y320409D01*
X53276Y315200D01*
X52054Y309055D01*
X53276Y302910D01*
X56757Y297701D01*
X61966Y294221D01*
X68111Y292998D01*
X74255Y294221D01*
X79465Y297701D01*
X82945Y302910D01*
X84167Y309055D01*
X82945Y315200D01*
X79465Y320409D01*
X74255Y323889D01*
X68111Y325111D01*
D02*
G37*
G36*
X374213Y281651D02*
X371140Y281039D01*
X368536Y279299D01*
X366795Y276695D01*
X366184Y273622D01*
X366795Y270550D01*
X368536Y267945D01*
X371140Y266205D01*
X374213Y265594D01*
X377285Y266205D01*
X379889Y267945D01*
X381630Y270550D01*
X382241Y273622D01*
X381630Y276695D01*
X379889Y279299D01*
X377285Y281039D01*
X374213Y281651D01*
D02*
G37*
G36*
X270669Y252200D02*
X266061Y251283D01*
X262154Y248673D01*
X259544Y244766D01*
X258627Y240158D01*
X259544Y235549D01*
X262154Y231642D01*
X266061Y229032D01*
X270669Y228115D01*
X275278Y229032D01*
X279185Y231642D01*
X281795Y235549D01*
X282712Y240158D01*
X281795Y244766D01*
X279185Y248673D01*
X275278Y251283D01*
X270669Y252200D01*
D02*
G37*
G36*
X68111Y272116D02*
X58894Y270283D01*
X51080Y265062D01*
X45859Y257248D01*
X44026Y248031D01*
X45859Y238814D01*
X51080Y231001D01*
X58894Y225780D01*
X68111Y223946D01*
X77328Y225780D01*
X85141Y231001D01*
X90362Y238814D01*
X92195Y248031D01*
X90362Y257248D01*
X85141Y265062D01*
X77328Y270283D01*
X68111Y272116D01*
D02*
G37*
G36*
X148819Y179639D02*
X142674Y178417D01*
X137465Y174936D01*
X133985Y169727D01*
X132762Y163583D01*
X133985Y157438D01*
X137465Y152229D01*
X142674Y148748D01*
X148819Y147526D01*
X154964Y148748D01*
X160173Y152229D01*
X163653Y157438D01*
X164875Y163583D01*
X163653Y169727D01*
X160173Y174936D01*
X154964Y178417D01*
X148819Y179639D01*
D02*
G37*
G36*
X298819Y179639D02*
X292674Y178417D01*
X287465Y174936D01*
X283985Y169727D01*
X282762Y163582D01*
X283985Y157438D01*
X287465Y152229D01*
X292674Y148748D01*
X298819Y147526D01*
X304964Y148748D01*
X310173Y152229D01*
X313653Y157438D01*
X314875Y163582D01*
X313653Y169727D01*
X310173Y174936D01*
X304964Y178417D01*
X298819Y179639D01*
D02*
G37*
G36*
X348819Y121611D02*
X345747Y121000D01*
X343142Y119259D01*
X341402Y116655D01*
X340791Y113582D01*
X341402Y110510D01*
X343142Y107906D01*
X345747Y106165D01*
X348819Y105554D01*
X351891Y106165D01*
X354496Y107906D01*
X356236Y110510D01*
X356847Y113582D01*
X356236Y116655D01*
X354496Y119259D01*
X351891Y121000D01*
X348819Y121611D01*
D02*
G37*
G36*
X398819Y121611D02*
X395747Y121000D01*
X393142Y119259D01*
X391402Y116655D01*
X390791Y113582D01*
X391402Y110510D01*
X393142Y107906D01*
X395747Y106165D01*
X398819Y105554D01*
X401891Y106165D01*
X404496Y107906D01*
X406236Y110510D01*
X406847Y113582D01*
X406236Y116655D01*
X404496Y119259D01*
X401891Y121000D01*
X398819Y121611D01*
D02*
G37*
G36*
X248819D02*
X245747Y121000D01*
X243142Y119259D01*
X241402Y116655D01*
X240791Y113582D01*
X241402Y110510D01*
X243142Y107906D01*
X245747Y106165D01*
X248819Y105554D01*
X251891Y106165D01*
X254496Y107906D01*
X256236Y110510D01*
X256847Y113582D01*
X256236Y116655D01*
X254496Y119259D01*
X251891Y121000D01*
X248819Y121611D01*
D02*
G37*
G36*
X198819Y121611D02*
X195747Y120999D01*
X193142Y119259D01*
X191402Y116655D01*
X190791Y113582D01*
X191402Y110510D01*
X193142Y107905D01*
X195747Y106165D01*
X198819Y105554D01*
X201891Y106165D01*
X204496Y107905D01*
X206236Y110510D01*
X206847Y113582D01*
X206236Y116655D01*
X204496Y119259D01*
X201891Y120999D01*
X198819Y121611D01*
D02*
G37*
G36*
X353346Y44446D02*
X350274Y43835D01*
X347669Y42094D01*
X345929Y39490D01*
X345318Y36417D01*
X345929Y33345D01*
X347669Y30741D01*
X350274Y29000D01*
X353346Y28389D01*
X356418Y29000D01*
X359023Y30741D01*
X360763Y33345D01*
X361375Y36417D01*
X360763Y39490D01*
X359023Y42094D01*
X356418Y43835D01*
X353346Y44446D01*
D02*
G37*
G36*
X248032D02*
X244959Y43835D01*
X242355Y42094D01*
X240614Y39490D01*
X240003Y36417D01*
X240614Y33345D01*
X242355Y30741D01*
X244959Y29000D01*
X248032Y28389D01*
X251104Y29000D01*
X253709Y30741D01*
X255449Y33345D01*
X256060Y36417D01*
X255449Y39490D01*
X253709Y42094D01*
X251104Y43835D01*
X248032Y44446D01*
D02*
G37*
G36*
X1063976Y1021808D02*
X1060904Y1021197D01*
X1058299Y1019456D01*
X1056559Y1016852D01*
X1055948Y1013779D01*
X1056559Y1010707D01*
X1058299Y1008103D01*
X1060904Y1006362D01*
X1063976Y1005751D01*
X1067049Y1006362D01*
X1069653Y1008103D01*
X1071393Y1010707D01*
X1072005Y1013779D01*
X1071393Y1016852D01*
X1069653Y1019456D01*
X1067049Y1021197D01*
X1063976Y1021808D01*
D02*
G37*
G36*
X891732Y1068068D02*
X888660Y1067457D01*
X886055Y1065716D01*
X884315Y1063112D01*
X883704Y1060039D01*
X884315Y1056967D01*
X886055Y1054362D01*
X888660Y1052622D01*
X891732Y1052011D01*
X894804Y1052622D01*
X897409Y1054362D01*
X899149Y1056967D01*
X899760Y1060039D01*
X899149Y1063112D01*
X897409Y1065716D01*
X894804Y1067457D01*
X891732Y1068068D01*
D02*
G37*
G36*
X904528Y999170D02*
X901455Y998559D01*
X898851Y996819D01*
X897110Y994214D01*
X896499Y991142D01*
X897110Y988069D01*
X898851Y985465D01*
X901455Y983725D01*
X904528Y983113D01*
X907600Y983725D01*
X910205Y985465D01*
X911945Y988069D01*
X912556Y991142D01*
X911945Y994214D01*
X910205Y996819D01*
X907600Y998559D01*
X904528Y999170D01*
D02*
G37*
G36*
X890747Y841690D02*
X887675Y841079D01*
X885070Y839339D01*
X883330Y836734D01*
X882719Y833662D01*
X883330Y830590D01*
X885070Y827985D01*
X887675Y826245D01*
X890747Y825634D01*
X893820Y826245D01*
X896424Y827985D01*
X898164Y830590D01*
X898776Y833662D01*
X898164Y836734D01*
X896424Y839339D01*
X893820Y841079D01*
X890747Y841690D01*
D02*
G37*
G36*
X904528Y821020D02*
X901455Y820409D01*
X898851Y818669D01*
X897110Y816064D01*
X896499Y812992D01*
X897110Y809920D01*
X898851Y807315D01*
X901455Y805575D01*
X904528Y804964D01*
X907600Y805575D01*
X910204Y807315D01*
X911945Y809920D01*
X912556Y812992D01*
X911945Y816064D01*
X910204Y818669D01*
X907600Y820409D01*
X904528Y821020D01*
D02*
G37*
G36*
Y795430D02*
X901455Y794819D01*
X898851Y793078D01*
X897110Y790474D01*
X896499Y787402D01*
X897110Y784329D01*
X898851Y781725D01*
X901455Y779984D01*
X904528Y779373D01*
X907600Y779984D01*
X910204Y781725D01*
X911945Y784329D01*
X912556Y787402D01*
X911945Y790474D01*
X910204Y793078D01*
X907600Y794819D01*
X904528Y795430D01*
D02*
G37*
G36*
X825787Y825942D02*
X822715Y825331D01*
X820111Y823590D01*
X818370Y820986D01*
X817759Y817913D01*
X818370Y814841D01*
X820111Y812236D01*
X822715Y810496D01*
X825787Y809885D01*
X828860Y810496D01*
X831464Y812236D01*
X833205Y814841D01*
X833816Y817913D01*
X833205Y820986D01*
X831464Y823590D01*
X828860Y825331D01*
X825787Y825942D01*
D02*
G37*
G36*
X762795Y699957D02*
X759723Y699346D01*
X757118Y697606D01*
X755378Y695001D01*
X754767Y691929D01*
X755378Y688857D01*
X757118Y686252D01*
X759723Y684512D01*
X762795Y683901D01*
X765868Y684512D01*
X768472Y686252D01*
X770212Y688857D01*
X770824Y691929D01*
X770212Y695001D01*
X768472Y697606D01*
X765868Y699346D01*
X762795Y699957D01*
D02*
G37*
G36*
X794291Y668461D02*
X791219Y667850D01*
X788614Y666110D01*
X786874Y663505D01*
X786263Y660433D01*
X786874Y657361D01*
X788614Y654756D01*
X791219Y653016D01*
X794291Y652405D01*
X797364Y653016D01*
X799968Y654756D01*
X801708Y657361D01*
X802320Y660433D01*
X801708Y663505D01*
X799968Y666110D01*
X797364Y667850D01*
X794291Y668461D01*
D02*
G37*
G36*
X944882Y558223D02*
X941809Y557612D01*
X939205Y555872D01*
X937465Y553268D01*
X936854Y550195D01*
X937465Y547123D01*
X939205Y544518D01*
X941809Y542778D01*
X944882Y542167D01*
X947954Y542778D01*
X950559Y544518D01*
X952299Y547123D01*
X952910Y550195D01*
X952299Y553268D01*
X950559Y555872D01*
X947954Y557612D01*
X944882Y558223D01*
D02*
G37*
G36*
X913386D02*
X910313Y557612D01*
X907709Y555872D01*
X905968Y553268D01*
X905357Y550195D01*
X905968Y547123D01*
X907709Y544518D01*
X910313Y542778D01*
X913386Y542167D01*
X916458Y542778D01*
X919063Y544518D01*
X920803Y547123D01*
X921414Y550195D01*
X920803Y553268D01*
X919063Y555872D01*
X916458Y557612D01*
X913386Y558223D01*
D02*
G37*
G36*
X944882Y526727D02*
X941809Y526116D01*
X939205Y524376D01*
X937465Y521771D01*
X936854Y518699D01*
X937465Y515627D01*
X939205Y513022D01*
X941809Y511282D01*
X944882Y510671D01*
X947954Y511282D01*
X950559Y513022D01*
X952299Y515627D01*
X952910Y518699D01*
X952299Y521771D01*
X950559Y524376D01*
X947954Y526116D01*
X944882Y526727D01*
D02*
G37*
G36*
X913386D02*
X910313Y526116D01*
X907709Y524376D01*
X905968Y521771D01*
X905357Y518699D01*
X905968Y515627D01*
X907709Y513022D01*
X910313Y511282D01*
X913386Y510671D01*
X916458Y511282D01*
X919063Y513022D01*
X920803Y515627D01*
X921414Y518699D01*
X920803Y521771D01*
X919063Y524376D01*
X916458Y526116D01*
X913386Y526727D01*
D02*
G37*
G36*
X731299Y510981D02*
X728227Y510370D01*
X725622Y508630D01*
X723882Y506025D01*
X723271Y502953D01*
X723882Y499880D01*
X725622Y497276D01*
X728227Y495536D01*
X731299Y494925D01*
X734371Y495536D01*
X736976Y497276D01*
X738716Y499880D01*
X739327Y502953D01*
X738716Y506025D01*
X736976Y508630D01*
X734371Y510370D01*
X731299Y510981D01*
D02*
G37*
G36*
X762832Y443089D02*
X759760Y442478D01*
X757156Y440738D01*
X755415Y438133D01*
X754804Y435061D01*
X755415Y431988D01*
X757156Y429384D01*
X759760Y427643D01*
X762832Y427032D01*
X765905Y427643D01*
X768509Y429384D01*
X770250Y431988D01*
X770861Y435061D01*
X770250Y438133D01*
X768509Y440738D01*
X765905Y442478D01*
X762832Y443089D01*
D02*
G37*
G36*
X921260Y441099D02*
X918188Y440488D01*
X915583Y438748D01*
X913843Y436143D01*
X913231Y433071D01*
X913843Y429999D01*
X915583Y427394D01*
X918188Y425654D01*
X921260Y425043D01*
X924332Y425654D01*
X926937Y427394D01*
X928677Y429999D01*
X929288Y433071D01*
X928677Y436143D01*
X926937Y438748D01*
X924332Y440488D01*
X921260Y441099D01*
D02*
G37*
G36*
X725394Y426335D02*
X722321Y425724D01*
X719717Y423984D01*
X717976Y421379D01*
X717365Y418307D01*
X717976Y415235D01*
X719717Y412630D01*
X722321Y410890D01*
X725394Y410279D01*
X728466Y410890D01*
X731071Y412630D01*
X732811Y415235D01*
X733422Y418307D01*
X732811Y421379D01*
X731071Y423984D01*
X728466Y425724D01*
X725394Y426335D01*
D02*
G37*
G36*
X747046Y410588D02*
X743974Y409976D01*
X741369Y408236D01*
X739629Y405632D01*
X739018Y402559D01*
X739629Y399487D01*
X741369Y396882D01*
X743974Y395142D01*
X747046Y394531D01*
X750118Y395142D01*
X752723Y396882D01*
X754463Y399487D01*
X755074Y402559D01*
X754463Y405632D01*
X752723Y408236D01*
X750118Y409976D01*
X747046Y410588D01*
D02*
G37*
G36*
X741142Y353501D02*
X738069Y352890D01*
X735465Y351149D01*
X733725Y348545D01*
X733114Y345472D01*
X733725Y342400D01*
X735465Y339796D01*
X738069Y338055D01*
X741142Y337444D01*
X744214Y338055D01*
X746819Y339796D01*
X748559Y342400D01*
X749170Y345472D01*
X748559Y348545D01*
X746819Y351149D01*
X744214Y352890D01*
X741142Y353501D01*
D02*
G37*
G36*
X750000Y285587D02*
X746928Y284976D01*
X744323Y283236D01*
X742583Y280631D01*
X741972Y277559D01*
X742583Y274487D01*
X744323Y271882D01*
X746928Y270142D01*
X750000Y269531D01*
X753072Y270142D01*
X755677Y271882D01*
X757417Y274487D01*
X758028Y277559D01*
X757417Y280631D01*
X755677Y283236D01*
X753072Y284976D01*
X750000Y285587D01*
D02*
G37*
G36*
X750984Y232438D02*
X747912Y231827D01*
X745307Y230086D01*
X743567Y227482D01*
X742956Y224409D01*
X743567Y221337D01*
X745307Y218732D01*
X747912Y216992D01*
X750984Y216381D01*
X754057Y216992D01*
X756661Y218732D01*
X758402Y221337D01*
X759013Y224409D01*
X758402Y227482D01*
X756661Y230086D01*
X754057Y231827D01*
X750984Y232438D01*
D02*
G37*
G36*
X787402Y211767D02*
X784329Y211156D01*
X781725Y209415D01*
X779984Y206811D01*
X779373Y203738D01*
X779984Y200666D01*
X781725Y198062D01*
X784329Y196321D01*
X787402Y195710D01*
X790474Y196321D01*
X793078Y198062D01*
X794819Y200666D01*
X795430Y203738D01*
X794819Y206811D01*
X793078Y209415D01*
X790474Y211156D01*
X787402Y211767D01*
D02*
G37*
G36*
X779527Y170430D02*
X776455Y169819D01*
X773850Y168078D01*
X772110Y165474D01*
X771499Y162401D01*
X772110Y159329D01*
X773850Y156725D01*
X776455Y154984D01*
X779527Y154373D01*
X782600Y154984D01*
X785204Y156725D01*
X786944Y159329D01*
X787556Y162401D01*
X786944Y165474D01*
X785204Y168078D01*
X782600Y169819D01*
X779527Y170430D01*
D02*
G37*
G36*
X787402Y148775D02*
X784329Y148164D01*
X781725Y146423D01*
X779984Y143819D01*
X779373Y140746D01*
X779984Y137674D01*
X781725Y135070D01*
X784329Y133329D01*
X787402Y132718D01*
X790474Y133329D01*
X793078Y135070D01*
X794819Y137674D01*
X795430Y140746D01*
X794819Y143819D01*
X793078Y146423D01*
X790474Y148164D01*
X787402Y148775D01*
D02*
G37*
G36*
X755905Y148775D02*
X752833Y148163D01*
X750229Y146423D01*
X748488Y143819D01*
X747877Y140746D01*
X748488Y137674D01*
X750229Y135069D01*
X752833Y133329D01*
X755905Y132718D01*
X758978Y133329D01*
X761582Y135069D01*
X763323Y137674D01*
X763934Y140746D01*
X763323Y143819D01*
X761582Y146423D01*
X758978Y148163D01*
X755905Y148775D01*
D02*
G37*
G36*
X787402Y85782D02*
X784329Y85171D01*
X781725Y83431D01*
X779984Y80826D01*
X779373Y77754D01*
X779984Y74682D01*
X781725Y72077D01*
X784329Y70337D01*
X787402Y69726D01*
X790474Y70337D01*
X793078Y72077D01*
X794819Y74682D01*
X795430Y77754D01*
X794819Y80826D01*
X793078Y83431D01*
X790474Y85171D01*
X787402Y85782D01*
D02*
G37*
G36*
X755905D02*
X752833Y85171D01*
X750229Y83431D01*
X748488Y80826D01*
X747877Y77754D01*
X748488Y74682D01*
X750229Y72077D01*
X752833Y70337D01*
X755905Y69726D01*
X758978Y70337D01*
X761582Y72077D01*
X763323Y74682D01*
X763934Y77754D01*
X763323Y80826D01*
X761582Y83431D01*
X758978Y85171D01*
X755905Y85782D01*
D02*
G37*
G36*
X694882Y90782D02*
X690273Y89866D01*
X686366Y87255D01*
X683756Y83348D01*
X682839Y78740D01*
X683756Y74132D01*
X686366Y70225D01*
X690273Y67614D01*
X694882Y66698D01*
X699490Y67614D01*
X703397Y70225D01*
X706007Y74132D01*
X706924Y78740D01*
X706007Y83348D01*
X703397Y87255D01*
X699490Y89866D01*
X694882Y90782D01*
D02*
G37*
G36*
X795276Y47398D02*
X792203Y46787D01*
X789599Y45047D01*
X787858Y42442D01*
X787247Y39370D01*
X787858Y36298D01*
X789599Y33693D01*
X792203Y31953D01*
X795276Y31342D01*
X798348Y31953D01*
X800952Y33693D01*
X802693Y36298D01*
X803304Y39370D01*
X802693Y42442D01*
X800952Y45047D01*
X798348Y46787D01*
X795276Y47398D01*
D02*
G37*
G36*
X668307Y576926D02*
X665235Y576315D01*
X662630Y574575D01*
X660890Y571970D01*
X660279Y568898D01*
X660890Y565826D01*
X662630Y563221D01*
X665235Y561481D01*
X668307Y560870D01*
X671379Y561481D01*
X673984Y563221D01*
X675724Y565826D01*
X676335Y568898D01*
X675724Y571970D01*
X673984Y574575D01*
X671379Y576315D01*
X668307Y576926D01*
D02*
G37*
G36*
X594517Y559275D02*
X590677Y558511D01*
X587421Y556335D01*
X585246Y553080D01*
X584482Y549239D01*
X585246Y545399D01*
X587421Y542143D01*
X590677Y539968D01*
X594517Y539204D01*
X598357Y539968D01*
X601613Y542143D01*
X602186Y543001D01*
X605552Y544942D01*
X608524Y544170D01*
X609132Y543764D01*
X612205Y543153D01*
X615277Y543764D01*
X617881Y545504D01*
X619622Y548109D01*
X620233Y551181D01*
X619622Y554253D01*
X617881Y556858D01*
X615277Y558598D01*
X612205Y559209D01*
X609132Y558598D01*
X607046Y557204D01*
X606528Y556858D01*
X606527Y556858D01*
X605197Y556716D01*
X600623Y556997D01*
X598357Y558511D01*
X594517Y559275D01*
D02*
G37*
G36*
X652559Y542477D02*
X649487Y541866D01*
X646882Y540125D01*
X645142Y537521D01*
X644731Y535455D01*
X642508Y533480D01*
X639876Y532220D01*
X637795Y532634D01*
X634723Y532023D01*
X632118Y530283D01*
X630378Y527678D01*
X629767Y524606D01*
X630378Y521534D01*
X632118Y518929D01*
X634723Y517189D01*
X637795Y516577D01*
X640868Y517189D01*
X643472Y518929D01*
X645212Y521534D01*
X645623Y523599D01*
X647847Y525574D01*
X650478Y526834D01*
X652559Y526420D01*
X655631Y527031D01*
X658236Y528772D01*
X659976Y531376D01*
X660587Y534449D01*
X659976Y537521D01*
X658236Y540125D01*
X655631Y541866D01*
X652559Y542477D01*
D02*
G37*
G36*
X670275Y530666D02*
X667203Y530055D01*
X664599Y528315D01*
X662858Y525710D01*
X662247Y522638D01*
X662858Y519565D01*
X664599Y516961D01*
X666466Y515713D01*
X666529Y512710D01*
X665938Y510510D01*
X665235Y510370D01*
X662630Y508630D01*
X660890Y506025D01*
X660279Y502953D01*
X660890Y499880D01*
X662630Y497276D01*
X665235Y495536D01*
X668307Y494925D01*
X671379Y495536D01*
X673984Y497276D01*
X675724Y499880D01*
X676335Y502953D01*
X675724Y506025D01*
X673984Y508630D01*
X672116Y509878D01*
X672054Y512881D01*
X672644Y515081D01*
X673348Y515221D01*
X675952Y516961D01*
X677693Y519565D01*
X678304Y522638D01*
X677693Y525710D01*
X675952Y528315D01*
X673348Y530055D01*
X670275Y530666D01*
D02*
G37*
G36*
X636811Y510981D02*
X633739Y510370D01*
X631134Y508630D01*
X629394Y506025D01*
X628783Y502953D01*
X629394Y499880D01*
X631134Y497276D01*
X633739Y495536D01*
X636811Y494925D01*
X639883Y495536D01*
X642488Y497276D01*
X644228Y499880D01*
X644839Y502953D01*
X644228Y506025D01*
X642488Y508630D01*
X639883Y510370D01*
X636811Y510981D01*
D02*
G37*
G36*
X605315Y508028D02*
X602243Y507417D01*
X599638Y505677D01*
X597898Y503072D01*
X597287Y500000D01*
X597898Y496928D01*
X599638Y494323D01*
X602243Y492583D01*
X605315Y491972D01*
X608387Y492583D01*
X610992Y494323D01*
X612732Y496928D01*
X613343Y500000D01*
X612732Y503072D01*
X610992Y505677D01*
X608387Y507417D01*
X605315Y508028D01*
D02*
G37*
G36*
X636811Y479485D02*
X633739Y478874D01*
X631134Y477134D01*
X629394Y474529D01*
X628783Y471457D01*
X629394Y468384D01*
X631134Y465780D01*
X633739Y464039D01*
X636811Y463428D01*
X639883Y464039D01*
X642488Y465780D01*
X644228Y468384D01*
X644839Y471457D01*
X644228Y474529D01*
X642488Y477134D01*
X639883Y478874D01*
X636811Y479485D01*
D02*
G37*
G36*
X605315D02*
X602243Y478874D01*
X599638Y477134D01*
X597898Y474529D01*
X597287Y471457D01*
X597898Y468384D01*
X599638Y465780D01*
X602243Y464039D01*
X605315Y463428D01*
X608387Y464039D01*
X610992Y465780D01*
X612732Y468384D01*
X613343Y471457D01*
X612732Y474529D01*
X610992Y477134D01*
X608387Y478874D01*
X605315Y479485D01*
D02*
G37*
G36*
X542323D02*
X539250Y478874D01*
X536646Y477134D01*
X534906Y474529D01*
X534294Y471457D01*
X534906Y468384D01*
X536646Y465780D01*
X539250Y464039D01*
X542323Y463428D01*
X545395Y464039D01*
X548000Y465780D01*
X549740Y468384D01*
X550351Y471457D01*
X549740Y474529D01*
X548000Y477134D01*
X545395Y478874D01*
X542323Y479485D01*
D02*
G37*
G36*
X512795Y427320D02*
X509723Y426709D01*
X507118Y424968D01*
X505378Y422364D01*
X504767Y419291D01*
X505378Y416219D01*
X507118Y413614D01*
X509723Y411874D01*
X512795Y411263D01*
X515868Y411874D01*
X518472Y413614D01*
X520212Y416219D01*
X520824Y419291D01*
X520212Y422364D01*
X518472Y424968D01*
X515868Y426709D01*
X512795Y427320D01*
D02*
G37*
G36*
X623032Y426335D02*
X619959Y425724D01*
X617355Y423984D01*
X615615Y421379D01*
X615003Y418307D01*
X615615Y415235D01*
X617355Y412630D01*
X619959Y410890D01*
X623032Y410279D01*
X626104Y410890D01*
X628709Y412630D01*
X630449Y415235D01*
X631060Y418307D01*
X630449Y421379D01*
X628709Y423984D01*
X626104Y425724D01*
X623032Y426335D01*
D02*
G37*
G36*
X498819Y329639D02*
X492674Y328417D01*
X487465Y324936D01*
X483985Y319727D01*
X482762Y313582D01*
X483985Y307438D01*
X487465Y302229D01*
X492674Y298748D01*
X498819Y297526D01*
X504964Y298748D01*
X510173Y302229D01*
X513653Y307438D01*
X514875Y313582D01*
X513653Y319727D01*
X510173Y324936D01*
X504964Y328417D01*
X498819Y329639D01*
D02*
G37*
G36*
X623031Y244249D02*
X619959Y243638D01*
X617354Y241897D01*
X615614Y239293D01*
X615003Y236220D01*
X615614Y233148D01*
X617354Y230544D01*
X619959Y228803D01*
X623031Y228192D01*
X626103Y228803D01*
X628708Y230544D01*
X630448Y233148D01*
X631059Y236220D01*
X630448Y239293D01*
X628708Y241897D01*
X626103Y243638D01*
X623031Y244249D01*
D02*
G37*
G36*
Y216690D02*
X619959Y216079D01*
X617354Y214338D01*
X615614Y211734D01*
X615003Y208661D01*
X615614Y205589D01*
X617354Y202984D01*
X619959Y201244D01*
X623031Y200633D01*
X626103Y201244D01*
X628708Y202984D01*
X630448Y205589D01*
X631059Y208661D01*
X630448Y211734D01*
X628708Y214338D01*
X626103Y216079D01*
X623031Y216690D01*
D02*
G37*
G36*
X598819Y179639D02*
X592674Y178417D01*
X587465Y174936D01*
X583985Y169727D01*
X582763Y163583D01*
X583985Y157438D01*
X587465Y152229D01*
X592674Y148748D01*
X598819Y147526D01*
X604964Y148748D01*
X610173Y152229D01*
X613653Y157438D01*
X614876Y163583D01*
X613653Y169727D01*
X610173Y174936D01*
X604964Y178417D01*
X598819Y179639D01*
D02*
G37*
G36*
X648819Y121611D02*
X645747Y121000D01*
X643142Y119259D01*
X641402Y116655D01*
X640791Y113582D01*
X641402Y110510D01*
X643142Y107906D01*
X645747Y106165D01*
X648819Y105554D01*
X651891Y106165D01*
X654496Y107906D01*
X656236Y110510D01*
X656847Y113582D01*
X656236Y116655D01*
X654496Y119259D01*
X651891Y121000D01*
X648819Y121611D01*
D02*
G37*
G36*
X498819D02*
X495747Y121000D01*
X493142Y119259D01*
X491402Y116655D01*
X490791Y113582D01*
X491402Y110510D01*
X493142Y107906D01*
X495747Y106165D01*
X498819Y105554D01*
X501891Y106165D01*
X504496Y107906D01*
X506236Y110510D01*
X506847Y113582D01*
X506236Y116655D01*
X504496Y119259D01*
X501891Y121000D01*
X498819Y121611D01*
D02*
G37*
G36*
X496063Y44446D02*
X492991Y43835D01*
X490386Y42094D01*
X488646Y39490D01*
X488035Y36417D01*
X488646Y33345D01*
X490386Y30741D01*
X492991Y29000D01*
X496063Y28389D01*
X499135Y29000D01*
X501740Y30741D01*
X503480Y33345D01*
X504091Y36417D01*
X503480Y39490D01*
X501740Y42094D01*
X499135Y43835D01*
X496063Y44446D01*
D02*
G37*
G36*
X645669Y44446D02*
X642597Y43834D01*
X639993Y42094D01*
X638252Y39490D01*
X637641Y36417D01*
X638252Y33345D01*
X639993Y30740D01*
X642597Y29000D01*
X645669Y28389D01*
X648742Y29000D01*
X651346Y30740D01*
X653087Y33345D01*
X653698Y36417D01*
X653087Y39490D01*
X651346Y42094D01*
X648742Y43834D01*
X645669Y44446D01*
D02*
G37*
G36*
X1065945Y583816D02*
X1062872Y583205D01*
X1060268Y581465D01*
X1058527Y578860D01*
X1057916Y575788D01*
X1058527Y572715D01*
X1060268Y570111D01*
X1062872Y568370D01*
X1065945Y567759D01*
X1069017Y568370D01*
X1071622Y570111D01*
X1073362Y572715D01*
X1073973Y575788D01*
X1073362Y578860D01*
X1071622Y581465D01*
X1069017Y583205D01*
X1065945Y583816D01*
D02*
G37*
G36*
X1068898Y532635D02*
X1065825Y532024D01*
X1063221Y530283D01*
X1061480Y527679D01*
X1060869Y524606D01*
X1061480Y521534D01*
X1063221Y518929D01*
X1065825Y517189D01*
X1068898Y516578D01*
X1071970Y517189D01*
X1074574Y518929D01*
X1076315Y521534D01*
X1076926Y524606D01*
X1076315Y527679D01*
X1074574Y530283D01*
X1071970Y532024D01*
X1068898Y532635D01*
D02*
G37*
G36*
X1012795Y426335D02*
X1009723Y425724D01*
X1007119Y423984D01*
X1005378Y421379D01*
X1004767Y418307D01*
X1005378Y415235D01*
X1007119Y412630D01*
X1009723Y410890D01*
X1012795Y410279D01*
X1015868Y410890D01*
X1018472Y412630D01*
X1020213Y415235D01*
X1020824Y418307D01*
X1020213Y421379D01*
X1018472Y423984D01*
X1015868Y425724D01*
X1012795Y426335D01*
D02*
G37*
G36*
X1012795Y400745D02*
X1009723Y400134D01*
X1007118Y398393D01*
X1005378Y395789D01*
X1004767Y392716D01*
X1005378Y389644D01*
X1007118Y387040D01*
X1009723Y385299D01*
X1012795Y384688D01*
X1015867Y385299D01*
X1018472Y387040D01*
X1020212Y389644D01*
X1020823Y392716D01*
X1020212Y395789D01*
X1018472Y398393D01*
X1015867Y400134D01*
X1012795Y400745D01*
D02*
G37*
G36*
X964614Y385015D02*
X961542Y384404D01*
X958937Y382664D01*
X957197Y380059D01*
X956586Y376987D01*
X957197Y373915D01*
X958937Y371310D01*
X961542Y369570D01*
X964614Y368959D01*
X967686Y369570D01*
X970291Y371310D01*
X972031Y373915D01*
X972642Y376987D01*
X972031Y380059D01*
X970291Y382664D01*
X967686Y384404D01*
X964614Y385015D01*
D02*
G37*
G36*
X1012795Y375154D02*
X1009723Y374543D01*
X1007118Y372803D01*
X1005378Y370198D01*
X1004767Y367126D01*
X1005378Y364054D01*
X1007118Y361449D01*
X1009723Y359709D01*
X1012795Y359098D01*
X1015867Y359709D01*
X1018472Y361449D01*
X1020212Y364054D01*
X1020823Y367126D01*
X1020212Y370198D01*
X1018472Y372803D01*
X1015867Y374543D01*
X1012795Y375154D01*
D02*
G37*
G36*
X934055Y354485D02*
X930983Y353874D01*
X928378Y352134D01*
X926638Y349529D01*
X926027Y346457D01*
X926638Y343384D01*
X928378Y340780D01*
X930983Y339039D01*
X934055Y338428D01*
X937127Y339039D01*
X939732Y340780D01*
X941472Y343384D01*
X942083Y346457D01*
X941472Y349529D01*
X939732Y352134D01*
X937127Y353874D01*
X934055Y354485D01*
D02*
G37*
G36*
X985236Y351163D02*
X982164Y350552D01*
X979559Y348812D01*
X977819Y346207D01*
X977208Y343135D01*
X977819Y340063D01*
X979559Y337458D01*
X982164Y335718D01*
X985236Y335107D01*
X988309Y335718D01*
X990913Y337458D01*
X992654Y340063D01*
X993265Y343135D01*
X992654Y346207D01*
X990913Y348812D01*
X988309Y350552D01*
X985236Y351163D01*
D02*
G37*
G36*
X913386Y337751D02*
X910313Y337140D01*
X907709Y335400D01*
X905968Y332795D01*
X905357Y329723D01*
X905968Y326650D01*
X907709Y324046D01*
X910313Y322305D01*
X913386Y321694D01*
X916458Y322305D01*
X919063Y324046D01*
X920803Y326650D01*
X921414Y329723D01*
X920803Y332795D01*
X919063Y335400D01*
X916458Y337140D01*
X913386Y337751D01*
D02*
G37*
G36*
X1012795Y323973D02*
X1009723Y323362D01*
X1007118Y321622D01*
X1005378Y319017D01*
X1004767Y315945D01*
X1005378Y312873D01*
X1007118Y310268D01*
X1009723Y308528D01*
X1012795Y307916D01*
X1015868Y308528D01*
X1018472Y310268D01*
X1020212Y312873D01*
X1020824Y315945D01*
X1020212Y319017D01*
X1018472Y321622D01*
X1015868Y323362D01*
X1012795Y323973D01*
D02*
G37*
G36*
X944882Y306255D02*
X941809Y305644D01*
X939205Y303904D01*
X937465Y301299D01*
X936854Y298227D01*
X937465Y295154D01*
X939205Y292550D01*
X941809Y290810D01*
X944882Y290198D01*
X947954Y290810D01*
X950559Y292550D01*
X952299Y295154D01*
X952910Y298227D01*
X952299Y301299D01*
X950559Y303904D01*
X947954Y305644D01*
X944882Y306255D01*
D02*
G37*
G36*
X913386D02*
X910313Y305644D01*
X907709Y303904D01*
X905968Y301299D01*
X905357Y298227D01*
X905968Y295154D01*
X907709Y292550D01*
X910313Y290810D01*
X913386Y290198D01*
X916458Y290810D01*
X919063Y292550D01*
X920803Y295154D01*
X921414Y298227D01*
X920803Y301299D01*
X919063Y303904D01*
X916458Y305644D01*
X913386Y306255D01*
D02*
G37*
G36*
X936024Y251138D02*
X932951Y250527D01*
X930347Y248787D01*
X927921D01*
X925316Y250527D01*
X922244Y251138D01*
X919172Y250527D01*
X916567Y248787D01*
X914827Y246182D01*
X914216Y243110D01*
X914827Y240038D01*
X916567Y237433D01*
X919172Y235693D01*
X922244Y235082D01*
X925316Y235693D01*
X927921Y237433D01*
X930347D01*
X932951Y235693D01*
X936024Y235082D01*
X939096Y235693D01*
X941701Y237433D01*
X943441Y240038D01*
X944052Y243110D01*
X943441Y246182D01*
X941701Y248787D01*
X939096Y250527D01*
X936024Y251138D01*
D02*
G37*
G36*
X958661Y233422D02*
X955589Y232811D01*
X952985Y231071D01*
X951244Y228466D01*
X950633Y225394D01*
X951244Y222321D01*
X952985Y219717D01*
X955589Y217976D01*
X958661Y217365D01*
X961734Y217976D01*
X964338Y219717D01*
X966079Y222321D01*
X966690Y225394D01*
X966079Y228466D01*
X964338Y231071D01*
X961734Y232811D01*
X958661Y233422D01*
D02*
G37*
G36*
X961661Y202920D02*
X958589Y202309D01*
X955984Y200568D01*
X954244Y197964D01*
X953633Y194891D01*
X954244Y191819D01*
X955984Y189214D01*
X958589Y187474D01*
X961661Y186863D01*
X964733Y187474D01*
X967338Y189214D01*
X969078Y191819D01*
X969689Y194891D01*
X969078Y197964D01*
X967338Y200568D01*
X964733Y202309D01*
X961661Y202920D01*
D02*
G37*
%LPD*%
D34*
X1057087Y691929D02*
X1063976D01*
X1050197Y685039D02*
X1057087Y691929D01*
X1050197Y654528D02*
Y685039D01*
X1035433Y580709D02*
X1063976Y609252D01*
Y640748D01*
X902559Y469488D02*
X935039D01*
X961613D01*
X878937Y418307D02*
Y445866D01*
X902559Y469488D01*
X1035433Y543308D02*
Y580709D01*
X961613Y469488D02*
X1035433Y543308D01*
X860236Y293307D02*
X874016Y307087D01*
X846457Y293307D02*
X860236D01*
X827756Y312008D02*
X846457Y293307D01*
X827756Y312008D02*
Y319881D01*
X1050197Y654528D02*
X1063976Y640748D01*
X961613Y418307D02*
Y469488D01*
X923228Y393701D02*
X944882Y415354D01*
Y420274D01*
X883858Y393701D02*
X923228D01*
X874016Y383858D02*
X883858Y393701D01*
X874016Y307087D02*
Y383858D01*
D36*
X560039Y555118D02*
X568898D01*
X857284Y628937D02*
Y678010D01*
X1061024Y716535D02*
Y740158D01*
X1036417Y691929D02*
X1061024Y716535D01*
X1053150Y724409D02*
Y936024D01*
X1042323Y713583D02*
X1053150Y724409D01*
X983268Y691929D02*
X1045276Y753937D01*
X1061024Y740158D02*
X1074803Y753937D01*
X371063Y769685D02*
X382874Y781496D01*
X361082Y769685D02*
X371063D01*
X307932Y822835D02*
X361082Y769685D01*
X350394Y674213D02*
X393083D01*
X381890Y707677D02*
X410124D01*
X418307Y721457D02*
X437992Y701772D01*
X379246Y721457D02*
X418307D01*
X437992Y689961D02*
Y701772D01*
X447835Y685039D02*
Y723425D01*
X455709Y681778D02*
Y699803D01*
X370079Y1058071D02*
X393701Y1034449D01*
X341396Y1058071D02*
X370079D01*
X300000Y1099466D02*
X341396Y1058071D01*
X393701Y1034449D02*
X607341D01*
X300000Y1099466D02*
Y1100000D01*
X607341Y1034449D02*
X650591Y991200D01*
X515158Y1018307D02*
X524606Y1008858D01*
X385236Y1018307D02*
X515158D01*
X524606Y1008858D02*
X561024D01*
X568898Y1016732D01*
X580709D01*
X566929Y1000000D02*
X573819Y1006890D01*
X519685Y1000000D02*
X566929D01*
X490748Y971063D02*
X519685Y1000000D01*
X650591Y968055D02*
Y991200D01*
Y968055D02*
X660969Y957677D01*
X668447D01*
X699803Y926321D01*
Y912402D02*
Y926321D01*
X610603Y1042323D02*
X658465Y994461D01*
Y971317D02*
Y994461D01*
Y971317D02*
X664230Y965551D01*
X678149D01*
X350000Y1100000D02*
X407677Y1042323D01*
X610603D01*
X678149Y965551D02*
X699803Y943898D01*
X400000Y1100000D02*
X449803Y1050197D01*
X613864D01*
X668307Y995754D01*
Y975394D02*
Y995754D01*
X645669Y1077756D02*
X655512Y1067913D01*
Y1044291D02*
Y1067913D01*
Y1044291D02*
X724409Y975394D01*
X642408Y1069882D02*
X647638Y1064652D01*
Y1027559D02*
Y1064652D01*
Y1027559D02*
X699803Y975394D01*
X522244Y1077756D02*
X645669D01*
X500000Y1100000D02*
X522244Y1077756D01*
X480118Y1069882D02*
X642408D01*
X450000Y1100000D02*
X480118Y1069882D01*
X724409Y975394D02*
X731299D01*
X580709Y1016732D02*
X587598Y1009842D01*
X358268Y1045276D02*
X385236Y1018307D01*
X39370Y1089370D02*
X50000Y1100000D01*
X39370Y785433D02*
Y1089370D01*
X343210Y546245D02*
X361206D01*
X418307Y603346D01*
X433688D01*
X580342Y750000D01*
X430427Y611221D02*
X500000Y680794D01*
X414370Y611221D02*
X430427D01*
X357269Y554119D02*
X414370Y611221D01*
X346472Y554119D02*
X357269D01*
X351672Y563962D02*
X407773Y620063D01*
X351395Y563962D02*
X351672D01*
X428134Y620063D02*
X492126Y684055D01*
X407773Y620063D02*
X428134D01*
X568898Y555118D02*
X589567Y575787D01*
X531496Y489173D02*
Y605315D01*
X536417Y610236D01*
X589567Y575787D02*
Y600394D01*
X603346Y614173D01*
X779528D01*
X536417Y610236D02*
X570866D01*
X533156Y618110D02*
X567605D01*
X779528Y614173D02*
X794291Y628937D01*
X800000Y1100000D02*
X809055Y1090945D01*
Y1040354D02*
Y1090945D01*
Y1040354D02*
X860236Y989173D01*
Y928544D02*
Y989173D01*
X868110Y931806D02*
Y1012795D01*
X850000Y1030906D02*
X868110Y1012795D01*
X860236Y928544D02*
X868110Y920670D01*
Y874324D02*
Y920670D01*
X860236Y866450D02*
X868110Y874324D01*
X860236Y804134D02*
Y866450D01*
X875984Y871063D02*
Y923932D01*
X868110Y863189D02*
X875984Y871063D01*
X868110Y688837D02*
Y863189D01*
Y931806D02*
X875984Y923932D01*
X815945Y759842D02*
X860236Y804134D01*
X815945Y638779D02*
Y759842D01*
Y638779D02*
X825787Y628937D01*
X850394Y1055963D02*
Y1099606D01*
X850000Y1100000D02*
X850394Y1099606D01*
X850000Y1030906D02*
Y1055569D01*
X850394Y1055963D01*
X857284Y678010D02*
X868110Y688837D01*
X900000Y1100000D02*
X962598Y1037402D01*
Y812992D02*
Y1037402D01*
X941929Y792323D02*
X962598Y812992D01*
X941929Y770978D02*
Y792323D01*
X934055Y763104D02*
X941929Y770978D01*
X934055Y743419D02*
Y763104D01*
X941929Y759842D02*
X996063Y813976D01*
Y825112D01*
X857284Y597441D02*
X871063Y611221D01*
X950000Y1100000D02*
X1013780Y1036220D01*
Y842828D02*
Y1036220D01*
X996063Y825112D02*
X1013780Y842828D01*
X941929Y740158D02*
Y759842D01*
X878937Y607284D02*
X888779Y597441D01*
X1000000Y1100000D02*
X1021654Y1078346D01*
Y839567D02*
Y1078346D01*
X1003937Y821850D02*
X1021654Y839567D01*
X1003937Y790354D02*
Y821850D01*
X920276Y706693D02*
X1003937Y790354D01*
X920276Y691929D02*
Y706693D01*
X1029528Y1079528D02*
X1050000Y1100000D01*
X1029528Y784449D02*
Y1079528D01*
X1064764Y1050000D02*
X1100000D01*
X1037402Y1022638D02*
X1064764Y1050000D01*
X1037402Y779667D02*
Y1022638D01*
X951772Y694037D02*
X1037402Y779667D01*
X951772Y691929D02*
Y694037D01*
X1045276Y753937D02*
Y945276D01*
X1074803Y753937D02*
Y874803D01*
X1036417Y713583D02*
X1042323D01*
X1045276Y945276D02*
X1100000Y1000000D01*
X1036417Y682087D02*
Y691929D01*
X983268Y628937D02*
X1036417Y682087D01*
X983268Y660433D02*
X1036417Y713583D01*
X1067126Y950000D02*
X1100000D01*
X1053150Y936024D02*
X1067126Y950000D01*
X1074803Y874803D02*
X1100000Y900000D01*
X1014764Y471457D02*
X1034449Y451772D01*
X1000000Y0D02*
X1034449Y34449D01*
Y451772D01*
X333661Y577756D02*
X351379Y595474D01*
X341535Y569882D02*
X351379Y579726D01*
X410124Y668307D02*
X431102D01*
X406863Y660433D02*
X434364D01*
X428150Y640748D02*
X479331Y691929D01*
X417323Y640748D02*
X428150D01*
X664370Y712598D02*
X746063D01*
X784449Y750984D01*
X327756Y611222D02*
X387797D01*
X333661Y555794D02*
Y577756D01*
X772638Y781496D02*
Y859252D01*
X780512Y778235D02*
Y851378D01*
X767716Y776575D02*
X772638Y781496D01*
X770978Y768701D02*
X780512Y778235D01*
X553150Y656496D02*
Y670276D01*
X547244Y650591D02*
X553150Y656496D01*
X561024Y667014D02*
X568222Y674213D01*
X561024Y653235D02*
Y667014D01*
X550506Y642717D02*
X561024Y653235D01*
X516732Y650591D02*
X547244D01*
X539370Y642717D02*
X550506D01*
X611220Y682087D02*
X705709Y776575D01*
X564961Y682087D02*
X611220D01*
X614482Y674213D02*
X708970Y768701D01*
X568222Y674213D02*
X614482D01*
X619095Y667323D02*
X664370Y712598D01*
X619095Y657480D02*
Y667323D01*
X480315Y583661D02*
X539370Y642717D01*
X819882Y890748D02*
X847441D01*
X780512Y851378D02*
X819882Y890748D01*
X847441D02*
X857284Y880905D01*
X805118Y781496D02*
Y860236D01*
X784449Y760827D02*
X805118Y781496D01*
X784449Y750984D02*
Y760827D01*
X805118Y860236D02*
X825787Y880905D01*
X708970Y768701D02*
X770978D01*
X705709Y776575D02*
X767716D01*
X490158Y575112D02*
X533156Y618110D01*
X490158Y562852D02*
Y575112D01*
X426322Y499017D02*
X490158Y562852D01*
X281495Y499017D02*
X426322D01*
X276575Y503937D02*
X281495Y499017D01*
X314115Y508858D02*
X408773D01*
X308071Y516734D02*
X405513D01*
X312148Y506891D02*
X314115Y508858D01*
X473425Y583661D02*
X480315D01*
X443898Y554134D02*
X473425Y583661D01*
X443898Y543982D02*
Y554134D01*
X408773Y508858D02*
X443898Y543982D01*
X436024Y569882D02*
X516732Y650591D01*
X436024Y547244D02*
Y569882D01*
X405513Y516734D02*
X436024Y547244D01*
X302166Y506891D02*
X312148D01*
X292323Y516734D02*
X302166Y506891D01*
X772638Y859252D02*
X794291Y880905D01*
X650591Y831693D02*
X730315D01*
X623171Y839567D02*
X721457D01*
X500000Y680794D02*
Y716396D01*
X492126Y684055D02*
Y771712D01*
X553150Y670276D02*
X564961Y682087D01*
X748032Y849409D02*
X762795D01*
X730315Y831693D02*
X748032Y849409D01*
X622047Y803150D02*
X650591Y831693D01*
X622047Y776575D02*
Y803150D01*
X595472Y750000D02*
X622047Y776575D01*
X580342Y750000D02*
X595472D01*
X500000Y716396D02*
X623171Y839567D01*
X333661Y555794D02*
X343210Y546245D01*
X721457Y839567D02*
X731299Y849409D01*
X492126Y771712D02*
X520669Y800255D01*
X497047Y810039D02*
Y816929D01*
X489173Y813301D02*
Y827756D01*
X341535Y559055D02*
X346472Y554119D01*
X341535Y559055D02*
Y569882D01*
X387797Y611222D02*
X417323Y640748D01*
X635827Y850394D02*
X636811Y849409D01*
X589567Y850394D02*
X635827D01*
X455709Y699803D02*
X479331Y723425D01*
X434364Y660433D02*
X455709Y681778D01*
X431102Y668307D02*
X447835Y685039D01*
X443504Y931693D02*
X463583Y951772D01*
X323504Y931693D02*
X443504D01*
X393083Y674213D02*
X406863Y660433D01*
X327757Y745080D02*
X333352D01*
X447835Y723425D02*
X479331Y754921D01*
X333352Y745080D02*
X410124Y668307D01*
X467520Y425197D02*
X531496Y489173D01*
X467520Y17520D02*
Y425197D01*
X450000Y0D02*
X467520Y17520D01*
X742126Y576772D02*
X762795Y597441D01*
X694882Y576772D02*
X742126D01*
X689961Y571850D02*
X694882Y576772D01*
X689961Y492126D02*
Y571850D01*
X679134Y481299D02*
X689961Y492126D01*
X662402Y481299D02*
X679134D01*
X658465Y477362D02*
X662402Y481299D01*
X658465Y412402D02*
Y477362D01*
Y412402D02*
X668307Y402559D01*
Y18307D02*
Y402559D01*
X650000Y0D02*
X668307Y18307D01*
X762795Y534449D02*
X777559Y519685D01*
X773622Y335939D02*
X782480Y344797D01*
X773622Y290267D02*
Y335939D01*
Y290267D02*
X846457Y217433D01*
Y3543D02*
Y217433D01*
Y3543D02*
X850000Y0D01*
X883858Y81693D02*
Y219005D01*
X880905Y78740D02*
X883858Y81693D01*
X880905Y63976D02*
Y78740D01*
X838583Y361081D02*
Y498031D01*
X803150Y331693D02*
X809195D01*
X838583Y361081D01*
X794291Y471457D02*
X817913Y447835D01*
Y369094D02*
Y447835D01*
X789370Y340551D02*
X817913Y369094D01*
X789370Y302358D02*
Y340551D01*
Y302358D02*
X854331Y237397D01*
X797244Y305619D02*
X883858Y219005D01*
X797244Y305619D02*
Y325787D01*
X854331Y79416D02*
Y237397D01*
Y79416D02*
X900000Y33746D01*
Y0D02*
Y33746D01*
X944882Y0D02*
X950000D01*
X880905Y63976D02*
X944882Y0D01*
X802165Y534449D02*
X838583Y498031D01*
X794291Y534449D02*
X802165D01*
X797244Y325787D02*
X803150Y331693D01*
X116142Y761135D02*
X136502Y781496D01*
X116142Y736220D02*
Y761135D01*
X215827Y822835D02*
X307932D01*
X195551Y843110D02*
X215827Y822835D01*
X227638Y830709D02*
X326463D01*
X215236Y843110D02*
X227638Y830709D01*
X259134Y838583D02*
X329724D01*
X254606Y843110D02*
X259134Y838583D01*
X278543Y864173D02*
X295276Y847441D01*
X234921Y843110D02*
X255984Y864173D01*
X278543D01*
X594488Y923228D02*
X605315Y912402D01*
X568898Y923228D02*
X594488D01*
X515748Y870079D02*
X568898Y923228D01*
X457677Y960630D02*
X527559D01*
X448425Y951378D02*
X457677Y960630D01*
X323504Y951378D02*
X448425D01*
X463583Y951772D02*
X531496D01*
X497047Y870079D02*
X515748D01*
X559055Y943898D02*
X605315D01*
X507874Y892716D02*
X559055Y943898D01*
X440945Y896654D02*
X444882Y892716D01*
X327834Y896654D02*
X440945D01*
X323504Y892323D02*
X327834Y896654D01*
X521654Y923228D02*
X542323Y943898D01*
X505906Y923228D02*
X521654D01*
X323898Y912402D02*
X463583D01*
X323504Y912008D02*
X323898Y912402D01*
X563976Y965551D02*
X573819Y975394D01*
X545276Y965551D02*
X563976D01*
X531496Y951772D02*
X545276Y965551D01*
X527559Y960630D02*
X542323Y975394D01*
X323504Y971063D02*
X490748D01*
X494685Y990748D02*
X510827Y1006890D01*
X323504Y990748D02*
X494685D01*
X475788Y1010433D02*
X479331Y1006890D01*
X323504Y1010433D02*
X475788D01*
X29528Y629528D02*
Y809055D01*
X37402Y768701D02*
X59055Y790354D01*
X37402Y587402D02*
Y768701D01*
X0Y600000D02*
X29528Y629528D01*
X13780Y824803D02*
X29528Y809055D01*
X0Y550000D02*
X37402Y587402D01*
X319206Y781496D02*
X379246Y721457D01*
X136502Y781496D02*
X319206D01*
X139764Y773622D02*
X315945D01*
X124016Y757874D02*
X139764Y773622D01*
X124016Y694883D02*
Y757874D01*
X271654Y513779D02*
Y753937D01*
X261811Y763779D02*
X271654Y753937D01*
X260827Y517717D02*
Y750001D01*
X93504Y513386D02*
X105906Y500984D01*
X68898Y632874D02*
Y643701D01*
X75787Y650591D01*
X76772Y491142D02*
X83661Y498032D01*
X60039Y627953D02*
Y648622D01*
X70866Y659449D01*
X93504Y513386D02*
Y608268D01*
X83661Y498032D02*
Y604331D01*
X68898Y632874D02*
X93504Y608268D01*
X60039Y627953D02*
X83661Y604331D01*
X115157Y638779D02*
X229331Y752954D01*
X111220Y650591D02*
X213583Y752954D01*
X79724Y638779D02*
X115157D01*
X75787Y650591D02*
X111220D01*
X234252Y491142D02*
X260827Y517717D01*
X182087Y752954D02*
X192912Y763779D01*
X113189Y621064D02*
X245079Y752954D01*
X105906Y532480D02*
Y577362D01*
X113189Y584646D01*
Y621064D01*
X192912Y763779D02*
X261811D01*
X249016Y491142D02*
X271654Y513779D01*
X295276Y847441D02*
X366281D01*
X493110Y874016D02*
X497047Y870079D01*
X482284Y871063D02*
X485236Y874016D01*
X493110D01*
X346457Y866142D02*
X396654D01*
X423228Y850394D02*
X437008Y864173D01*
X478346Y849409D02*
X496063D01*
X317913Y1021654D02*
X358268D01*
X311024Y1014764D02*
X317913Y1021654D01*
X311024Y866142D02*
Y1014764D01*
Y866142D02*
X321850Y855315D01*
X396654Y866142D02*
X412402Y850394D01*
X423228D01*
X323504Y872638D02*
X326850Y875984D01*
X464567D01*
X366281Y847441D02*
X394825Y818898D01*
X424213D01*
X326463Y830709D02*
X367801Y789370D01*
X329724Y838583D02*
X371063Y797244D01*
X424213Y818898D02*
X437992Y805118D01*
X321850Y855315D02*
X369587D01*
X398130Y826772D01*
X427474D01*
X587598Y990158D02*
Y1009842D01*
X315945Y773622D02*
X381890Y707677D01*
X70866Y659449D02*
X104330D01*
X197835Y752954D01*
X103347Y674214D02*
X124016Y694883D01*
X77756Y697835D02*
X116142Y736220D01*
X566929Y857284D02*
X573819Y864173D01*
Y880905D01*
Y849409D02*
X575788Y851378D01*
X555060Y841535D02*
X580709D01*
X589567Y850394D01*
X497047Y816929D02*
X542323Y862205D01*
Y880905D01*
X548537Y857284D02*
X566929D01*
X504921Y813667D02*
X548537Y857284D01*
X463583Y912402D02*
X474409Y901575D01*
X484252D01*
X505906Y923228D01*
X444882Y892716D02*
X507874D01*
X464567Y875984D02*
X469488Y871063D01*
X482284D01*
X437008Y864173D02*
X463583D01*
X478346Y849409D01*
X489173Y827756D02*
X510827Y849409D01*
X504921Y806778D02*
Y813667D01*
X512795Y803516D02*
Y810406D01*
X551799Y849409D01*
X570191D02*
X572497Y851716D01*
X551799Y849409D02*
X570191D01*
X573819D01*
X520669Y807144D02*
X555060Y841535D01*
X520669Y800255D02*
Y807144D01*
X750000Y641732D02*
X762795Y628937D01*
X567605Y618110D02*
X599101Y649606D01*
X611220D01*
X619095Y657480D01*
X570866Y610236D02*
X602362Y641732D01*
X750000D01*
X777559Y449803D02*
X784449Y442913D01*
X920276Y660433D02*
Y675197D01*
X1029528Y784449D01*
X871063Y611221D02*
Y680427D01*
X878937Y607284D02*
Y677165D01*
X871063Y680427D02*
X934055Y743419D01*
X878937Y677165D02*
X941929Y740158D01*
X777559Y449803D02*
Y519685D01*
X782480Y344797D02*
Y410433D01*
X784449Y412402D01*
Y442913D01*
X490775Y781496D02*
X512795Y803516D01*
X487513Y789370D02*
X504921Y806778D01*
X484252Y797244D02*
X497047Y810039D01*
X480990Y805118D02*
X489173Y813301D01*
X427474Y826772D02*
X439285Y814961D01*
X382874Y781496D02*
X490775D01*
X367801Y789370D02*
X487513D01*
X371063Y797244D02*
X484252D01*
X437992Y805118D02*
X480990D01*
X439285Y814961D02*
X459646D01*
D41*
X-17716Y600000D02*
D03*
Y650000D02*
D03*
Y700000D02*
D03*
Y750000D02*
D03*
Y800000D02*
D03*
Y850000D02*
D03*
Y900000D02*
D03*
Y950000D02*
D03*
Y1000000D02*
D03*
Y1050000D02*
D03*
X1117716D02*
D03*
Y1000000D02*
D03*
Y950000D02*
D03*
Y900000D02*
D03*
Y850000D02*
D03*
Y800000D02*
D03*
Y750000D02*
D03*
Y700000D02*
D03*
Y650000D02*
D03*
Y600000D02*
D03*
Y550000D02*
D03*
Y500000D02*
D03*
Y450000D02*
D03*
Y400000D02*
D03*
Y350000D02*
D03*
Y300000D02*
D03*
Y250000D02*
D03*
Y200000D02*
D03*
Y150000D02*
D03*
Y100000D02*
D03*
Y50000D02*
D03*
X-17716D02*
D03*
Y100000D02*
D03*
Y150000D02*
D03*
Y200000D02*
D03*
Y250000D02*
D03*
Y300000D02*
D03*
Y350000D02*
D03*
Y400000D02*
D03*
Y450000D02*
D03*
Y500000D02*
D03*
D42*
X50000Y1117716D02*
D03*
X100000D02*
D03*
X150000D02*
D03*
X200000D02*
D03*
X250000D02*
D03*
X300000D02*
D03*
X350000D02*
D03*
X400000D02*
D03*
X450000D02*
D03*
X500000D02*
D03*
X550000D02*
D03*
X600000D02*
D03*
X650000D02*
D03*
X700000D02*
D03*
X750000D02*
D03*
X800000D02*
D03*
X850000D02*
D03*
X900000D02*
D03*
X950000D02*
D03*
X1000000D02*
D03*
X1050000D02*
D03*
Y-17716D02*
D03*
X1000000D02*
D03*
X950000D02*
D03*
X900000D02*
D03*
X850000D02*
D03*
X800000D02*
D03*
X750000D02*
D03*
X700000D02*
D03*
X650000D02*
D03*
X600000D02*
D03*
X550000D02*
D03*
X500000D02*
D03*
X450000D02*
D03*
X400000D02*
D03*
X350000D02*
D03*
X300000D02*
D03*
X250000D02*
D03*
X200000D02*
D03*
X150000D02*
D03*
X100000D02*
D03*
X50000D02*
D03*
D43*
X-17716Y550000D02*
D03*
D44*
X637795Y524606D02*
D03*
X612205Y551181D02*
D03*
X573819Y534449D02*
D03*
X605315Y500000D02*
D03*
X670275Y522638D02*
D03*
X560039Y555118D02*
D03*
X542323Y565945D02*
D03*
X559055Y540354D02*
D03*
X624046Y581721D02*
D03*
X633889Y598454D02*
D03*
X668307Y628937D02*
D03*
X699803Y597441D02*
D03*
X847441Y646654D02*
D03*
X951772Y660433D02*
D03*
X605315Y869094D02*
D03*
X595472Y840551D02*
D03*
X652559Y534449D02*
D03*
X624016Y825787D02*
D03*
X365159Y779528D02*
D03*
X350394Y674213D02*
D03*
X333661Y689962D02*
D03*
X423228Y697836D02*
D03*
X410124Y707677D02*
D03*
X423228Y750984D02*
D03*
Y678150D02*
D03*
X437992Y689961D02*
D03*
X156181Y1039960D02*
D03*
X605315Y978347D02*
D03*
X731299Y915355D02*
D03*
X636811Y932087D02*
D03*
X676181Y932087D02*
D03*
X748032Y903543D02*
D03*
X342520Y1070866D02*
D03*
X699803Y912402D02*
D03*
Y943898D02*
D03*
X668307Y975394D02*
D03*
X699803D02*
D03*
X731299D02*
D03*
X636811D02*
D03*
X913386Y455707D02*
D03*
X39370Y785433D02*
D03*
X351379Y626970D02*
D03*
X425197Y589567D02*
D03*
X560039Y571850D02*
D03*
X794291Y628937D02*
D03*
X825787Y754921D02*
D03*
X967519Y685040D02*
D03*
X1063976Y757874D02*
D03*
X1033466Y761811D02*
D03*
X825787Y628937D02*
D03*
X857284D02*
D03*
Y597441D02*
D03*
X888779D02*
D03*
X920276Y691929D02*
D03*
X951772D02*
D03*
X920276Y660433D02*
D03*
X857284Y691929D02*
D03*
X983268D02*
D03*
Y660433D02*
D03*
Y628937D02*
D03*
X1003937Y848425D02*
D03*
X1083661Y675197D02*
D03*
X1077756Y626969D02*
D03*
X1002952Y534449D02*
D03*
X1068898Y414370D02*
D03*
X1049213D02*
D03*
X1068898Y439960D02*
D03*
X1049213D02*
D03*
X1014764Y471457D02*
D03*
X351379Y595474D02*
D03*
Y579726D02*
D03*
X423228Y650591D02*
D03*
Y630905D02*
D03*
X816929Y856299D02*
D03*
X888779Y883858D02*
D03*
X744095Y739173D02*
D03*
X716535Y735236D02*
D03*
X182087Y516734D02*
D03*
X197835D02*
D03*
X327756Y611222D02*
D03*
X423228Y571849D02*
D03*
X762795Y817913D02*
D03*
X510827Y660433D02*
D03*
X542323D02*
D03*
X573819D02*
D03*
X605315Y691929D02*
D03*
X588583D02*
D03*
X573819D02*
D03*
X558071D02*
D03*
X890747Y833662D02*
D03*
X762795Y786417D02*
D03*
X757874Y739173D02*
D03*
X731299Y786417D02*
D03*
X699803D02*
D03*
X542323Y691929D02*
D03*
Y628937D02*
D03*
X510827Y696850D02*
D03*
X526575Y660433D02*
D03*
X573819Y766732D02*
D03*
X590551Y759842D02*
D03*
X587598Y784449D02*
D03*
X479331Y691929D02*
D03*
X351395Y563962D02*
D03*
X351379Y531496D02*
D03*
X595472Y825787D02*
D03*
X951772Y975394D02*
D03*
X857284Y1006890D02*
D03*
X731299Y943898D02*
D03*
X825787Y912402D02*
D03*
X794291D02*
D03*
X888779D02*
D03*
X857284D02*
D03*
Y880905D02*
D03*
X825787D02*
D03*
X794291D02*
D03*
X762795Y849409D02*
D03*
X731299D02*
D03*
X103347Y689962D02*
D03*
X575788Y910433D02*
D03*
X571850Y818898D02*
D03*
X636811Y849409D02*
D03*
X452756Y924213D02*
D03*
X327757Y745080D02*
D03*
X479331Y723425D02*
D03*
Y754921D02*
D03*
X772638Y386811D02*
D03*
Y376969D02*
D03*
X935039Y469488D02*
D03*
X802165Y512795D02*
D03*
X762795Y628937D02*
D03*
Y597441D02*
D03*
Y534449D02*
D03*
X794291D02*
D03*
Y471457D02*
D03*
X1070866Y499016D02*
D03*
X1049213Y550197D02*
D03*
X900590Y203740D02*
D03*
X964614Y376987D02*
D03*
X985236Y376600D02*
D03*
Y343135D02*
D03*
X890747Y71850D02*
D03*
X874016Y39370D02*
D03*
X895668Y87598D02*
D03*
X922244Y243110D02*
D03*
X913386Y329723D02*
D03*
X951772Y723425D02*
D03*
Y754921D02*
D03*
X920276D02*
D03*
X951772Y786417D02*
D03*
X983268D02*
D03*
X1014764D02*
D03*
X983268Y817913D02*
D03*
X1014764D02*
D03*
X895668Y134843D02*
D03*
Y119094D02*
D03*
Y103346D02*
D03*
X910432Y52165D02*
D03*
X926180Y57087D02*
D03*
X941928D02*
D03*
X913386Y487203D02*
D03*
X909449Y377953D02*
D03*
X984252Y436024D02*
D03*
X1068898Y524606D02*
D03*
X808071Y393700D02*
D03*
X825787Y293308D02*
D03*
X920276Y565945D02*
D03*
X597441Y772638D02*
D03*
X510827Y849409D02*
D03*
X195551Y843110D02*
D03*
X215236Y843110D02*
D03*
X234921D02*
D03*
X254606Y843110D02*
D03*
X575788Y851378D02*
D03*
X573819Y880905D02*
D03*
X542323D02*
D03*
X605315Y912402D02*
D03*
Y943898D02*
D03*
X542323D02*
D03*
X573819Y975394D02*
D03*
X542323D02*
D03*
X573819Y1006890D02*
D03*
X510827D02*
D03*
X479331D02*
D03*
X323504Y872638D02*
D03*
Y892323D02*
D03*
Y912008D02*
D03*
X323504Y931693D02*
D03*
Y951378D02*
D03*
Y971063D02*
D03*
Y990748D02*
D03*
Y1010433D02*
D03*
X533465Y990158D02*
D03*
X59055Y790354D02*
D03*
X532480Y1024607D02*
D03*
X467519Y924213D02*
D03*
X587598Y1024606D02*
D03*
X276575Y763779D02*
D03*
X260827Y750001D02*
D03*
X13780Y824803D02*
D03*
X326771Y658466D02*
D03*
X888779Y754921D02*
D03*
Y723425D02*
D03*
X762795Y660433D02*
D03*
X517717Y586614D02*
D03*
X825787Y597441D02*
D03*
X731299Y628937D02*
D03*
X668307Y691929D02*
D03*
X699803Y660433D02*
D03*
X794291Y691929D02*
D03*
X825787Y660433D02*
D03*
X731299Y817913D02*
D03*
X814960Y786417D02*
D03*
X888779D02*
D03*
X825787Y723425D02*
D03*
X857284Y754921D02*
D03*
X542323Y502953D02*
D03*
X166339Y752954D02*
D03*
X265748Y490158D02*
D03*
X276575Y503937D02*
D03*
X287402Y426181D02*
D03*
X1004921Y206693D02*
D03*
X993110Y209646D02*
D03*
X755905Y140746D02*
D03*
X134843Y752954D02*
D03*
X339567Y721458D02*
D03*
Y705710D02*
D03*
X292323Y516734D02*
D03*
X951772Y880905D02*
D03*
X904528Y838583D02*
D03*
X475394Y880906D02*
D03*
X479331Y912402D02*
D03*
X510827Y975394D02*
D03*
X495079Y935039D02*
D03*
X469488Y941929D02*
D03*
X449803Y902559D02*
D03*
X540354Y909449D02*
D03*
X510827Y880905D02*
D03*
X699803Y849409D02*
D03*
X668307Y817913D02*
D03*
X666338Y863189D02*
D03*
Y882874D02*
D03*
X510827Y912402D02*
D03*
X961661Y194891D02*
D03*
X957676Y63977D02*
D03*
X1063976Y660433D02*
D03*
Y640748D02*
D03*
X967520Y665354D02*
D03*
X967520Y675197D02*
D03*
X1068898Y473426D02*
D03*
X1065945Y575788D02*
D03*
X1068898Y550197D02*
D03*
X1049213Y337598D02*
D03*
Y363189D02*
D03*
Y388779D02*
D03*
X827756Y418307D02*
D03*
X944882Y420274D02*
D03*
X921260Y433071D02*
D03*
X827756Y319881D02*
D03*
X874016Y307087D02*
D03*
Y383858D02*
D03*
X808071Y319881D02*
D03*
X783503Y294306D02*
D03*
X750000Y277559D02*
D03*
X808071Y344488D02*
D03*
X787402Y77754D02*
D03*
X645669Y36417D02*
D03*
X755905Y77754D02*
D03*
X795276Y39370D02*
D03*
X725394Y418307D02*
D03*
X623032D02*
D03*
X1049213Y286416D02*
D03*
Y312006D02*
D03*
X961613Y418307D02*
D03*
X878937D02*
D03*
X573819Y581693D02*
D03*
X958661Y225394D02*
D03*
X893701Y173228D02*
D03*
X779527Y162401D02*
D03*
X944882Y266731D02*
D03*
X962598Y266732D02*
D03*
X1016732Y220473D02*
D03*
X955709Y211615D02*
D03*
X510827Y502953D02*
D03*
X623031Y236220D02*
D03*
Y208661D02*
D03*
X479331Y628937D02*
D03*
Y597441D02*
D03*
X864173Y163386D02*
D03*
Y106299D02*
D03*
X512795Y419291D02*
D03*
X481299D02*
D03*
X731299Y565945D02*
D03*
X699803D02*
D03*
X934055Y346457D02*
D03*
X731299Y502953D02*
D03*
X827756Y369095D02*
D03*
Y393701D02*
D03*
X859252Y418307D02*
D03*
X909449Y408464D02*
D03*
X684055Y471457D02*
D03*
X573819D02*
D03*
X762795D02*
D03*
X795314Y435061D02*
D03*
X787402Y455707D02*
D03*
X913386Y361219D02*
D03*
X791339Y550195D02*
D03*
X873074Y173237D02*
D03*
X696850Y389764D02*
D03*
X710630Y375984D02*
D03*
X703740Y382874D02*
D03*
X689961Y396654D02*
D03*
X756891Y418307D02*
D03*
X705709Y418307D02*
D03*
X674213Y418307D02*
D03*
X603347Y418307D02*
D03*
X601378Y581693D02*
D03*
X699803Y502953D02*
D03*
X731299Y597441D02*
D03*
X668307Y502953D02*
D03*
Y471457D02*
D03*
X542323D02*
D03*
X933071Y455709D02*
D03*
X944882Y487203D02*
D03*
X913386Y518699D02*
D03*
X944882D02*
D03*
Y550195D02*
D03*
X913386D02*
D03*
X1012795Y315945D02*
D03*
X1012795Y367126D02*
D03*
X1012795Y418307D02*
D03*
X1012795Y392716D02*
D03*
X636811Y502953D02*
D03*
X854331Y307087D02*
D03*
X888779Y849409D02*
D03*
X920276Y880905D02*
D03*
X904528Y876968D02*
D03*
X1063976Y691929D02*
D03*
X723425Y991142D02*
D03*
X716535Y754921D02*
D03*
X644685Y810039D02*
D03*
X757874Y833661D02*
D03*
X904528Y761811D02*
D03*
Y787402D02*
D03*
Y812992D02*
D03*
X794291Y817913D02*
D03*
X825787D02*
D03*
X1063976Y609252D02*
D03*
Y589567D02*
D03*
Y777559D02*
D03*
Y809055D02*
D03*
Y879920D02*
D03*
Y911417D02*
D03*
X1063976Y1033465D02*
D03*
X872047Y1060039D02*
D03*
X840551D02*
D03*
X789370D02*
D03*
X718504D02*
D03*
X687008D02*
D03*
X584645Y1060039D02*
D03*
X533465Y1060039D02*
D03*
X482283D02*
D03*
X423228Y770669D02*
D03*
Y552164D02*
D03*
X652559Y600394D02*
D03*
X645669Y865158D02*
D03*
X1003346Y991142D02*
D03*
X794291Y849409D02*
D03*
X762795Y975394D02*
D03*
Y1006890D02*
D03*
X1063976Y1013779D02*
D03*
X1063976Y828740D02*
D03*
Y860236D02*
D03*
Y931102D02*
D03*
X891732Y1060039D02*
D03*
X820866D02*
D03*
X769685D02*
D03*
X738189D02*
D03*
X667323D02*
D03*
X635827D02*
D03*
X564961Y1060039D02*
D03*
X462598Y1060039D02*
D03*
X847440Y613189D02*
D03*
X904528Y736220D02*
D03*
X794291Y660433D02*
D03*
X762795Y691929D02*
D03*
X825787D02*
D03*
X841535Y762796D02*
D03*
X794291Y786417D02*
D03*
X417323Y809055D02*
D03*
X612205Y802165D02*
D03*
X528543Y863189D02*
D03*
X489173D02*
D03*
X417323Y885827D02*
D03*
X57087Y807087D02*
D03*
X366142Y833661D02*
D03*
X306102Y1062008D02*
D03*
X234921Y1039961D02*
D03*
X195551Y1039960D02*
D03*
X274291Y1039961D02*
D03*
X215236D02*
D03*
X293976D02*
D03*
X175866Y1039960D02*
D03*
X126653Y912008D02*
D03*
X80709Y836613D02*
D03*
X80709Y935039D02*
D03*
X61024Y503938D02*
D03*
Y605317D02*
D03*
X259842Y426181D02*
D03*
X240157D02*
D03*
X212599Y426182D02*
D03*
X192913D02*
D03*
X245079Y516734D02*
D03*
X213583D02*
D03*
X248819Y113582D02*
D03*
X398819D02*
D03*
X374213Y273622D02*
D03*
X399607Y291339D02*
D03*
X215748Y36417D02*
D03*
X613386D02*
D03*
X496063Y36417D02*
D03*
X353346Y36417D02*
D03*
X248032D02*
D03*
X198819Y113582D02*
D03*
X348819Y113582D02*
D03*
X498819Y113582D02*
D03*
X648819D02*
D03*
X105906Y532480D02*
D03*
Y500984D02*
D03*
X76772Y491142D02*
D03*
X182087Y752954D02*
D03*
X197835D02*
D03*
X213583D02*
D03*
X229331D02*
D03*
X245079D02*
D03*
X79724Y638779D02*
D03*
X234252Y491142D02*
D03*
X904528Y991142D02*
D03*
X791339Y518699D02*
D03*
X668307Y568898D02*
D03*
X510827Y628937D02*
D03*
X573819Y597441D02*
D03*
X542323D02*
D03*
X479331Y565945D02*
D03*
Y534449D02*
D03*
X699803D02*
D03*
X944882Y298227D02*
D03*
X913386D02*
D03*
X787402Y203738D02*
D03*
X787402Y140746D02*
D03*
X936024Y243110D02*
D03*
X865158Y144685D02*
D03*
X868110Y86614D02*
D03*
X750984Y224409D02*
D03*
X731299Y691929D02*
D03*
Y723425D02*
D03*
X794291D02*
D03*
X762795Y754921D02*
D03*
X794291D02*
D03*
X510827Y534449D02*
D03*
Y565945D02*
D03*
X103347Y595474D02*
D03*
X56102Y1066929D02*
D03*
X648622Y786417D02*
D03*
X150591Y752954D02*
D03*
X249016Y491142D02*
D03*
X229331Y516734D02*
D03*
X274291Y853938D02*
D03*
X308071Y516734D02*
D03*
X346457Y866142D02*
D03*
X558071Y755906D02*
D03*
X542323Y786417D02*
D03*
X496063Y849409D02*
D03*
X358268Y1021654D02*
D03*
X417323Y860236D02*
D03*
X428150Y841535D02*
D03*
X358268Y1045276D02*
D03*
X587598Y990158D02*
D03*
X525591Y770669D02*
D03*
X512795Y770669D02*
D03*
X103347Y705710D02*
D03*
Y674214D02*
D03*
X57087Y671260D02*
D03*
X77756Y697835D02*
D03*
X67913Y680118D02*
D03*
X558071Y868110D02*
D03*
X459645Y853346D02*
D03*
X544291Y815945D02*
D03*
X605315Y597441D02*
D03*
X625000Y1088583D02*
D03*
X1039370Y727362D02*
D03*
X636811Y660433D02*
D03*
X605315D02*
D03*
Y628937D02*
D03*
X636811D02*
D03*
X697869Y469511D02*
D03*
X857284Y723425D02*
D03*
X888779Y660433D02*
D03*
X904528Y659448D02*
D03*
X938485Y660433D02*
D03*
X904528Y687992D02*
D03*
X605315Y471457D02*
D03*
X636811D02*
D03*
X742126Y531496D02*
D03*
X741142Y345472D02*
D03*
X755905Y518699D02*
D03*
X751968Y483266D02*
D03*
X791339Y487203D02*
D03*
X754958Y456715D02*
D03*
X792361Y402579D02*
D03*
X772675Y416667D02*
D03*
X762832Y435061D02*
D03*
X747046Y402559D02*
D03*
X735272Y455731D02*
D03*
X738189Y436024D02*
D03*
X459646Y814961D02*
D03*
D45*
X594517Y549239D02*
D03*
X378937Y660433D02*
D03*
X844488Y836614D02*
D03*
X621063Y899606D02*
D03*
D46*
X1076772Y724409D02*
D03*
X375000Y814961D02*
D03*
X15748Y775591D02*
D03*
X458661Y443897D02*
D03*
X694882Y78740D02*
D03*
X864173Y272638D02*
D03*
X828740Y26575D02*
D03*
X1049213Y118109D02*
D03*
X1019685Y279528D02*
D03*
X997047Y240158D02*
D03*
X174213Y1076772D02*
D03*
X270669Y240158D02*
D03*
X98425Y1046260D02*
D03*
X59055Y1039370D02*
D03*
X964567Y96457D02*
D03*
X823818Y140748D02*
D03*
D47*
X348819Y313582D02*
D03*
X277559Y463584D02*
D03*
X693898Y118110D02*
D03*
X248819Y163582D02*
D03*
X693898Y179134D02*
D03*
X694092Y49212D02*
D03*
X693898Y248031D02*
D03*
Y309055D02*
D03*
X170276Y966535D02*
D03*
Y996339D02*
D03*
X498819Y213582D02*
D03*
X198819Y263582D02*
D03*
X498819Y313582D02*
D03*
X448819Y338975D02*
D03*
X198819Y313582D02*
D03*
X68111Y309055D02*
D03*
X68111Y179134D02*
D03*
X598819Y163583D02*
D03*
X448819Y163582D02*
D03*
X298819D02*
D03*
X148819Y163583D02*
D03*
X419292Y43307D02*
D03*
X148819Y313582D02*
D03*
X298819D02*
D03*
X598819Y313582D02*
D03*
X648819Y163583D02*
D03*
X548819Y163582D02*
D03*
X398819Y163583D02*
D03*
X157480Y591535D02*
D03*
X215551D02*
D03*
D48*
X68111Y248031D02*
D03*
%TF.MD5,9abbfb128202b286103496a925b574db*%
M02*
