M48
;Layer_Color=9474304
;FILE_FORMAT=2:5
INCH,LZ
;TYPE=PLATED
T1F00S00C0.00394
T3F00S00C0.00787
T4F00S00C0.01181
%
T01
X007559Y0010925
Y0017224
X0072441Y0014075
Y0023523
Y0026673
X007874
Y0023523
X007559Y0029823
Y0032972
Y0036122
X0072441Y0042421
X0065059Y0056201
X0062405Y0056204
X0057382Y0056201
X0104921Y0049902
Y0047343
Y0026083
Y0018406
Y0015846
X0011909Y0062205
X0048917Y0090256
X0056791Y0088287
X0068602
X0070571
X0097933Y0071063
T03
X0072441Y0010925
Y0017224
Y0020374
X0091339Y0026673
X0094488Y0032972
Y0036122
X0097638Y0029823
Y0020374
Y0017224
Y0014075
Y0045571
Y004872
Y005187
Y0055019
X0072441Y005187
T04
X0095177Y010502
M30
