M48
;Layer_Color=9474304
;FILE_FORMAT=2:5
INCH,LZ
;TYPE=PLATED
T1F00S00C0.00394
%
T01
X0087402Y0030709
Y0038386
X0087894Y0041831
X0096161
X0101476Y0047146
X0100295Y0053445
X0098327Y0062894
Y0066043
X0092028
X0085728Y0062894
Y0059744
X0088878
X0082579Y0062894
X0079429
X0076279
Y0059744
Y0053445
X0079429
Y0047146
X0063681Y0066043
X0106398Y0064075
X0034646Y0086614
X003235Y0087264
Y0089232
Y0091201
X003235Y0093169
Y0095138
Y0097106
Y0099075
Y0101043
X0035827Y0102165
Y0104528
X0025461Y0084311
X0023492Y0084311
X0021524
X0019555Y0084311
X0051083Y0084941
X0054232Y008809
X0057382
X0057579Y0085138
X0063681Y0084941
X0060532Y009124
Y009439
X0054232
Y0097539
X0057382
Y0100689
X0051083
X0047933
X0066831Y0097539
X006998
Y009439
Y009124
X007313Y0097539
Y0084941
X0076279
X0079429Y008809
X0082579
X0085728
Y0069193
X0092028
X0095177
X0098327
X0066831
X0047933
Y0072342
Y0075492
M30
