M48
;Layer_Color=9474304
;FILE_FORMAT=2:5
INCH,LZ
;TYPE=PLATED
T1F00S00C0.00394
T3F00S00C0.00787
%
T01
X0089075Y0007185
X0089567Y000876
Y0010335
Y0011909
Y0013484
X0091043Y0005217
X0092618Y0005709
X0094193
X0082579Y0029331
X0082776Y003937
Y0041831
X0085925
X0075689
X0072539Y0041831
X0070571
X0067421Y0041831
X0062303Y0041831
X0060335
X0057382Y0047146
X006998Y0053445
X007313Y0050295
X0076279Y0047146
X0080216Y0051279
X0082579Y0059744
X0076279Y0066043
X007313Y0062894
X006998Y0066043
X0088878
X0092028Y0056595
X0106398Y0058957
Y0060925
Y0066043
X0010335Y0059547
X0003937Y0078543
X0045965Y0081496
X0045276Y0092421
X0051083Y009124
X0049606Y0084941
X0054232Y0078642
X0051083Y0069685
X007313Y0069193
Y0072342
X0079429
Y0075492
X0076279
X006998Y0078642
X0066831Y0081791
X006998Y0084941
X0068701Y0106004
X007185
X0078937
X0084055
X0087205
X0106398Y0103347
X0106398Y0091142
Y0087992
Y0080905
Y0077756
X0103347Y0076181
X0101476Y0078642
X0098327
X0095177
Y0075492
X0092028
X0088878
Y0078642
X0085728Y0075492
X0088878Y0072342
X0095177
X0098327Y0081791
X0101476
X005876Y0099016
X0058464Y0106004
X0053347Y0106004
X0048228
T03
X0082382Y0014075
M30
