M48
;Layer_Color=9474304
;FILE_FORMAT=2:5
INCH,LZ
;TYPE=PLATED
T1F00S00C0.00394
T2F00S00C0.00591
T3F00S00C0.00787
T4F00S00C0.01181
T5F00S00C0.01968
T6F00S00C0.02559
%
T01
X0049606Y0003642
X0049882Y0011358
X0064882
X0064567Y0003642
X0061339Y0003642
X0062303Y0020866
Y0023622
X0075098Y0022441
X0075Y0027756
X007835Y0029431
X0080807Y0031988
X0082776
X0085433Y0030709
X0091339Y0029823
Y0032972
Y0036122
X0090945Y0037795
Y0040846
X0092126Y0043307
X0091339Y0045571
X0093307Y0045571
X0093504Y0046949
X0094488Y004872
Y005187
Y0055019
X0091339
Y005187
X0091339Y004872
X0094488Y0042027
X0098425Y0043602
X0101279Y0041831
X0101279Y0039272
Y0036713
X0098524Y003766
X0096461Y0037699
X0098524Y0034313
X0093405Y0034646
X0094488Y0029823
Y0026673
X009626Y0026673
X0095866Y0022539
X0095571Y0021161
X0096166Y0019489
X0099311Y0020965
X0100492Y0020669
X0101673Y0022047
X0104921Y0028642
Y0031201
Y003376
Y0036319
Y0038878
Y0041437
X010689
Y0043996
X0104921
X010689Y0047343
X0107087Y0049902
X010689Y0052461
Y005502
X0104921
X0106595Y0057579
X0107776Y0062697
X0108366Y006752
X0096752
X0096752Y0066535
X0095177Y0066043
X0093849
X0090453Y0065945
X0084744Y0064665
X0084744Y0061319
X0082579Y0066043
X0079429
X0079134Y0055019
Y005187
X0079134Y004872
X007874Y0045571
X0079531Y0043506
X0076283
X0073819Y0043602
X0073527Y0045573
X0075496Y0045671
X0075197Y0048327
X007559Y005187
X0074213Y005315
X007313Y0056595
X006998
Y0059744
X007313
X0065256Y0060039
X0063389Y0059845
X0062405Y0058172
X0060138Y0058169
X0060532Y0059744
Y0062894
X0063681
X0066831
Y005689
X0067027Y0052264
X0066831Y0050295
X006998
X0069787Y0046951
X0068405Y0047146
X0066831
X0063681
X0060532
Y005
X0063681Y0050295
X0063779Y0052461
X0065256Y0053445
X0061221Y0055118
X0057382Y0053445
X0055905Y0054035
X0056004Y0055512
X0056004Y0057185
X0054232Y0056595
X0051083
X0051772Y0058661
X0054232Y0059744
Y0062894
X0051083
Y0066043
X0052658
X0054232
X0057382
X0060532
X0057382Y0059744
X0057382Y0058169
X0054232Y0050295
X0051083
Y0053445
X0047933
Y0056595
Y0059744
Y0062894
X004813Y0041929
X0051279
X0054232Y0047146
X0068996Y0039665
X0069685Y0038976
X0070374Y0038287
X0071063Y0037598
X0074114Y0034547
X0074705Y0040256
X0077267Y0041667
X0077264Y0038681
Y0037697
X0079236Y0040258
X0080807Y003937
X0082776Y0036909
X0080807Y0034449
X007874Y0020374
X0077953Y001624
X007874Y0014075
X007559Y0014075
Y0007775
X007874
X0079528Y0003937
X0087402
X0086811Y0008661
X0086417Y001063
X0086516Y0014469
X0086417Y0016339
X0087307Y0017324
X008937Y0017323
X0090059Y0020374
X0092224Y0024311
X0093602
X0101279Y0031594
X0095768Y0006398
X0039882Y0011358
X0034882Y0011358
X0035335Y0003642
X0024803
X0021575Y0003642
X0019882Y0011358
X0024882Y0011358
X0037421Y0027362
X0039961Y0029134
X002874Y0042618
X0025984
X0024016
X002126Y0042618
X0019291
X0019783Y0051673
X0021358
X0022933
X0024508
X0024902Y0049114
X0023425Y0049114
X0026575Y0049016
X0027657Y0050394
X0029232Y0051673
X0030807
X0035138Y005315
X003514Y0056396
X0035138Y0057973
Y0059547
Y0062697
X0032776Y0061122
X0032677Y0065847
X0035039Y0067421
X0042323Y0067815
Y0065059
Y006309
X004252Y0058957
X0042323Y0057185
Y0055216
X0018209Y0051673
X0010591Y0053248
Y0050098
X0007677Y0049114
X0006102Y0050394
Y0060532
X0007972Y0063878
X0005709Y0067126
X0010335Y0067421
Y0068996
Y0070571
X0007776Y0069784
X0006791Y0068012
X0005906Y0079035
X0005709Y0080709
X0008071Y0083661
X0001378Y008248
X0008071Y0093504
X0012665Y0091201
X0015618Y0103996
X0017587
X0019555
X0021524Y0103996
X0023492
X0027429
X0029398
X003061Y0106201
X0034252Y0107087
X004626Y0106004
X0046949Y0094193
X0046752Y0092421
X004498Y0090256
X0041732Y0088583
Y0086024
X0042815Y0084153
X0045965Y0085335
X0041732Y0080905
X0042323Y0077067
Y0075098
Y0069784
X0043799Y0068996
X0041012Y0070768
X0033957Y0070571
Y0072146
X0032776Y0074508
X0033366Y0068996
X0036516Y0077953
X0036614Y0083366
X0027429Y0085394
X0027657Y0076378
X0026083Y0075
X0024508Y0075295
X0022933
X0021358
X0019783
X0018209
X0016634
X0015059
X0013484
X000561Y0106693
X0056496Y0106004
X005876Y0102461
X0053248Y0102461
X0053347Y0099016
X0051083Y0097539
X0049508Y0093504
X0047933Y009124
X0047539Y0088091
X0048917Y0086319
X0052854
X0055807Y0086811
X0060532Y0086909
X0059547Y0084055
X0059547Y0082579
X0062402Y0082579
X0061221Y0080216
X0064468Y0081004
X0064862Y0078642
X005876Y0078445
X0059744Y0077264
X0059055Y0075984
X0057382Y0076673
X0055807Y0075591
X0052559Y0077067
X0051279Y0077067
X0054429Y0081595
X0057185Y008189
X0057579Y0091043
X0054035Y0090945
X0051083Y008809
X0064567Y0086516
X0066634Y0086319
Y0088287
X0067618Y0093209
X0063681Y0093209
Y0097539
X0060532Y0097835
X0063583Y0106004
X0066732
X0073819
X0076968
X0082087
X0089173
X0090453Y0099114
X0095177Y0097539
X0100335Y0099114
X0106398Y0101378
X0106398Y009311
Y0086024
Y0082874
Y0075787
X0103937Y0072736
X0106398Y0069193
X0096752Y0068504
X0090453Y0068799
X0090453Y0073622
X0090453Y0076181
Y007874
Y0081299
X0090453Y0083858
X0089075Y0083366
X0088878Y0084941
Y0088386
X0090453Y0087697
X0092028Y008809
X0095177
X0100394Y0084842
X0088878Y009124
X0085728
X0082579
X0079429
X0074803Y0090354
X007313Y0091536
Y009439
X0072342Y0099114
X0076279Y0097539
Y0100689
X0085728
X0081693Y008563
X0079429Y0084941
Y0081791
X0076279
X0075787Y0083366
X007313Y0081791
Y0078642
X0076279
X0079429
X0081496
X0082579Y0075492
X0084153Y007628
X0082579Y0072342
Y0069193
X0079429
X0076279
X0075787Y0073917
X007441
X0071653Y0073524
X0071653Y0075492
X0082579Y0081791
X0085728Y0072342
X0060532Y0069193
X0058858
X0057382
X0055807
X0054232
X00625Y0108858
T02
X0059452Y0054924
X0037894Y0066043
X0062106Y0089961
X0084449Y0083661
T03
X0069488Y0007874
X0082874Y0002657
X0096457Y0009646
X0104921Y0011811
X0099705Y0024016
X0101969Y0027953
X0086417Y0027264
X0045866Y004439
X0027067Y0024016
X00375Y0081496
X0001575Y0077559
X0005906Y0103937
X0009843Y0104626
X0017421Y0107677
X0107677Y0072441
T04
X0049882Y0021358
X0054882Y0016358
X0059882Y0016358
X0064882Y0016358
X006939Y0017913
Y0011811
X0069409Y0004921
X006939Y0024803
Y0030906
X0059882Y0031358
X0049882Y0031358
X0044882Y0033898
X0034882Y0031358
X0029882Y0031358
X0019882Y0031358
Y0026358
X0014882Y0031358
X0006811Y0030906
X0006811Y0017913
X0014882Y0016358
X0024882Y0016358
X0029882
X0039882Y0016358
X0044882Y0016358
X0041929Y0004331
X0027756Y0046358
X0021555Y0059153
X0015748
X0017028Y0096653
Y0099634
T05
X0006811Y0024803
T06
X005Y0
X0055
X006
X0065
X007
X0075
X008
X0085
X009
X0095
X01
X0105
X011Y0005
Y001
Y0015
Y002
Y0025
Y003
Y0035
Y004
Y0045
Y005
Y0055
Y006
Y0065
X0
Y006
Y0055
Y005
Y0045
Y004
Y0035
Y003
Y0025
Y002
Y0015
Y001
Y0005
X0005Y0
X001
X0015
X002
X0025
X003
X0035
X004
X0045
Y011
X004
X0035
X003
X0025
X002
X0015
X001
X0005
X0Y0105
Y01
Y0095
Y009
Y0085
Y008
Y0075
Y007
X005Y011
X0055
X006
X0065
X007
X0075
X008
X0085
X009
X0095
X01
X0105
X011Y0105
Y01
Y0095
Y009
Y0085
Y008
Y0075
Y007
M30
